<mxfile host="Electron" agent="Mozilla/5.0 (Windows NT 10.0; Win64; x64) AppleWebKit/537.36 (KHTML, like Gecko) draw.io/24.7.17 Chrome/128.0.6613.36 Electron/32.0.1 Safari/537.36" version="24.7.17" pages="12">
  <diagram name="PÃ¡gina-1" id="UtLBveVUMKZ4Enqu5KPf">
    <mxGraphModel dx="1434" dy="836" grid="1" gridSize="10" guides="1" tooltips="1" connect="1" arrows="1" fold="1" page="1" pageScale="1" pageWidth="827" pageHeight="1169" math="0" shadow="0">
      <root>
        <mxCell id="0" />
        <mxCell id="1" parent="0" />
        <mxCell id="YC656VGGNCNrYlbVjDHO-1" value="" style="ellipse;whiteSpace=wrap;html=1;aspect=fixed;" vertex="1" parent="1">
          <mxGeometry x="560" y="280" width="50" height="50" as="geometry" />
        </mxCell>
        <mxCell id="YC656VGGNCNrYlbVjDHO-2" value="" style="ellipse;whiteSpace=wrap;html=1;aspect=fixed;" vertex="1" parent="1">
          <mxGeometry x="690" y="280" width="50" height="50" as="geometry" />
        </mxCell>
        <mxCell id="YC656VGGNCNrYlbVjDHO-3" value="" style="ellipse;whiteSpace=wrap;html=1;aspect=fixed;" vertex="1" parent="1">
          <mxGeometry x="20" y="380" width="50" height="50" as="geometry" />
        </mxCell>
        <mxCell id="YC656VGGNCNrYlbVjDHO-4" value="" style="ellipse;whiteSpace=wrap;html=1;aspect=fixed;" vertex="1" parent="1">
          <mxGeometry x="140" y="380" width="50" height="50" as="geometry" />
        </mxCell>
        <mxCell id="YC656VGGNCNrYlbVjDHO-5" value="" style="ellipse;whiteSpace=wrap;html=1;aspect=fixed;" vertex="1" parent="1">
          <mxGeometry x="260" y="380" width="50" height="50" as="geometry" />
        </mxCell>
        <mxCell id="YC656VGGNCNrYlbVjDHO-6" value="" style="ellipse;whiteSpace=wrap;html=1;aspect=fixed;" vertex="1" parent="1">
          <mxGeometry x="370" y="380" width="50" height="50" as="geometry" />
        </mxCell>
        <mxCell id="YC656VGGNCNrYlbVjDHO-7" value="" style="ellipse;whiteSpace=wrap;html=1;aspect=fixed;" vertex="1" parent="1">
          <mxGeometry x="310" y="280" width="50" height="50" as="geometry" />
        </mxCell>
        <mxCell id="YC656VGGNCNrYlbVjDHO-8" value="" style="ellipse;whiteSpace=wrap;html=1;aspect=fixed;direction=south;" vertex="1" parent="1">
          <mxGeometry x="80" y="280" width="50" height="50" as="geometry" />
        </mxCell>
        <mxCell id="YC656VGGNCNrYlbVjDHO-9" value="" style="ellipse;whiteSpace=wrap;html=1;aspect=fixed;" vertex="1" parent="1">
          <mxGeometry x="620" y="170" width="50" height="50" as="geometry" />
        </mxCell>
        <mxCell id="YC656VGGNCNrYlbVjDHO-10" value="" style="ellipse;whiteSpace=wrap;html=1;aspect=fixed;" vertex="1" parent="1">
          <mxGeometry x="170" y="170" width="50" height="50" as="geometry" />
        </mxCell>
        <mxCell id="YC656VGGNCNrYlbVjDHO-11" value="" style="ellipse;whiteSpace=wrap;html=1;aspect=fixed;" vertex="1" parent="1">
          <mxGeometry x="370" y="80" width="50" height="50" as="geometry" />
        </mxCell>
        <mxCell id="YC656VGGNCNrYlbVjDHO-12" value="" style="ellipse;whiteSpace=wrap;html=1;aspect=fixed;" vertex="1" parent="1">
          <mxGeometry x="520" y="380" width="50" height="50" as="geometry" />
        </mxCell>
        <mxCell id="YC656VGGNCNrYlbVjDHO-13" value="" style="endArrow=none;html=1;rounded=0;entryX=0;entryY=0.5;entryDx=0;entryDy=0;exitX=0.5;exitY=0;exitDx=0;exitDy=0;" edge="1" parent="1" source="YC656VGGNCNrYlbVjDHO-10" target="YC656VGGNCNrYlbVjDHO-11">
          <mxGeometry width="50" height="50" relative="1" as="geometry">
            <mxPoint x="350" y="250" as="sourcePoint" />
            <mxPoint x="400" y="200" as="targetPoint" />
          </mxGeometry>
        </mxCell>
        <mxCell id="YC656VGGNCNrYlbVjDHO-14" value="" style="endArrow=none;html=1;rounded=0;entryX=0.5;entryY=0;entryDx=0;entryDy=0;exitX=1;exitY=0.5;exitDx=0;exitDy=0;" edge="1" parent="1" source="YC656VGGNCNrYlbVjDHO-11" target="YC656VGGNCNrYlbVjDHO-9">
          <mxGeometry width="50" height="50" relative="1" as="geometry">
            <mxPoint x="234" y="195" as="sourcePoint" />
            <mxPoint x="405" y="140" as="targetPoint" />
          </mxGeometry>
        </mxCell>
        <mxCell id="YC656VGGNCNrYlbVjDHO-15" value="" style="endArrow=none;html=1;rounded=0;entryX=0;entryY=0.5;entryDx=0;entryDy=0;exitX=0;exitY=1;exitDx=0;exitDy=0;" edge="1" parent="1" source="YC656VGGNCNrYlbVjDHO-10" target="YC656VGGNCNrYlbVjDHO-8">
          <mxGeometry width="50" height="50" relative="1" as="geometry">
            <mxPoint x="244" y="205" as="sourcePoint" />
            <mxPoint x="415" y="150" as="targetPoint" />
          </mxGeometry>
        </mxCell>
        <mxCell id="YC656VGGNCNrYlbVjDHO-16" value="" style="endArrow=none;html=1;rounded=0;entryX=0.5;entryY=0;entryDx=0;entryDy=0;exitX=1;exitY=1;exitDx=0;exitDy=0;" edge="1" parent="1" source="YC656VGGNCNrYlbVjDHO-10" target="YC656VGGNCNrYlbVjDHO-7">
          <mxGeometry width="50" height="50" relative="1" as="geometry">
            <mxPoint x="254" y="215" as="sourcePoint" />
            <mxPoint x="425" y="160" as="targetPoint" />
          </mxGeometry>
        </mxCell>
        <mxCell id="YC656VGGNCNrYlbVjDHO-17" value="" style="endArrow=none;html=1;rounded=0;entryX=0.5;entryY=0;entryDx=0;entryDy=0;exitX=1;exitY=1;exitDx=0;exitDy=0;" edge="1" parent="1" source="YC656VGGNCNrYlbVjDHO-7" target="YC656VGGNCNrYlbVjDHO-6">
          <mxGeometry width="50" height="50" relative="1" as="geometry">
            <mxPoint x="300" y="330" as="sourcePoint" />
            <mxPoint x="435" y="170" as="targetPoint" />
          </mxGeometry>
        </mxCell>
        <mxCell id="YC656VGGNCNrYlbVjDHO-18" value="" style="endArrow=none;html=1;rounded=0;entryX=0.5;entryY=0;entryDx=0;entryDy=0;exitX=0;exitY=1;exitDx=0;exitDy=0;" edge="1" parent="1" source="YC656VGGNCNrYlbVjDHO-7" target="YC656VGGNCNrYlbVjDHO-5">
          <mxGeometry width="50" height="50" relative="1" as="geometry">
            <mxPoint x="274" y="235" as="sourcePoint" />
            <mxPoint x="445" y="180" as="targetPoint" />
          </mxGeometry>
        </mxCell>
        <mxCell id="YC656VGGNCNrYlbVjDHO-19" value="" style="endArrow=none;html=1;rounded=0;entryX=0.5;entryY=0;entryDx=0;entryDy=0;exitX=1;exitY=0;exitDx=0;exitDy=0;" edge="1" parent="1" source="YC656VGGNCNrYlbVjDHO-8" target="YC656VGGNCNrYlbVjDHO-4">
          <mxGeometry width="50" height="50" relative="1" as="geometry">
            <mxPoint x="284" y="245" as="sourcePoint" />
            <mxPoint x="455" y="190" as="targetPoint" />
          </mxGeometry>
        </mxCell>
        <mxCell id="YC656VGGNCNrYlbVjDHO-20" value="" style="endArrow=none;html=1;rounded=0;entryX=0.5;entryY=0;entryDx=0;entryDy=0;exitX=1;exitY=1;exitDx=0;exitDy=0;" edge="1" parent="1" source="YC656VGGNCNrYlbVjDHO-8" target="YC656VGGNCNrYlbVjDHO-3">
          <mxGeometry width="50" height="50" relative="1" as="geometry">
            <mxPoint x="294" y="255" as="sourcePoint" />
            <mxPoint x="465" y="200" as="targetPoint" />
          </mxGeometry>
        </mxCell>
        <mxCell id="YC656VGGNCNrYlbVjDHO-21" value="" style="endArrow=none;html=1;rounded=0;exitX=0;exitY=1;exitDx=0;exitDy=0;entryX=0.5;entryY=0;entryDx=0;entryDy=0;" edge="1" parent="1" source="YC656VGGNCNrYlbVjDHO-9" target="YC656VGGNCNrYlbVjDHO-1">
          <mxGeometry width="50" height="50" relative="1" as="geometry">
            <mxPoint x="384" y="345" as="sourcePoint" />
            <mxPoint x="555" y="290" as="targetPoint" />
          </mxGeometry>
        </mxCell>
        <mxCell id="YC656VGGNCNrYlbVjDHO-22" value="" style="endArrow=none;html=1;rounded=0;entryX=1;entryY=1;entryDx=0;entryDy=0;exitX=0.5;exitY=0;exitDx=0;exitDy=0;" edge="1" parent="1" source="YC656VGGNCNrYlbVjDHO-2" target="YC656VGGNCNrYlbVjDHO-9">
          <mxGeometry width="50" height="50" relative="1" as="geometry">
            <mxPoint x="394" y="355" as="sourcePoint" />
            <mxPoint x="565" y="300" as="targetPoint" />
          </mxGeometry>
        </mxCell>
        <mxCell id="YC656VGGNCNrYlbVjDHO-23" value="" style="endArrow=none;html=1;rounded=0;entryX=0;entryY=1;entryDx=0;entryDy=0;exitX=0.5;exitY=0;exitDx=0;exitDy=0;" edge="1" parent="1" source="YC656VGGNCNrYlbVjDHO-12" target="YC656VGGNCNrYlbVjDHO-1">
          <mxGeometry width="50" height="50" relative="1" as="geometry">
            <mxPoint x="404" y="365" as="sourcePoint" />
            <mxPoint x="575" y="310" as="targetPoint" />
          </mxGeometry>
        </mxCell>
        <mxCell id="YC656VGGNCNrYlbVjDHO-25" value="" style="shape=image;verticalLabelPosition=bottom;labelBackgroundColor=default;verticalAlign=top;aspect=fixed;imageAspect=0;image=data:image/png,iVBORw0KGgoAAAANSUhEUgAAASwAAABKCAIAAACOxf7RAAAMa0lEQVR4Ae1d7Y3jOAy9nlJN0oqRMraAwJUMkEoGSB058JuUJVuaSTZnH/NjoygU+fjIJ9szY+8/z3wlA8nARxn456PRM3gykAw8U4TZBMnAhxlIEX64ABk+GUgRZg8kAx9mIEX44QJk+GQgRZg9kAx8mIEU4YcLkOGTgWERPm6Xk77O8+PFFD7m82n6erHT17m7T5r76TJ/k2PArK9fg9cQ6v9pnF/vr8vl4558rSHrIeqAk9e33+84+Z4v1hUDroZEiN3mMr9fT6fT9NK+8IUZSONvmapCQHSXG25BQL29hjqpBltD/K9EWGNide6/KMJVwCtfDoiwljZohnsRgmgDuUno0WnW42epYWpfUjKKHCfQ533Shef5EbcZ0L8eFoIMrHdd2mGjdYncp9Nl/hIVATZNoekH5HdG3RGAL3d0DNu5umKJsj7NnkKoWfUjJAGA6aUpP5+4A/J0uRVaCDLQjVIYZj7xW1cRx9jz2cVqwZ44qK/1Bf3zR04fpNZ8JLxfT9ONKrIsgXE1Xf2RUPI6ua4QLPy+DQl77DzPcGgRP4FJoRFc1Voa5hXzAKR+EYJTp7ciRVagGABZPKbkuXts3ikBm4xbAaLIwQQZ17YLGWIL0lfoX5Zg5pWuAldi48NhCLbHsZAYRG65ks3pcp1QFlAVEgPL0qKwJYlA/uUKeVHp2FOH9lrOigijAsm92Ie+kciOXpg6T5NoAD4qyZppN6uqf4BEUZprkROLVdaaCoSpSbsrHhjA8tBUPil2iw1gIWR9JyQ0k0I8n8CksEq7M3lGMyGtQEX2HoYfC54n73GUcr8IIZj2sXPGQy8qmIIEkEpArJmYeEp7cVOI0CI2/BRIGm4DeGcT5qH8Wr+vqXbJAfZ4InrH68DL/E0zl/nGx0MGrEpAhxARX5IOFoam6F/up3A24b/nMcFT57RKP+K3qk+MpYGorfUjlZLTUSEVZOpHx5jOMVTJiLrKCq12bm1g+/kEMLLcvgpVUC++o3DS3GqnkXHsE+9Ax7YWpSUYminQQgMWQ1TmByG9TIQGxbhYE6E7d/WVqxcGXLYyZ2q1n2Q/5nl6sxrz2R03fZi/X2WjpZKbMNQXR7ncHpDvSQ6J5/khSrCK0iKAbS/7Nsx7Blwitk5GdUnLkggYWs1ehQjpo57TegCabNwRonM0wpN5/unUQpN2Yq8VCWyPitApB4PLLlnOQ9z+dCKk2GNMhK8UbYLRzDpf5kch9YsQ5GFHal8pKog/jLBm1kVILnRvti6RTl0jyDKXYhO2Rf4UJbhyNmF+SIR4qJcev971I4PXymHvQkR8SWp0piDLwykGQMKXdZIupwO1fTQHNAIO9VskpEIvmm6KkGFssWogaVfFBFtrA9t/V4R9kERF3N1SRKqatVw0W85DCcKeVd0XDFK/CP2lFIOE3U+0VwbWI3ILsfnwm+j4kVB2RPJXwuAoofzOJsyPiVDEDz8g/jJRWcGg2alHVQnh7CsqiFVRPUEAwPSKp6O1PZFL6y/PcKntceQJcSowjS5VGWfVTlWaawPboyK0CxzEaEXUTiPssd84n05IcS2EIMLRi7a6ZdqaH4Q0IEJizUscYNmhHyiWtnDjmJhmYiSG0/22CLHp2T/4lOs3nzCM9eSH+cc37DYmFNuUN6rQFoMi1A5GpVFoOaYhM9Tt4d8oUdBkKTDTth1kFjYaOjjHjsHs4jR+KkUYTFyrMWtdrHombTsOagkVCWwPixCvIUMDcBF9cf3YNUAznQgp9qpvUS4BERXNtKWdOD0MP65DGhIhuAjtFY65fECj6ooaV67lEBz3wqLhINtIEGsVF5znu9ulDBJfm5k3S5p0C6unu+2LIcSgCEU/REIUIW9YlJ37fcDl9lgoCjDQC0nTj5bFYsmiECJ++MIyhT1R1pI35Xy6q1lZROasg1Vk7yrwnZ/G2sC2/eol1hrWLjcFASXB8DcEFlHzaq7tghTVFYp4vSOTuJdFMwMc5gcgDYuQ2ci3XTKgnbE4//xJOqWofuLjSGtAhD8hNkV4pC7YzCVFuEnRLwz8Se+ImxThCFu7t00RvquEdLprV2EjcVKEI2ylbTLwBgZShG8gNV0mAyMMpAhH2ErbZOANDKQI30BqukwGRhhIEY6wlbbJwBsYSBG+gdR0mQyMMJAiHGErbZOBNzCQInwDqekyGRhhIEU4wlbaJgNvYCBF+AZS02UyMMJAinCErbRNBt7AwJgI5b6Y8p49u0+k76/IzY/djuiT6/zzfP1LSLoTaPMP2MGtu2nIR1wZQxS6D9DuvhE/+L4Zl5yXt1c7Evo8yN1S+JCb7Qe+bhWlk2Qjze4wckiECbvxaoVKvD0tWkZX3X97uUJm9N9A48gP9lukNdz9bnpAhIib2wWwyk1fMJY7u8BGxi1g3k+4AVQWEBHa9zK9eP+eL1ux3BpsJoe5r96s8wYY8Nnnh1rZ6o0kyMeeW2DARvcC8NaAxBl7kqtF6SPZJwhU1JJFioRYR/hyWJJAt6euJ7L0Ig8fEPb4iR6ykXXcyuDJ8R3o56uk1cC8YK5fhLEGlmrREOUWtcAY/YRHbqHt13S6TptNBqZg2f3kYQOMUTr6HktyWgHjd59FmjZB7Y5PSdS+KUiAW6Vr/R2d9CfrHjsCLpbJdpJckGY3Qxsw37g2uxjVSIATi/msnCzW1CZqfgoy4eOqsJv24FxJXpJWw/OSuX4RhnABrv8GoA/RutTwdF/eU+9DyPhxu+jTPjcf2geK9YfNDpyP24wSLxBK+A4PZHq/4X8WEOzLRmnyydEaGATL8t1rY7Gpw0N4O0n2nhd+/MOBvGFlXCMBl58v8vycjW2InDb8+IijXJn9Kmk+xIvHwyJEoM2n3281U4m+qCvoCp4tb7yUC9xniCW68vQ5Ez8En3q0gbW9m0UdzGim7gEkgCoABn26Pdij5jGdXwASeq3u9LIejmP40t0dvxkiWXzV9VaUzxk3hmEn4idxSC6hQI31Ml34kWkmVrrCTTeHZQoN0prrX/HFsAg5aI0F7Gw5Ne8Ah43oDpt2jVfv+1WXxTlGzZZ6Hdty+to8bVYPVTDVSV1SGywYQ7oQTXxkTm0xhLOjPSYivVszp9NR6cVS8Dw/lAICiGKmR7DovlbHUcwuSAjfF2e/4bv4oeGn7Ki4aPmpsIeKVElbrnzpzE9F6B99hYB+q8BweTDUH8zH5mVV4A2q2Llf1MD0t4tGbfQNfb8FvtwygO1SEhppedTSHcpfg9Xy8j5sXFVg+QgvM18ZrZJQuXZtuar5KRTVWqrzC/uCECVNV7xr0C/CFYgAV7eQHqQVxQKt5Wt1l63gWT84eGBQANnz/HxtXAQCky0N1NzU+kbsKiHkK3oHhn12WwAKh9JPwyTzGWO1ECMcSjaRhNJDcd0uiyrv0Q9XpHdXBX+VDiwvgoS0SvgXT/WLMDz8F3cR9+uK3oYG9H5tI5uih+pWwKPELctZWeF8Yi/6nq6Y25RbyJM/Kk/sGw/YJ2Jhi5E/9nbg9z4bhC/zKkLyEbWqwNfsRCGRHjyCcEnmiAIbhKAyfUeN+BRkP3kfEKHsH3S8knM55LE4hHF/+74xbMB18VqUOdTD96u5wRHuZ+RM8JDIhcpg76C6iJuKCmAobO03KEuzELz4wUydzPAc5LjcP3bV/5KwTjKsdeS4C2/zGgBXScZmLWqlPFd5q05ayCUJOMMhXFECNrdehkGEYFy82FWdnLb9NmkC4KXvYyIcDX2/as1Gl3r7x3wd+i+BB+2/54n+u08f8wfjr6n76LrmfZS0UftG7EHSGl6eOyezldZb598pwu/5svbDg+68via3R3asGrS/X6sHio5AweQxn1+x44ySNmofMLsPg6S5lWG4bzJDKn/vwztF+PeyyEjJwI4ZSBHuuHgJ/RgMpAiPUcfMYscMpAh3XLyEfgwGUoTHqGNmsWMGUoQ7Ll5CPwYDKcJj1DGz2DEDKcIdFy+hH4OBFOEx6phZ7JiBFOGOi5fQj8FAivAYdcwsdsxAinDHxUvox2AgRXiMOmYWO2YgRbjj4iX0YzCQIjxGHTOLHTOQItxx8RL6MRhIER6jjpnFjhlIEe64eAn9GAykCI9Rx8xixwykCHdcvIR+DAZShMeoY2axYwZShDsuXkI/BgMpwmPUMbPYMQMpwh0XL6Efg4EU4THqmFnsmIEU4Y6Ll9CPwUCK8Bh1zCx2zECKcMfFS+jHYCBFeIw6ZhY7ZiBFuOPiJfRjMPAv43huAbvItTsAAAAASUVORK5CYII=;" vertex="1" parent="1">
          <mxGeometry x="30" y="20" width="300" height="74" as="geometry" />
        </mxCell>
      </root>
    </mxGraphModel>
  </diagram>
  <diagram name="2" id="bToeUfRXtAu9Tsi7Pee1">
    <mxGraphModel dx="1434" dy="836" grid="1" gridSize="10" guides="1" tooltips="1" connect="1" arrows="1" fold="1" page="1" pageScale="1" pageWidth="827" pageHeight="1169" math="0" shadow="0">
      <root>
        <mxCell id="NqS4uLVSOKFfcIgi9tHA-0" />
        <mxCell id="NqS4uLVSOKFfcIgi9tHA-1" parent="NqS4uLVSOKFfcIgi9tHA-0" />
        <mxCell id="NqS4uLVSOKFfcIgi9tHA-2" value="" style="ellipse;whiteSpace=wrap;html=1;aspect=fixed;" vertex="1" parent="NqS4uLVSOKFfcIgi9tHA-1">
          <mxGeometry x="560" y="280" width="50" height="50" as="geometry" />
        </mxCell>
        <mxCell id="NqS4uLVSOKFfcIgi9tHA-3" value="" style="ellipse;whiteSpace=wrap;html=1;aspect=fixed;" vertex="1" parent="NqS4uLVSOKFfcIgi9tHA-1">
          <mxGeometry x="690" y="280" width="50" height="50" as="geometry" />
        </mxCell>
        <mxCell id="NqS4uLVSOKFfcIgi9tHA-4" value="" style="ellipse;whiteSpace=wrap;html=1;aspect=fixed;" vertex="1" parent="NqS4uLVSOKFfcIgi9tHA-1">
          <mxGeometry x="20" y="380" width="50" height="50" as="geometry" />
        </mxCell>
        <mxCell id="NqS4uLVSOKFfcIgi9tHA-5" value="" style="ellipse;whiteSpace=wrap;html=1;aspect=fixed;" vertex="1" parent="NqS4uLVSOKFfcIgi9tHA-1">
          <mxGeometry x="140" y="380" width="50" height="50" as="geometry" />
        </mxCell>
        <mxCell id="NqS4uLVSOKFfcIgi9tHA-6" value="" style="ellipse;whiteSpace=wrap;html=1;aspect=fixed;" vertex="1" parent="NqS4uLVSOKFfcIgi9tHA-1">
          <mxGeometry x="260" y="380" width="50" height="50" as="geometry" />
        </mxCell>
        <mxCell id="NqS4uLVSOKFfcIgi9tHA-7" value="" style="ellipse;whiteSpace=wrap;html=1;aspect=fixed;" vertex="1" parent="NqS4uLVSOKFfcIgi9tHA-1">
          <mxGeometry x="370" y="380" width="50" height="50" as="geometry" />
        </mxCell>
        <mxCell id="NqS4uLVSOKFfcIgi9tHA-8" value="" style="ellipse;whiteSpace=wrap;html=1;aspect=fixed;" vertex="1" parent="NqS4uLVSOKFfcIgi9tHA-1">
          <mxGeometry x="310" y="280" width="50" height="50" as="geometry" />
        </mxCell>
        <mxCell id="NqS4uLVSOKFfcIgi9tHA-9" value="" style="ellipse;whiteSpace=wrap;html=1;aspect=fixed;direction=south;" vertex="1" parent="NqS4uLVSOKFfcIgi9tHA-1">
          <mxGeometry x="80" y="280" width="50" height="50" as="geometry" />
        </mxCell>
        <mxCell id="NqS4uLVSOKFfcIgi9tHA-10" value="" style="ellipse;whiteSpace=wrap;html=1;aspect=fixed;" vertex="1" parent="NqS4uLVSOKFfcIgi9tHA-1">
          <mxGeometry x="620" y="170" width="50" height="50" as="geometry" />
        </mxCell>
        <mxCell id="NqS4uLVSOKFfcIgi9tHA-11" value="24" style="ellipse;whiteSpace=wrap;html=1;aspect=fixed;" vertex="1" parent="NqS4uLVSOKFfcIgi9tHA-1">
          <mxGeometry x="170" y="170" width="50" height="50" as="geometry" />
        </mxCell>
        <mxCell id="NqS4uLVSOKFfcIgi9tHA-12" value="32" style="ellipse;whiteSpace=wrap;html=1;aspect=fixed;" vertex="1" parent="NqS4uLVSOKFfcIgi9tHA-1">
          <mxGeometry x="370" y="80" width="50" height="50" as="geometry" />
        </mxCell>
        <mxCell id="NqS4uLVSOKFfcIgi9tHA-13" value="" style="ellipse;whiteSpace=wrap;html=1;aspect=fixed;" vertex="1" parent="NqS4uLVSOKFfcIgi9tHA-1">
          <mxGeometry x="520" y="380" width="50" height="50" as="geometry" />
        </mxCell>
        <mxCell id="NqS4uLVSOKFfcIgi9tHA-14" value="" style="endArrow=none;html=1;rounded=0;entryX=0;entryY=0.5;entryDx=0;entryDy=0;exitX=0.5;exitY=0;exitDx=0;exitDy=0;" edge="1" parent="NqS4uLVSOKFfcIgi9tHA-1" source="NqS4uLVSOKFfcIgi9tHA-11" target="NqS4uLVSOKFfcIgi9tHA-12">
          <mxGeometry width="50" height="50" relative="1" as="geometry">
            <mxPoint x="350" y="250" as="sourcePoint" />
            <mxPoint x="400" y="200" as="targetPoint" />
          </mxGeometry>
        </mxCell>
        <mxCell id="NqS4uLVSOKFfcIgi9tHA-15" value="" style="endArrow=none;html=1;rounded=0;entryX=0.5;entryY=0;entryDx=0;entryDy=0;exitX=1;exitY=0.5;exitDx=0;exitDy=0;" edge="1" parent="NqS4uLVSOKFfcIgi9tHA-1" source="NqS4uLVSOKFfcIgi9tHA-12" target="NqS4uLVSOKFfcIgi9tHA-10">
          <mxGeometry width="50" height="50" relative="1" as="geometry">
            <mxPoint x="234" y="195" as="sourcePoint" />
            <mxPoint x="405" y="140" as="targetPoint" />
          </mxGeometry>
        </mxCell>
        <mxCell id="NqS4uLVSOKFfcIgi9tHA-16" value="" style="endArrow=none;html=1;rounded=0;entryX=0;entryY=0.5;entryDx=0;entryDy=0;exitX=0;exitY=1;exitDx=0;exitDy=0;" edge="1" parent="NqS4uLVSOKFfcIgi9tHA-1" source="NqS4uLVSOKFfcIgi9tHA-11" target="NqS4uLVSOKFfcIgi9tHA-9">
          <mxGeometry width="50" height="50" relative="1" as="geometry">
            <mxPoint x="244" y="205" as="sourcePoint" />
            <mxPoint x="415" y="150" as="targetPoint" />
          </mxGeometry>
        </mxCell>
        <mxCell id="NqS4uLVSOKFfcIgi9tHA-17" value="" style="endArrow=none;html=1;rounded=0;entryX=0.5;entryY=0;entryDx=0;entryDy=0;exitX=1;exitY=1;exitDx=0;exitDy=0;" edge="1" parent="NqS4uLVSOKFfcIgi9tHA-1" source="NqS4uLVSOKFfcIgi9tHA-11" target="NqS4uLVSOKFfcIgi9tHA-8">
          <mxGeometry width="50" height="50" relative="1" as="geometry">
            <mxPoint x="254" y="215" as="sourcePoint" />
            <mxPoint x="425" y="160" as="targetPoint" />
          </mxGeometry>
        </mxCell>
        <mxCell id="NqS4uLVSOKFfcIgi9tHA-18" value="" style="endArrow=none;html=1;rounded=0;entryX=0.5;entryY=0;entryDx=0;entryDy=0;exitX=1;exitY=1;exitDx=0;exitDy=0;" edge="1" parent="NqS4uLVSOKFfcIgi9tHA-1" source="NqS4uLVSOKFfcIgi9tHA-8" target="NqS4uLVSOKFfcIgi9tHA-7">
          <mxGeometry width="50" height="50" relative="1" as="geometry">
            <mxPoint x="300" y="330" as="sourcePoint" />
            <mxPoint x="435" y="170" as="targetPoint" />
          </mxGeometry>
        </mxCell>
        <mxCell id="NqS4uLVSOKFfcIgi9tHA-19" value="" style="endArrow=none;html=1;rounded=0;entryX=0.5;entryY=0;entryDx=0;entryDy=0;exitX=0;exitY=1;exitDx=0;exitDy=0;" edge="1" parent="NqS4uLVSOKFfcIgi9tHA-1" source="NqS4uLVSOKFfcIgi9tHA-8" target="NqS4uLVSOKFfcIgi9tHA-6">
          <mxGeometry width="50" height="50" relative="1" as="geometry">
            <mxPoint x="274" y="235" as="sourcePoint" />
            <mxPoint x="445" y="180" as="targetPoint" />
          </mxGeometry>
        </mxCell>
        <mxCell id="NqS4uLVSOKFfcIgi9tHA-20" value="" style="endArrow=none;html=1;rounded=0;entryX=0.5;entryY=0;entryDx=0;entryDy=0;exitX=1;exitY=0;exitDx=0;exitDy=0;" edge="1" parent="NqS4uLVSOKFfcIgi9tHA-1" source="NqS4uLVSOKFfcIgi9tHA-9" target="NqS4uLVSOKFfcIgi9tHA-5">
          <mxGeometry width="50" height="50" relative="1" as="geometry">
            <mxPoint x="284" y="245" as="sourcePoint" />
            <mxPoint x="455" y="190" as="targetPoint" />
          </mxGeometry>
        </mxCell>
        <mxCell id="NqS4uLVSOKFfcIgi9tHA-21" value="" style="endArrow=none;html=1;rounded=0;entryX=0.5;entryY=0;entryDx=0;entryDy=0;exitX=1;exitY=1;exitDx=0;exitDy=0;" edge="1" parent="NqS4uLVSOKFfcIgi9tHA-1" source="NqS4uLVSOKFfcIgi9tHA-9" target="NqS4uLVSOKFfcIgi9tHA-4">
          <mxGeometry width="50" height="50" relative="1" as="geometry">
            <mxPoint x="294" y="255" as="sourcePoint" />
            <mxPoint x="465" y="200" as="targetPoint" />
          </mxGeometry>
        </mxCell>
        <mxCell id="NqS4uLVSOKFfcIgi9tHA-22" value="" style="endArrow=none;html=1;rounded=0;exitX=0;exitY=1;exitDx=0;exitDy=0;entryX=0.5;entryY=0;entryDx=0;entryDy=0;" edge="1" parent="NqS4uLVSOKFfcIgi9tHA-1" source="NqS4uLVSOKFfcIgi9tHA-10" target="NqS4uLVSOKFfcIgi9tHA-2">
          <mxGeometry width="50" height="50" relative="1" as="geometry">
            <mxPoint x="384" y="345" as="sourcePoint" />
            <mxPoint x="555" y="290" as="targetPoint" />
          </mxGeometry>
        </mxCell>
        <mxCell id="NqS4uLVSOKFfcIgi9tHA-23" value="" style="endArrow=none;html=1;rounded=0;entryX=1;entryY=1;entryDx=0;entryDy=0;exitX=0.5;exitY=0;exitDx=0;exitDy=0;" edge="1" parent="NqS4uLVSOKFfcIgi9tHA-1" source="NqS4uLVSOKFfcIgi9tHA-3" target="NqS4uLVSOKFfcIgi9tHA-10">
          <mxGeometry width="50" height="50" relative="1" as="geometry">
            <mxPoint x="394" y="355" as="sourcePoint" />
            <mxPoint x="565" y="300" as="targetPoint" />
          </mxGeometry>
        </mxCell>
        <mxCell id="NqS4uLVSOKFfcIgi9tHA-24" value="" style="endArrow=none;html=1;rounded=0;entryX=0;entryY=1;entryDx=0;entryDy=0;exitX=0.5;exitY=0;exitDx=0;exitDy=0;" edge="1" parent="NqS4uLVSOKFfcIgi9tHA-1" source="NqS4uLVSOKFfcIgi9tHA-13" target="NqS4uLVSOKFfcIgi9tHA-2">
          <mxGeometry width="50" height="50" relative="1" as="geometry">
            <mxPoint x="404" y="365" as="sourcePoint" />
            <mxPoint x="575" y="310" as="targetPoint" />
          </mxGeometry>
        </mxCell>
        <mxCell id="NqS4uLVSOKFfcIgi9tHA-25" value="" style="shape=image;verticalLabelPosition=bottom;labelBackgroundColor=default;verticalAlign=top;aspect=fixed;imageAspect=0;image=data:image/png,iVBORw0KGgoAAAANSUhEUgAAASwAAABKCAIAAACOxf7RAAAMa0lEQVR4Ae1d7Y3jOAy9nlJN0oqRMraAwJUMkEoGSB058JuUJVuaSTZnH/NjoygU+fjIJ9szY+8/z3wlA8nARxn456PRM3gykAw8U4TZBMnAhxlIEX64ABk+GUgRZg8kAx9mIEX44QJk+GQgRZg9kAx8mIEU4YcLkOGTgWERPm6Xk77O8+PFFD7m82n6erHT17m7T5r76TJ/k2PArK9fg9cQ6v9pnF/vr8vl4558rSHrIeqAk9e33+84+Z4v1hUDroZEiN3mMr9fT6fT9NK+8IUZSONvmapCQHSXG25BQL29hjqpBltD/K9EWGNide6/KMJVwCtfDoiwljZohnsRgmgDuUno0WnW42epYWpfUjKKHCfQ533Shef5EbcZ0L8eFoIMrHdd2mGjdYncp9Nl/hIVATZNoekH5HdG3RGAL3d0DNu5umKJsj7NnkKoWfUjJAGA6aUpP5+4A/J0uRVaCDLQjVIYZj7xW1cRx9jz2cVqwZ44qK/1Bf3zR04fpNZ8JLxfT9ONKrIsgXE1Xf2RUPI6ua4QLPy+DQl77DzPcGgRP4FJoRFc1Voa5hXzAKR+EYJTp7ciRVagGABZPKbkuXts3ikBm4xbAaLIwQQZ17YLGWIL0lfoX5Zg5pWuAldi48NhCLbHsZAYRG65ks3pcp1QFlAVEgPL0qKwJYlA/uUKeVHp2FOH9lrOigijAsm92Ie+kciOXpg6T5NoAD4qyZppN6uqf4BEUZprkROLVdaaCoSpSbsrHhjA8tBUPil2iw1gIWR9JyQ0k0I8n8CksEq7M3lGMyGtQEX2HoYfC54n73GUcr8IIZj2sXPGQy8qmIIEkEpArJmYeEp7cVOI0CI2/BRIGm4DeGcT5qH8Wr+vqXbJAfZ4InrH68DL/E0zl/nGx0MGrEpAhxARX5IOFoam6F/up3A24b/nMcFT57RKP+K3qk+MpYGorfUjlZLTUSEVZOpHx5jOMVTJiLrKCq12bm1g+/kEMLLcvgpVUC++o3DS3GqnkXHsE+9Ax7YWpSUYminQQgMWQ1TmByG9TIQGxbhYE6E7d/WVqxcGXLYyZ2q1n2Q/5nl6sxrz2R03fZi/X2WjpZKbMNQXR7ncHpDvSQ6J5/khSrCK0iKAbS/7Nsx7Blwitk5GdUnLkggYWs1ehQjpo57TegCabNwRonM0wpN5/unUQpN2Yq8VCWyPitApB4PLLlnOQ9z+dCKk2GNMhK8UbYLRzDpf5kch9YsQ5GFHal8pKog/jLBm1kVILnRvti6RTl0jyDKXYhO2Rf4UJbhyNmF+SIR4qJcev971I4PXymHvQkR8SWp0piDLwykGQMKXdZIupwO1fTQHNAIO9VskpEIvmm6KkGFssWogaVfFBFtrA9t/V4R9kERF3N1SRKqatVw0W85DCcKeVd0XDFK/CP2lFIOE3U+0VwbWI3ILsfnwm+j4kVB2RPJXwuAoofzOJsyPiVDEDz8g/jJRWcGg2alHVQnh7CsqiFVRPUEAwPSKp6O1PZFL6y/PcKntceQJcSowjS5VGWfVTlWaawPboyK0CxzEaEXUTiPssd84n05IcS2EIMLRi7a6ZdqaH4Q0IEJizUscYNmhHyiWtnDjmJhmYiSG0/22CLHp2T/4lOs3nzCM9eSH+cc37DYmFNuUN6rQFoMi1A5GpVFoOaYhM9Tt4d8oUdBkKTDTth1kFjYaOjjHjsHs4jR+KkUYTFyrMWtdrHombTsOagkVCWwPixCvIUMDcBF9cf3YNUAznQgp9qpvUS4BERXNtKWdOD0MP65DGhIhuAjtFY65fECj6ooaV67lEBz3wqLhINtIEGsVF5znu9ulDBJfm5k3S5p0C6unu+2LIcSgCEU/REIUIW9YlJ37fcDl9lgoCjDQC0nTj5bFYsmiECJ++MIyhT1R1pI35Xy6q1lZROasg1Vk7yrwnZ/G2sC2/eol1hrWLjcFASXB8DcEFlHzaq7tghTVFYp4vSOTuJdFMwMc5gcgDYuQ2ci3XTKgnbE4//xJOqWofuLjSGtAhD8hNkV4pC7YzCVFuEnRLwz8Se+ImxThCFu7t00RvquEdLprV2EjcVKEI2ylbTLwBgZShG8gNV0mAyMMpAhH2ErbZOANDKQI30BqukwGRhhIEY6wlbbJwBsYSBG+gdR0mQyMMJAiHGErbZOBNzCQInwDqekyGRhhIEU4wlbaJgNvYCBF+AZS02UyMMJAinCErbRNBt7AwJgI5b6Y8p49u0+k76/IzY/djuiT6/zzfP1LSLoTaPMP2MGtu2nIR1wZQxS6D9DuvhE/+L4Zl5yXt1c7Evo8yN1S+JCb7Qe+bhWlk2Qjze4wckiECbvxaoVKvD0tWkZX3X97uUJm9N9A48gP9lukNdz9bnpAhIib2wWwyk1fMJY7u8BGxi1g3k+4AVQWEBHa9zK9eP+eL1ux3BpsJoe5r96s8wYY8Nnnh1rZ6o0kyMeeW2DARvcC8NaAxBl7kqtF6SPZJwhU1JJFioRYR/hyWJJAt6euJ7L0Ig8fEPb4iR6ykXXcyuDJ8R3o56uk1cC8YK5fhLEGlmrREOUWtcAY/YRHbqHt13S6TptNBqZg2f3kYQOMUTr6HktyWgHjd59FmjZB7Y5PSdS+KUiAW6Vr/R2d9CfrHjsCLpbJdpJckGY3Qxsw37g2uxjVSIATi/msnCzW1CZqfgoy4eOqsJv24FxJXpJWw/OSuX4RhnABrv8GoA/RutTwdF/eU+9DyPhxu+jTPjcf2geK9YfNDpyP24wSLxBK+A4PZHq/4X8WEOzLRmnyydEaGATL8t1rY7Gpw0N4O0n2nhd+/MOBvGFlXCMBl58v8vycjW2InDb8+IijXJn9Kmk+xIvHwyJEoM2n3281U4m+qCvoCp4tb7yUC9xniCW68vQ5Ez8En3q0gbW9m0UdzGim7gEkgCoABn26Pdij5jGdXwASeq3u9LIejmP40t0dvxkiWXzV9VaUzxk3hmEn4idxSC6hQI31Ml34kWkmVrrCTTeHZQoN0prrX/HFsAg5aI0F7Gw5Ne8Ah43oDpt2jVfv+1WXxTlGzZZ6Hdty+to8bVYPVTDVSV1SGywYQ7oQTXxkTm0xhLOjPSYivVszp9NR6cVS8Dw/lAICiGKmR7DovlbHUcwuSAjfF2e/4bv4oeGn7Ki4aPmpsIeKVElbrnzpzE9F6B99hYB+q8BweTDUH8zH5mVV4A2q2Llf1MD0t4tGbfQNfb8FvtwygO1SEhppedTSHcpfg9Xy8j5sXFVg+QgvM18ZrZJQuXZtuar5KRTVWqrzC/uCECVNV7xr0C/CFYgAV7eQHqQVxQKt5Wt1l63gWT84eGBQANnz/HxtXAQCky0N1NzU+kbsKiHkK3oHhn12WwAKh9JPwyTzGWO1ECMcSjaRhNJDcd0uiyrv0Q9XpHdXBX+VDiwvgoS0SvgXT/WLMDz8F3cR9+uK3oYG9H5tI5uih+pWwKPELctZWeF8Yi/6nq6Y25RbyJM/Kk/sGw/YJ2Jhi5E/9nbg9z4bhC/zKkLyEbWqwNfsRCGRHjyCcEnmiAIbhKAyfUeN+BRkP3kfEKHsH3S8knM55LE4hHF/+74xbMB18VqUOdTD96u5wRHuZ+RM8JDIhcpg76C6iJuKCmAobO03KEuzELz4wUydzPAc5LjcP3bV/5KwTjKsdeS4C2/zGgBXScZmLWqlPFd5q05ayCUJOMMhXFECNrdehkGEYFy82FWdnLb9NmkC4KXvYyIcDX2/as1Gl3r7x3wd+i+BB+2/54n+u08f8wfjr6n76LrmfZS0UftG7EHSGl6eOyezldZb598pwu/5svbDg+68via3R3asGrS/X6sHio5AweQxn1+x44ySNmofMLsPg6S5lWG4bzJDKn/vwztF+PeyyEjJwI4ZSBHuuHgJ/RgMpAiPUcfMYscMpAh3XLyEfgwGUoTHqGNmsWMGUoQ7Ll5CPwYDKcJj1DGz2DEDKcIdFy+hH4OBFOEx6phZ7JiBFOGOi5fQj8FAivAYdcwsdsxAinDHxUvox2AgRXiMOmYWO2YgRbjj4iX0YzCQIjxGHTOLHTOQItxx8RL6MRhIER6jjpnFjhlIEe64eAn9GAykCI9Rx8xixwykCHdcvIR+DAZShMeoY2axYwZShDsuXkI/BgMpwmPUMbPYMQMpwh0XL6Efg4EU4THqmFnsmIEU4Y6Ll9CPwUCK8Bh1zCx2zECKcMfFS+jHYCBFeIw6ZhY7ZiBFuOPiJfRjMPAv43huAbvItTsAAAAASUVORK5CYII=;" vertex="1" parent="NqS4uLVSOKFfcIgi9tHA-1">
          <mxGeometry x="30" y="20" width="300" height="74" as="geometry" />
        </mxCell>
      </root>
    </mxGraphModel>
  </diagram>
  <diagram name="3" id="R-zAuPNlpi1Z7YWliJO9">
    <mxGraphModel dx="1434" dy="836" grid="1" gridSize="10" guides="1" tooltips="1" connect="1" arrows="1" fold="1" page="1" pageScale="1" pageWidth="827" pageHeight="1169" math="0" shadow="0">
      <root>
        <mxCell id="CUCLoSy6GeRblvd0nY9R-0" />
        <mxCell id="CUCLoSy6GeRblvd0nY9R-1" parent="CUCLoSy6GeRblvd0nY9R-0" />
        <mxCell id="CUCLoSy6GeRblvd0nY9R-2" value="" style="ellipse;whiteSpace=wrap;html=1;aspect=fixed;" vertex="1" parent="CUCLoSy6GeRblvd0nY9R-1">
          <mxGeometry x="560" y="280" width="50" height="50" as="geometry" />
        </mxCell>
        <mxCell id="CUCLoSy6GeRblvd0nY9R-3" value="" style="ellipse;whiteSpace=wrap;html=1;aspect=fixed;" vertex="1" parent="CUCLoSy6GeRblvd0nY9R-1">
          <mxGeometry x="690" y="280" width="50" height="50" as="geometry" />
        </mxCell>
        <mxCell id="CUCLoSy6GeRblvd0nY9R-4" value="" style="ellipse;whiteSpace=wrap;html=1;aspect=fixed;" vertex="1" parent="CUCLoSy6GeRblvd0nY9R-1">
          <mxGeometry x="20" y="380" width="50" height="50" as="geometry" />
        </mxCell>
        <mxCell id="CUCLoSy6GeRblvd0nY9R-5" value="" style="ellipse;whiteSpace=wrap;html=1;aspect=fixed;" vertex="1" parent="CUCLoSy6GeRblvd0nY9R-1">
          <mxGeometry x="140" y="380" width="50" height="50" as="geometry" />
        </mxCell>
        <mxCell id="CUCLoSy6GeRblvd0nY9R-6" value="" style="ellipse;whiteSpace=wrap;html=1;aspect=fixed;" vertex="1" parent="CUCLoSy6GeRblvd0nY9R-1">
          <mxGeometry x="260" y="380" width="50" height="50" as="geometry" />
        </mxCell>
        <mxCell id="CUCLoSy6GeRblvd0nY9R-7" value="" style="ellipse;whiteSpace=wrap;html=1;aspect=fixed;" vertex="1" parent="CUCLoSy6GeRblvd0nY9R-1">
          <mxGeometry x="370" y="380" width="50" height="50" as="geometry" />
        </mxCell>
        <mxCell id="CUCLoSy6GeRblvd0nY9R-8" value="" style="ellipse;whiteSpace=wrap;html=1;aspect=fixed;" vertex="1" parent="CUCLoSy6GeRblvd0nY9R-1">
          <mxGeometry x="310" y="280" width="50" height="50" as="geometry" />
        </mxCell>
        <mxCell id="CUCLoSy6GeRblvd0nY9R-9" value="" style="ellipse;whiteSpace=wrap;html=1;aspect=fixed;direction=south;" vertex="1" parent="CUCLoSy6GeRblvd0nY9R-1">
          <mxGeometry x="80" y="280" width="50" height="50" as="geometry" />
        </mxCell>
        <mxCell id="CUCLoSy6GeRblvd0nY9R-10" value="5" style="ellipse;whiteSpace=wrap;html=1;aspect=fixed;" vertex="1" parent="CUCLoSy6GeRblvd0nY9R-1">
          <mxGeometry x="620" y="170" width="50" height="50" as="geometry" />
        </mxCell>
        <mxCell id="CUCLoSy6GeRblvd0nY9R-11" value="24" style="ellipse;whiteSpace=wrap;html=1;aspect=fixed;" vertex="1" parent="CUCLoSy6GeRblvd0nY9R-1">
          <mxGeometry x="170" y="170" width="50" height="50" as="geometry" />
        </mxCell>
        <mxCell id="CUCLoSy6GeRblvd0nY9R-12" value="32" style="ellipse;whiteSpace=wrap;html=1;aspect=fixed;" vertex="1" parent="CUCLoSy6GeRblvd0nY9R-1">
          <mxGeometry x="370" y="80" width="50" height="50" as="geometry" />
        </mxCell>
        <mxCell id="CUCLoSy6GeRblvd0nY9R-13" value="" style="ellipse;whiteSpace=wrap;html=1;aspect=fixed;" vertex="1" parent="CUCLoSy6GeRblvd0nY9R-1">
          <mxGeometry x="520" y="380" width="50" height="50" as="geometry" />
        </mxCell>
        <mxCell id="CUCLoSy6GeRblvd0nY9R-14" value="" style="endArrow=none;html=1;rounded=0;entryX=0;entryY=0.5;entryDx=0;entryDy=0;exitX=0.5;exitY=0;exitDx=0;exitDy=0;" edge="1" parent="CUCLoSy6GeRblvd0nY9R-1" source="CUCLoSy6GeRblvd0nY9R-11" target="CUCLoSy6GeRblvd0nY9R-12">
          <mxGeometry width="50" height="50" relative="1" as="geometry">
            <mxPoint x="350" y="250" as="sourcePoint" />
            <mxPoint x="400" y="200" as="targetPoint" />
          </mxGeometry>
        </mxCell>
        <mxCell id="CUCLoSy6GeRblvd0nY9R-15" value="" style="endArrow=none;html=1;rounded=0;entryX=0.5;entryY=0;entryDx=0;entryDy=0;exitX=1;exitY=0.5;exitDx=0;exitDy=0;" edge="1" parent="CUCLoSy6GeRblvd0nY9R-1" source="CUCLoSy6GeRblvd0nY9R-12" target="CUCLoSy6GeRblvd0nY9R-10">
          <mxGeometry width="50" height="50" relative="1" as="geometry">
            <mxPoint x="234" y="195" as="sourcePoint" />
            <mxPoint x="405" y="140" as="targetPoint" />
          </mxGeometry>
        </mxCell>
        <mxCell id="CUCLoSy6GeRblvd0nY9R-16" value="" style="endArrow=none;html=1;rounded=0;entryX=0;entryY=0.5;entryDx=0;entryDy=0;exitX=0;exitY=1;exitDx=0;exitDy=0;" edge="1" parent="CUCLoSy6GeRblvd0nY9R-1" source="CUCLoSy6GeRblvd0nY9R-11" target="CUCLoSy6GeRblvd0nY9R-9">
          <mxGeometry width="50" height="50" relative="1" as="geometry">
            <mxPoint x="244" y="205" as="sourcePoint" />
            <mxPoint x="415" y="150" as="targetPoint" />
          </mxGeometry>
        </mxCell>
        <mxCell id="CUCLoSy6GeRblvd0nY9R-17" value="" style="endArrow=none;html=1;rounded=0;entryX=0.5;entryY=0;entryDx=0;entryDy=0;exitX=1;exitY=1;exitDx=0;exitDy=0;" edge="1" parent="CUCLoSy6GeRblvd0nY9R-1" source="CUCLoSy6GeRblvd0nY9R-11" target="CUCLoSy6GeRblvd0nY9R-8">
          <mxGeometry width="50" height="50" relative="1" as="geometry">
            <mxPoint x="254" y="215" as="sourcePoint" />
            <mxPoint x="425" y="160" as="targetPoint" />
          </mxGeometry>
        </mxCell>
        <mxCell id="CUCLoSy6GeRblvd0nY9R-18" value="" style="endArrow=none;html=1;rounded=0;entryX=0.5;entryY=0;entryDx=0;entryDy=0;exitX=1;exitY=1;exitDx=0;exitDy=0;" edge="1" parent="CUCLoSy6GeRblvd0nY9R-1" source="CUCLoSy6GeRblvd0nY9R-8" target="CUCLoSy6GeRblvd0nY9R-7">
          <mxGeometry width="50" height="50" relative="1" as="geometry">
            <mxPoint x="300" y="330" as="sourcePoint" />
            <mxPoint x="435" y="170" as="targetPoint" />
          </mxGeometry>
        </mxCell>
        <mxCell id="CUCLoSy6GeRblvd0nY9R-19" value="" style="endArrow=none;html=1;rounded=0;entryX=0.5;entryY=0;entryDx=0;entryDy=0;exitX=0;exitY=1;exitDx=0;exitDy=0;" edge="1" parent="CUCLoSy6GeRblvd0nY9R-1" source="CUCLoSy6GeRblvd0nY9R-8" target="CUCLoSy6GeRblvd0nY9R-6">
          <mxGeometry width="50" height="50" relative="1" as="geometry">
            <mxPoint x="274" y="235" as="sourcePoint" />
            <mxPoint x="445" y="180" as="targetPoint" />
          </mxGeometry>
        </mxCell>
        <mxCell id="CUCLoSy6GeRblvd0nY9R-20" value="" style="endArrow=none;html=1;rounded=0;entryX=0.5;entryY=0;entryDx=0;entryDy=0;exitX=1;exitY=0;exitDx=0;exitDy=0;" edge="1" parent="CUCLoSy6GeRblvd0nY9R-1" source="CUCLoSy6GeRblvd0nY9R-9" target="CUCLoSy6GeRblvd0nY9R-5">
          <mxGeometry width="50" height="50" relative="1" as="geometry">
            <mxPoint x="284" y="245" as="sourcePoint" />
            <mxPoint x="455" y="190" as="targetPoint" />
          </mxGeometry>
        </mxCell>
        <mxCell id="CUCLoSy6GeRblvd0nY9R-21" value="" style="endArrow=none;html=1;rounded=0;entryX=0.5;entryY=0;entryDx=0;entryDy=0;exitX=1;exitY=1;exitDx=0;exitDy=0;" edge="1" parent="CUCLoSy6GeRblvd0nY9R-1" source="CUCLoSy6GeRblvd0nY9R-9" target="CUCLoSy6GeRblvd0nY9R-4">
          <mxGeometry width="50" height="50" relative="1" as="geometry">
            <mxPoint x="294" y="255" as="sourcePoint" />
            <mxPoint x="465" y="200" as="targetPoint" />
          </mxGeometry>
        </mxCell>
        <mxCell id="CUCLoSy6GeRblvd0nY9R-22" value="" style="endArrow=none;html=1;rounded=0;exitX=0;exitY=1;exitDx=0;exitDy=0;entryX=0.5;entryY=0;entryDx=0;entryDy=0;" edge="1" parent="CUCLoSy6GeRblvd0nY9R-1" source="CUCLoSy6GeRblvd0nY9R-10" target="CUCLoSy6GeRblvd0nY9R-2">
          <mxGeometry width="50" height="50" relative="1" as="geometry">
            <mxPoint x="384" y="345" as="sourcePoint" />
            <mxPoint x="555" y="290" as="targetPoint" />
          </mxGeometry>
        </mxCell>
        <mxCell id="CUCLoSy6GeRblvd0nY9R-23" value="" style="endArrow=none;html=1;rounded=0;entryX=1;entryY=1;entryDx=0;entryDy=0;exitX=0.5;exitY=0;exitDx=0;exitDy=0;" edge="1" parent="CUCLoSy6GeRblvd0nY9R-1" source="CUCLoSy6GeRblvd0nY9R-3" target="CUCLoSy6GeRblvd0nY9R-10">
          <mxGeometry width="50" height="50" relative="1" as="geometry">
            <mxPoint x="394" y="355" as="sourcePoint" />
            <mxPoint x="565" y="300" as="targetPoint" />
          </mxGeometry>
        </mxCell>
        <mxCell id="CUCLoSy6GeRblvd0nY9R-24" value="" style="endArrow=none;html=1;rounded=0;entryX=0;entryY=1;entryDx=0;entryDy=0;exitX=0.5;exitY=0;exitDx=0;exitDy=0;" edge="1" parent="CUCLoSy6GeRblvd0nY9R-1" source="CUCLoSy6GeRblvd0nY9R-13" target="CUCLoSy6GeRblvd0nY9R-2">
          <mxGeometry width="50" height="50" relative="1" as="geometry">
            <mxPoint x="404" y="365" as="sourcePoint" />
            <mxPoint x="575" y="310" as="targetPoint" />
          </mxGeometry>
        </mxCell>
        <mxCell id="CUCLoSy6GeRblvd0nY9R-25" value="" style="shape=image;verticalLabelPosition=bottom;labelBackgroundColor=default;verticalAlign=top;aspect=fixed;imageAspect=0;image=data:image/png,iVBORw0KGgoAAAANSUhEUgAAASwAAABKCAIAAACOxf7RAAAMa0lEQVR4Ae1d7Y3jOAy9nlJN0oqRMraAwJUMkEoGSB058JuUJVuaSTZnH/NjoygU+fjIJ9szY+8/z3wlA8nARxn456PRM3gykAw8U4TZBMnAhxlIEX64ABk+GUgRZg8kAx9mIEX44QJk+GQgRZg9kAx8mIEU4YcLkOGTgWERPm6Xk77O8+PFFD7m82n6erHT17m7T5r76TJ/k2PArK9fg9cQ6v9pnF/vr8vl4558rSHrIeqAk9e33+84+Z4v1hUDroZEiN3mMr9fT6fT9NK+8IUZSONvmapCQHSXG25BQL29hjqpBltD/K9EWGNide6/KMJVwCtfDoiwljZohnsRgmgDuUno0WnW42epYWpfUjKKHCfQ533Shef5EbcZ0L8eFoIMrHdd2mGjdYncp9Nl/hIVATZNoekH5HdG3RGAL3d0DNu5umKJsj7NnkKoWfUjJAGA6aUpP5+4A/J0uRVaCDLQjVIYZj7xW1cRx9jz2cVqwZ44qK/1Bf3zR04fpNZ8JLxfT9ONKrIsgXE1Xf2RUPI6ua4QLPy+DQl77DzPcGgRP4FJoRFc1Voa5hXzAKR+EYJTp7ciRVagGABZPKbkuXts3ikBm4xbAaLIwQQZ17YLGWIL0lfoX5Zg5pWuAldi48NhCLbHsZAYRG65ks3pcp1QFlAVEgPL0qKwJYlA/uUKeVHp2FOH9lrOigijAsm92Ie+kciOXpg6T5NoAD4qyZppN6uqf4BEUZprkROLVdaaCoSpSbsrHhjA8tBUPil2iw1gIWR9JyQ0k0I8n8CksEq7M3lGMyGtQEX2HoYfC54n73GUcr8IIZj2sXPGQy8qmIIEkEpArJmYeEp7cVOI0CI2/BRIGm4DeGcT5qH8Wr+vqXbJAfZ4InrH68DL/E0zl/nGx0MGrEpAhxARX5IOFoam6F/up3A24b/nMcFT57RKP+K3qk+MpYGorfUjlZLTUSEVZOpHx5jOMVTJiLrKCq12bm1g+/kEMLLcvgpVUC++o3DS3GqnkXHsE+9Ax7YWpSUYminQQgMWQ1TmByG9TIQGxbhYE6E7d/WVqxcGXLYyZ2q1n2Q/5nl6sxrz2R03fZi/X2WjpZKbMNQXR7ncHpDvSQ6J5/khSrCK0iKAbS/7Nsx7Blwitk5GdUnLkggYWs1ehQjpo57TegCabNwRonM0wpN5/unUQpN2Yq8VCWyPitApB4PLLlnOQ9z+dCKk2GNMhK8UbYLRzDpf5kch9YsQ5GFHal8pKog/jLBm1kVILnRvti6RTl0jyDKXYhO2Rf4UJbhyNmF+SIR4qJcev971I4PXymHvQkR8SWp0piDLwykGQMKXdZIupwO1fTQHNAIO9VskpEIvmm6KkGFssWogaVfFBFtrA9t/V4R9kERF3N1SRKqatVw0W85DCcKeVd0XDFK/CP2lFIOE3U+0VwbWI3ILsfnwm+j4kVB2RPJXwuAoofzOJsyPiVDEDz8g/jJRWcGg2alHVQnh7CsqiFVRPUEAwPSKp6O1PZFL6y/PcKntceQJcSowjS5VGWfVTlWaawPboyK0CxzEaEXUTiPssd84n05IcS2EIMLRi7a6ZdqaH4Q0IEJizUscYNmhHyiWtnDjmJhmYiSG0/22CLHp2T/4lOs3nzCM9eSH+cc37DYmFNuUN6rQFoMi1A5GpVFoOaYhM9Tt4d8oUdBkKTDTth1kFjYaOjjHjsHs4jR+KkUYTFyrMWtdrHombTsOagkVCWwPixCvIUMDcBF9cf3YNUAznQgp9qpvUS4BERXNtKWdOD0MP65DGhIhuAjtFY65fECj6ooaV67lEBz3wqLhINtIEGsVF5znu9ulDBJfm5k3S5p0C6unu+2LIcSgCEU/REIUIW9YlJ37fcDl9lgoCjDQC0nTj5bFYsmiECJ++MIyhT1R1pI35Xy6q1lZROasg1Vk7yrwnZ/G2sC2/eol1hrWLjcFASXB8DcEFlHzaq7tghTVFYp4vSOTuJdFMwMc5gcgDYuQ2ci3XTKgnbE4//xJOqWofuLjSGtAhD8hNkV4pC7YzCVFuEnRLwz8Se+ImxThCFu7t00RvquEdLprV2EjcVKEI2ylbTLwBgZShG8gNV0mAyMMpAhH2ErbZOANDKQI30BqukwGRhhIEY6wlbbJwBsYSBG+gdR0mQyMMJAiHGErbZOBNzCQInwDqekyGRhhIEU4wlbaJgNvYCBF+AZS02UyMMJAinCErbRNBt7AwJgI5b6Y8p49u0+k76/IzY/djuiT6/zzfP1LSLoTaPMP2MGtu2nIR1wZQxS6D9DuvhE/+L4Zl5yXt1c7Evo8yN1S+JCb7Qe+bhWlk2Qjze4wckiECbvxaoVKvD0tWkZX3X97uUJm9N9A48gP9lukNdz9bnpAhIib2wWwyk1fMJY7u8BGxi1g3k+4AVQWEBHa9zK9eP+eL1ux3BpsJoe5r96s8wYY8Nnnh1rZ6o0kyMeeW2DARvcC8NaAxBl7kqtF6SPZJwhU1JJFioRYR/hyWJJAt6euJ7L0Ig8fEPb4iR6ykXXcyuDJ8R3o56uk1cC8YK5fhLEGlmrREOUWtcAY/YRHbqHt13S6TptNBqZg2f3kYQOMUTr6HktyWgHjd59FmjZB7Y5PSdS+KUiAW6Vr/R2d9CfrHjsCLpbJdpJckGY3Qxsw37g2uxjVSIATi/msnCzW1CZqfgoy4eOqsJv24FxJXpJWw/OSuX4RhnABrv8GoA/RutTwdF/eU+9DyPhxu+jTPjcf2geK9YfNDpyP24wSLxBK+A4PZHq/4X8WEOzLRmnyydEaGATL8t1rY7Gpw0N4O0n2nhd+/MOBvGFlXCMBl58v8vycjW2InDb8+IijXJn9Kmk+xIvHwyJEoM2n3281U4m+qCvoCp4tb7yUC9xniCW68vQ5Ez8En3q0gbW9m0UdzGim7gEkgCoABn26Pdij5jGdXwASeq3u9LIejmP40t0dvxkiWXzV9VaUzxk3hmEn4idxSC6hQI31Ml34kWkmVrrCTTeHZQoN0prrX/HFsAg5aI0F7Gw5Ne8Ah43oDpt2jVfv+1WXxTlGzZZ6Hdty+to8bVYPVTDVSV1SGywYQ7oQTXxkTm0xhLOjPSYivVszp9NR6cVS8Dw/lAICiGKmR7DovlbHUcwuSAjfF2e/4bv4oeGn7Ki4aPmpsIeKVElbrnzpzE9F6B99hYB+q8BweTDUH8zH5mVV4A2q2Llf1MD0t4tGbfQNfb8FvtwygO1SEhppedTSHcpfg9Xy8j5sXFVg+QgvM18ZrZJQuXZtuar5KRTVWqrzC/uCECVNV7xr0C/CFYgAV7eQHqQVxQKt5Wt1l63gWT84eGBQANnz/HxtXAQCky0N1NzU+kbsKiHkK3oHhn12WwAKh9JPwyTzGWO1ECMcSjaRhNJDcd0uiyrv0Q9XpHdXBX+VDiwvgoS0SvgXT/WLMDz8F3cR9+uK3oYG9H5tI5uih+pWwKPELctZWeF8Yi/6nq6Y25RbyJM/Kk/sGw/YJ2Jhi5E/9nbg9z4bhC/zKkLyEbWqwNfsRCGRHjyCcEnmiAIbhKAyfUeN+BRkP3kfEKHsH3S8knM55LE4hHF/+74xbMB18VqUOdTD96u5wRHuZ+RM8JDIhcpg76C6iJuKCmAobO03KEuzELz4wUydzPAc5LjcP3bV/5KwTjKsdeS4C2/zGgBXScZmLWqlPFd5q05ayCUJOMMhXFECNrdehkGEYFy82FWdnLb9NmkC4KXvYyIcDX2/as1Gl3r7x3wd+i+BB+2/54n+u08f8wfjr6n76LrmfZS0UftG7EHSGl6eOyezldZb598pwu/5svbDg+68via3R3asGrS/X6sHio5AweQxn1+x44ySNmofMLsPg6S5lWG4bzJDKn/vwztF+PeyyEjJwI4ZSBHuuHgJ/RgMpAiPUcfMYscMpAh3XLyEfgwGUoTHqGNmsWMGUoQ7Ll5CPwYDKcJj1DGz2DEDKcIdFy+hH4OBFOEx6phZ7JiBFOGOi5fQj8FAivAYdcwsdsxAinDHxUvox2AgRXiMOmYWO2YgRbjj4iX0YzCQIjxGHTOLHTOQItxx8RL6MRhIER6jjpnFjhlIEe64eAn9GAykCI9Rx8xixwykCHdcvIR+DAZShMeoY2axYwZShDsuXkI/BgMpwmPUMbPYMQMpwh0XL6Efg4EU4THqmFnsmIEU4Y6Ll9CPwUCK8Bh1zCx2zECKcMfFS+jHYCBFeIw6ZhY7ZiBFuOPiJfRjMPAv43huAbvItTsAAAAASUVORK5CYII=;" vertex="1" parent="CUCLoSy6GeRblvd0nY9R-1">
          <mxGeometry x="30" y="20" width="300" height="74" as="geometry" />
        </mxCell>
      </root>
    </mxGraphModel>
  </diagram>
  <diagram name="4" id="hBOogI8wdDkIQg8vJyS9">
    <mxGraphModel dx="1434" dy="836" grid="1" gridSize="10" guides="1" tooltips="1" connect="1" arrows="1" fold="1" page="1" pageScale="1" pageWidth="827" pageHeight="1169" math="0" shadow="0">
      <root>
        <mxCell id="MogwVWK0Z1eZiLA6fxD0-0" />
        <mxCell id="MogwVWK0Z1eZiLA6fxD0-1" parent="MogwVWK0Z1eZiLA6fxD0-0" />
        <mxCell id="MogwVWK0Z1eZiLA6fxD0-2" value="" style="ellipse;whiteSpace=wrap;html=1;aspect=fixed;" vertex="1" parent="MogwVWK0Z1eZiLA6fxD0-1">
          <mxGeometry x="560" y="280" width="50" height="50" as="geometry" />
        </mxCell>
        <mxCell id="MogwVWK0Z1eZiLA6fxD0-3" value="" style="ellipse;whiteSpace=wrap;html=1;aspect=fixed;" vertex="1" parent="MogwVWK0Z1eZiLA6fxD0-1">
          <mxGeometry x="690" y="280" width="50" height="50" as="geometry" />
        </mxCell>
        <mxCell id="MogwVWK0Z1eZiLA6fxD0-4" value="" style="ellipse;whiteSpace=wrap;html=1;aspect=fixed;" vertex="1" parent="MogwVWK0Z1eZiLA6fxD0-1">
          <mxGeometry x="20" y="380" width="50" height="50" as="geometry" />
        </mxCell>
        <mxCell id="MogwVWK0Z1eZiLA6fxD0-5" value="" style="ellipse;whiteSpace=wrap;html=1;aspect=fixed;" vertex="1" parent="MogwVWK0Z1eZiLA6fxD0-1">
          <mxGeometry x="140" y="380" width="50" height="50" as="geometry" />
        </mxCell>
        <mxCell id="MogwVWK0Z1eZiLA6fxD0-6" value="" style="ellipse;whiteSpace=wrap;html=1;aspect=fixed;" vertex="1" parent="MogwVWK0Z1eZiLA6fxD0-1">
          <mxGeometry x="260" y="380" width="50" height="50" as="geometry" />
        </mxCell>
        <mxCell id="MogwVWK0Z1eZiLA6fxD0-7" value="" style="ellipse;whiteSpace=wrap;html=1;aspect=fixed;" vertex="1" parent="MogwVWK0Z1eZiLA6fxD0-1">
          <mxGeometry x="370" y="380" width="50" height="50" as="geometry" />
        </mxCell>
        <mxCell id="MogwVWK0Z1eZiLA6fxD0-8" value="" style="ellipse;whiteSpace=wrap;html=1;aspect=fixed;" vertex="1" parent="MogwVWK0Z1eZiLA6fxD0-1">
          <mxGeometry x="310" y="280" width="50" height="50" as="geometry" />
        </mxCell>
        <mxCell id="MogwVWK0Z1eZiLA6fxD0-9" value="9" style="ellipse;whiteSpace=wrap;html=1;aspect=fixed;direction=south;" vertex="1" parent="MogwVWK0Z1eZiLA6fxD0-1">
          <mxGeometry x="80" y="280" width="50" height="50" as="geometry" />
        </mxCell>
        <mxCell id="MogwVWK0Z1eZiLA6fxD0-10" value="5" style="ellipse;whiteSpace=wrap;html=1;aspect=fixed;" vertex="1" parent="MogwVWK0Z1eZiLA6fxD0-1">
          <mxGeometry x="620" y="170" width="50" height="50" as="geometry" />
        </mxCell>
        <mxCell id="MogwVWK0Z1eZiLA6fxD0-11" value="24" style="ellipse;whiteSpace=wrap;html=1;aspect=fixed;" vertex="1" parent="MogwVWK0Z1eZiLA6fxD0-1">
          <mxGeometry x="170" y="170" width="50" height="50" as="geometry" />
        </mxCell>
        <mxCell id="MogwVWK0Z1eZiLA6fxD0-12" value="32" style="ellipse;whiteSpace=wrap;html=1;aspect=fixed;" vertex="1" parent="MogwVWK0Z1eZiLA6fxD0-1">
          <mxGeometry x="370" y="80" width="50" height="50" as="geometry" />
        </mxCell>
        <mxCell id="MogwVWK0Z1eZiLA6fxD0-13" value="" style="ellipse;whiteSpace=wrap;html=1;aspect=fixed;" vertex="1" parent="MogwVWK0Z1eZiLA6fxD0-1">
          <mxGeometry x="520" y="380" width="50" height="50" as="geometry" />
        </mxCell>
        <mxCell id="MogwVWK0Z1eZiLA6fxD0-14" value="" style="endArrow=none;html=1;rounded=0;entryX=0;entryY=0.5;entryDx=0;entryDy=0;exitX=0.5;exitY=0;exitDx=0;exitDy=0;" edge="1" parent="MogwVWK0Z1eZiLA6fxD0-1" source="MogwVWK0Z1eZiLA6fxD0-11" target="MogwVWK0Z1eZiLA6fxD0-12">
          <mxGeometry width="50" height="50" relative="1" as="geometry">
            <mxPoint x="350" y="250" as="sourcePoint" />
            <mxPoint x="400" y="200" as="targetPoint" />
          </mxGeometry>
        </mxCell>
        <mxCell id="MogwVWK0Z1eZiLA6fxD0-15" value="" style="endArrow=none;html=1;rounded=0;entryX=0.5;entryY=0;entryDx=0;entryDy=0;exitX=1;exitY=0.5;exitDx=0;exitDy=0;" edge="1" parent="MogwVWK0Z1eZiLA6fxD0-1" source="MogwVWK0Z1eZiLA6fxD0-12" target="MogwVWK0Z1eZiLA6fxD0-10">
          <mxGeometry width="50" height="50" relative="1" as="geometry">
            <mxPoint x="234" y="195" as="sourcePoint" />
            <mxPoint x="405" y="140" as="targetPoint" />
          </mxGeometry>
        </mxCell>
        <mxCell id="MogwVWK0Z1eZiLA6fxD0-16" value="" style="endArrow=none;html=1;rounded=0;entryX=0;entryY=0.5;entryDx=0;entryDy=0;exitX=0;exitY=1;exitDx=0;exitDy=0;" edge="1" parent="MogwVWK0Z1eZiLA6fxD0-1" source="MogwVWK0Z1eZiLA6fxD0-11" target="MogwVWK0Z1eZiLA6fxD0-9">
          <mxGeometry width="50" height="50" relative="1" as="geometry">
            <mxPoint x="244" y="205" as="sourcePoint" />
            <mxPoint x="415" y="150" as="targetPoint" />
          </mxGeometry>
        </mxCell>
        <mxCell id="MogwVWK0Z1eZiLA6fxD0-17" value="" style="endArrow=none;html=1;rounded=0;entryX=0.5;entryY=0;entryDx=0;entryDy=0;exitX=1;exitY=1;exitDx=0;exitDy=0;" edge="1" parent="MogwVWK0Z1eZiLA6fxD0-1" source="MogwVWK0Z1eZiLA6fxD0-11" target="MogwVWK0Z1eZiLA6fxD0-8">
          <mxGeometry width="50" height="50" relative="1" as="geometry">
            <mxPoint x="254" y="215" as="sourcePoint" />
            <mxPoint x="425" y="160" as="targetPoint" />
          </mxGeometry>
        </mxCell>
        <mxCell id="MogwVWK0Z1eZiLA6fxD0-18" value="" style="endArrow=none;html=1;rounded=0;entryX=0.5;entryY=0;entryDx=0;entryDy=0;exitX=1;exitY=1;exitDx=0;exitDy=0;" edge="1" parent="MogwVWK0Z1eZiLA6fxD0-1" source="MogwVWK0Z1eZiLA6fxD0-8" target="MogwVWK0Z1eZiLA6fxD0-7">
          <mxGeometry width="50" height="50" relative="1" as="geometry">
            <mxPoint x="300" y="330" as="sourcePoint" />
            <mxPoint x="435" y="170" as="targetPoint" />
          </mxGeometry>
        </mxCell>
        <mxCell id="MogwVWK0Z1eZiLA6fxD0-19" value="" style="endArrow=none;html=1;rounded=0;entryX=0.5;entryY=0;entryDx=0;entryDy=0;exitX=0;exitY=1;exitDx=0;exitDy=0;" edge="1" parent="MogwVWK0Z1eZiLA6fxD0-1" source="MogwVWK0Z1eZiLA6fxD0-8" target="MogwVWK0Z1eZiLA6fxD0-6">
          <mxGeometry width="50" height="50" relative="1" as="geometry">
            <mxPoint x="274" y="235" as="sourcePoint" />
            <mxPoint x="445" y="180" as="targetPoint" />
          </mxGeometry>
        </mxCell>
        <mxCell id="MogwVWK0Z1eZiLA6fxD0-20" value="" style="endArrow=none;html=1;rounded=0;entryX=0.5;entryY=0;entryDx=0;entryDy=0;exitX=1;exitY=0;exitDx=0;exitDy=0;" edge="1" parent="MogwVWK0Z1eZiLA6fxD0-1" source="MogwVWK0Z1eZiLA6fxD0-9" target="MogwVWK0Z1eZiLA6fxD0-5">
          <mxGeometry width="50" height="50" relative="1" as="geometry">
            <mxPoint x="284" y="245" as="sourcePoint" />
            <mxPoint x="455" y="190" as="targetPoint" />
          </mxGeometry>
        </mxCell>
        <mxCell id="MogwVWK0Z1eZiLA6fxD0-21" value="" style="endArrow=none;html=1;rounded=0;entryX=0.5;entryY=0;entryDx=0;entryDy=0;exitX=1;exitY=1;exitDx=0;exitDy=0;" edge="1" parent="MogwVWK0Z1eZiLA6fxD0-1" source="MogwVWK0Z1eZiLA6fxD0-9" target="MogwVWK0Z1eZiLA6fxD0-4">
          <mxGeometry width="50" height="50" relative="1" as="geometry">
            <mxPoint x="294" y="255" as="sourcePoint" />
            <mxPoint x="465" y="200" as="targetPoint" />
          </mxGeometry>
        </mxCell>
        <mxCell id="MogwVWK0Z1eZiLA6fxD0-22" value="" style="endArrow=none;html=1;rounded=0;exitX=0;exitY=1;exitDx=0;exitDy=0;entryX=0.5;entryY=0;entryDx=0;entryDy=0;" edge="1" parent="MogwVWK0Z1eZiLA6fxD0-1" source="MogwVWK0Z1eZiLA6fxD0-10" target="MogwVWK0Z1eZiLA6fxD0-2">
          <mxGeometry width="50" height="50" relative="1" as="geometry">
            <mxPoint x="384" y="345" as="sourcePoint" />
            <mxPoint x="555" y="290" as="targetPoint" />
          </mxGeometry>
        </mxCell>
        <mxCell id="MogwVWK0Z1eZiLA6fxD0-23" value="" style="endArrow=none;html=1;rounded=0;entryX=1;entryY=1;entryDx=0;entryDy=0;exitX=0.5;exitY=0;exitDx=0;exitDy=0;" edge="1" parent="MogwVWK0Z1eZiLA6fxD0-1" source="MogwVWK0Z1eZiLA6fxD0-3" target="MogwVWK0Z1eZiLA6fxD0-10">
          <mxGeometry width="50" height="50" relative="1" as="geometry">
            <mxPoint x="394" y="355" as="sourcePoint" />
            <mxPoint x="565" y="300" as="targetPoint" />
          </mxGeometry>
        </mxCell>
        <mxCell id="MogwVWK0Z1eZiLA6fxD0-24" value="" style="endArrow=none;html=1;rounded=0;entryX=0;entryY=1;entryDx=0;entryDy=0;exitX=0.5;exitY=0;exitDx=0;exitDy=0;" edge="1" parent="MogwVWK0Z1eZiLA6fxD0-1" source="MogwVWK0Z1eZiLA6fxD0-13" target="MogwVWK0Z1eZiLA6fxD0-2">
          <mxGeometry width="50" height="50" relative="1" as="geometry">
            <mxPoint x="404" y="365" as="sourcePoint" />
            <mxPoint x="575" y="310" as="targetPoint" />
          </mxGeometry>
        </mxCell>
        <mxCell id="MogwVWK0Z1eZiLA6fxD0-25" value="" style="shape=image;verticalLabelPosition=bottom;labelBackgroundColor=default;verticalAlign=top;aspect=fixed;imageAspect=0;image=data:image/png,iVBORw0KGgoAAAANSUhEUgAAASwAAABKCAIAAACOxf7RAAAMa0lEQVR4Ae1d7Y3jOAy9nlJN0oqRMraAwJUMkEoGSB058JuUJVuaSTZnH/NjoygU+fjIJ9szY+8/z3wlA8nARxn456PRM3gykAw8U4TZBMnAhxlIEX64ABk+GUgRZg8kAx9mIEX44QJk+GQgRZg9kAx8mIEU4YcLkOGTgWERPm6Xk77O8+PFFD7m82n6erHT17m7T5r76TJ/k2PArK9fg9cQ6v9pnF/vr8vl4558rSHrIeqAk9e33+84+Z4v1hUDroZEiN3mMr9fT6fT9NK+8IUZSONvmapCQHSXG25BQL29hjqpBltD/K9EWGNide6/KMJVwCtfDoiwljZohnsRgmgDuUno0WnW42epYWpfUjKKHCfQ533Shef5EbcZ0L8eFoIMrHdd2mGjdYncp9Nl/hIVATZNoekH5HdG3RGAL3d0DNu5umKJsj7NnkKoWfUjJAGA6aUpP5+4A/J0uRVaCDLQjVIYZj7xW1cRx9jz2cVqwZ44qK/1Bf3zR04fpNZ8JLxfT9ONKrIsgXE1Xf2RUPI6ua4QLPy+DQl77DzPcGgRP4FJoRFc1Voa5hXzAKR+EYJTp7ciRVagGABZPKbkuXts3ikBm4xbAaLIwQQZ17YLGWIL0lfoX5Zg5pWuAldi48NhCLbHsZAYRG65ks3pcp1QFlAVEgPL0qKwJYlA/uUKeVHp2FOH9lrOigijAsm92Ie+kciOXpg6T5NoAD4qyZppN6uqf4BEUZprkROLVdaaCoSpSbsrHhjA8tBUPil2iw1gIWR9JyQ0k0I8n8CksEq7M3lGMyGtQEX2HoYfC54n73GUcr8IIZj2sXPGQy8qmIIEkEpArJmYeEp7cVOI0CI2/BRIGm4DeGcT5qH8Wr+vqXbJAfZ4InrH68DL/E0zl/nGx0MGrEpAhxARX5IOFoam6F/up3A24b/nMcFT57RKP+K3qk+MpYGorfUjlZLTUSEVZOpHx5jOMVTJiLrKCq12bm1g+/kEMLLcvgpVUC++o3DS3GqnkXHsE+9Ax7YWpSUYminQQgMWQ1TmByG9TIQGxbhYE6E7d/WVqxcGXLYyZ2q1n2Q/5nl6sxrz2R03fZi/X2WjpZKbMNQXR7ncHpDvSQ6J5/khSrCK0iKAbS/7Nsx7Blwitk5GdUnLkggYWs1ehQjpo57TegCabNwRonM0wpN5/unUQpN2Yq8VCWyPitApB4PLLlnOQ9z+dCKk2GNMhK8UbYLRzDpf5kch9YsQ5GFHal8pKog/jLBm1kVILnRvti6RTl0jyDKXYhO2Rf4UJbhyNmF+SIR4qJcev971I4PXymHvQkR8SWp0piDLwykGQMKXdZIupwO1fTQHNAIO9VskpEIvmm6KkGFssWogaVfFBFtrA9t/V4R9kERF3N1SRKqatVw0W85DCcKeVd0XDFK/CP2lFIOE3U+0VwbWI3ILsfnwm+j4kVB2RPJXwuAoofzOJsyPiVDEDz8g/jJRWcGg2alHVQnh7CsqiFVRPUEAwPSKp6O1PZFL6y/PcKntceQJcSowjS5VGWfVTlWaawPboyK0CxzEaEXUTiPssd84n05IcS2EIMLRi7a6ZdqaH4Q0IEJizUscYNmhHyiWtnDjmJhmYiSG0/22CLHp2T/4lOs3nzCM9eSH+cc37DYmFNuUN6rQFoMi1A5GpVFoOaYhM9Tt4d8oUdBkKTDTth1kFjYaOjjHjsHs4jR+KkUYTFyrMWtdrHombTsOagkVCWwPixCvIUMDcBF9cf3YNUAznQgp9qpvUS4BERXNtKWdOD0MP65DGhIhuAjtFY65fECj6ooaV67lEBz3wqLhINtIEGsVF5znu9ulDBJfm5k3S5p0C6unu+2LIcSgCEU/REIUIW9YlJ37fcDl9lgoCjDQC0nTj5bFYsmiECJ++MIyhT1R1pI35Xy6q1lZROasg1Vk7yrwnZ/G2sC2/eol1hrWLjcFASXB8DcEFlHzaq7tghTVFYp4vSOTuJdFMwMc5gcgDYuQ2ci3XTKgnbE4//xJOqWofuLjSGtAhD8hNkV4pC7YzCVFuEnRLwz8Se+ImxThCFu7t00RvquEdLprV2EjcVKEI2ylbTLwBgZShG8gNV0mAyMMpAhH2ErbZOANDKQI30BqukwGRhhIEY6wlbbJwBsYSBG+gdR0mQyMMJAiHGErbZOBNzCQInwDqekyGRhhIEU4wlbaJgNvYCBF+AZS02UyMMJAinCErbRNBt7AwJgI5b6Y8p49u0+k76/IzY/djuiT6/zzfP1LSLoTaPMP2MGtu2nIR1wZQxS6D9DuvhE/+L4Zl5yXt1c7Evo8yN1S+JCb7Qe+bhWlk2Qjze4wckiECbvxaoVKvD0tWkZX3X97uUJm9N9A48gP9lukNdz9bnpAhIib2wWwyk1fMJY7u8BGxi1g3k+4AVQWEBHa9zK9eP+eL1ux3BpsJoe5r96s8wYY8Nnnh1rZ6o0kyMeeW2DARvcC8NaAxBl7kqtF6SPZJwhU1JJFioRYR/hyWJJAt6euJ7L0Ig8fEPb4iR6ykXXcyuDJ8R3o56uk1cC8YK5fhLEGlmrREOUWtcAY/YRHbqHt13S6TptNBqZg2f3kYQOMUTr6HktyWgHjd59FmjZB7Y5PSdS+KUiAW6Vr/R2d9CfrHjsCLpbJdpJckGY3Qxsw37g2uxjVSIATi/msnCzW1CZqfgoy4eOqsJv24FxJXpJWw/OSuX4RhnABrv8GoA/RutTwdF/eU+9DyPhxu+jTPjcf2geK9YfNDpyP24wSLxBK+A4PZHq/4X8WEOzLRmnyydEaGATL8t1rY7Gpw0N4O0n2nhd+/MOBvGFlXCMBl58v8vycjW2InDb8+IijXJn9Kmk+xIvHwyJEoM2n3281U4m+qCvoCp4tb7yUC9xniCW68vQ5Ez8En3q0gbW9m0UdzGim7gEkgCoABn26Pdij5jGdXwASeq3u9LIejmP40t0dvxkiWXzV9VaUzxk3hmEn4idxSC6hQI31Ml34kWkmVrrCTTeHZQoN0prrX/HFsAg5aI0F7Gw5Ne8Ah43oDpt2jVfv+1WXxTlGzZZ6Hdty+to8bVYPVTDVSV1SGywYQ7oQTXxkTm0xhLOjPSYivVszp9NR6cVS8Dw/lAICiGKmR7DovlbHUcwuSAjfF2e/4bv4oeGn7Ki4aPmpsIeKVElbrnzpzE9F6B99hYB+q8BweTDUH8zH5mVV4A2q2Llf1MD0t4tGbfQNfb8FvtwygO1SEhppedTSHcpfg9Xy8j5sXFVg+QgvM18ZrZJQuXZtuar5KRTVWqrzC/uCECVNV7xr0C/CFYgAV7eQHqQVxQKt5Wt1l63gWT84eGBQANnz/HxtXAQCky0N1NzU+kbsKiHkK3oHhn12WwAKh9JPwyTzGWO1ECMcSjaRhNJDcd0uiyrv0Q9XpHdXBX+VDiwvgoS0SvgXT/WLMDz8F3cR9+uK3oYG9H5tI5uih+pWwKPELctZWeF8Yi/6nq6Y25RbyJM/Kk/sGw/YJ2Jhi5E/9nbg9z4bhC/zKkLyEbWqwNfsRCGRHjyCcEnmiAIbhKAyfUeN+BRkP3kfEKHsH3S8knM55LE4hHF/+74xbMB18VqUOdTD96u5wRHuZ+RM8JDIhcpg76C6iJuKCmAobO03KEuzELz4wUydzPAc5LjcP3bV/5KwTjKsdeS4C2/zGgBXScZmLWqlPFd5q05ayCUJOMMhXFECNrdehkGEYFy82FWdnLb9NmkC4KXvYyIcDX2/as1Gl3r7x3wd+i+BB+2/54n+u08f8wfjr6n76LrmfZS0UftG7EHSGl6eOyezldZb598pwu/5svbDg+68via3R3asGrS/X6sHio5AweQxn1+x44ySNmofMLsPg6S5lWG4bzJDKn/vwztF+PeyyEjJwI4ZSBHuuHgJ/RgMpAiPUcfMYscMpAh3XLyEfgwGUoTHqGNmsWMGUoQ7Ll5CPwYDKcJj1DGz2DEDKcIdFy+hH4OBFOEx6phZ7JiBFOGOi5fQj8FAivAYdcwsdsxAinDHxUvox2AgRXiMOmYWO2YgRbjj4iX0YzCQIjxGHTOLHTOQItxx8RL6MRhIER6jjpnFjhlIEe64eAn9GAykCI9Rx8xixwykCHdcvIR+DAZShMeoY2axYwZShDsuXkI/BgMpwmPUMbPYMQMpwh0XL6Efg4EU4THqmFnsmIEU4Y6Ll9CPwUCK8Bh1zCx2zECKcMfFS+jHYCBFeIw6ZhY7ZiBFuOPiJfRjMPAv43huAbvItTsAAAAASUVORK5CYII=;" vertex="1" parent="MogwVWK0Z1eZiLA6fxD0-1">
          <mxGeometry x="30" y="20" width="300" height="74" as="geometry" />
        </mxCell>
      </root>
    </mxGraphModel>
  </diagram>
  <diagram name="5" id="yzjeDrBesOWYIyG0JzLV">
    <mxGraphModel dx="1434" dy="836" grid="1" gridSize="10" guides="1" tooltips="1" connect="1" arrows="1" fold="1" page="1" pageScale="1" pageWidth="827" pageHeight="1169" math="0" shadow="0">
      <root>
        <mxCell id="88A9-4tndDZ65BJje9kq-0" />
        <mxCell id="88A9-4tndDZ65BJje9kq-1" parent="88A9-4tndDZ65BJje9kq-0" />
        <mxCell id="88A9-4tndDZ65BJje9kq-2" value="" style="ellipse;whiteSpace=wrap;html=1;aspect=fixed;" vertex="1" parent="88A9-4tndDZ65BJje9kq-1">
          <mxGeometry x="560" y="280" width="50" height="50" as="geometry" />
        </mxCell>
        <mxCell id="88A9-4tndDZ65BJje9kq-3" value="" style="ellipse;whiteSpace=wrap;html=1;aspect=fixed;" vertex="1" parent="88A9-4tndDZ65BJje9kq-1">
          <mxGeometry x="690" y="280" width="50" height="50" as="geometry" />
        </mxCell>
        <mxCell id="88A9-4tndDZ65BJje9kq-4" value="" style="ellipse;whiteSpace=wrap;html=1;aspect=fixed;" vertex="1" parent="88A9-4tndDZ65BJje9kq-1">
          <mxGeometry x="20" y="380" width="50" height="50" as="geometry" />
        </mxCell>
        <mxCell id="88A9-4tndDZ65BJje9kq-5" value="" style="ellipse;whiteSpace=wrap;html=1;aspect=fixed;" vertex="1" parent="88A9-4tndDZ65BJje9kq-1">
          <mxGeometry x="140" y="380" width="50" height="50" as="geometry" />
        </mxCell>
        <mxCell id="88A9-4tndDZ65BJje9kq-6" value="" style="ellipse;whiteSpace=wrap;html=1;aspect=fixed;" vertex="1" parent="88A9-4tndDZ65BJje9kq-1">
          <mxGeometry x="260" y="380" width="50" height="50" as="geometry" />
        </mxCell>
        <mxCell id="88A9-4tndDZ65BJje9kq-7" value="" style="ellipse;whiteSpace=wrap;html=1;aspect=fixed;" vertex="1" parent="88A9-4tndDZ65BJje9kq-1">
          <mxGeometry x="370" y="380" width="50" height="50" as="geometry" />
        </mxCell>
        <mxCell id="88A9-4tndDZ65BJje9kq-8" value="17" style="ellipse;whiteSpace=wrap;html=1;aspect=fixed;" vertex="1" parent="88A9-4tndDZ65BJje9kq-1">
          <mxGeometry x="310" y="280" width="50" height="50" as="geometry" />
        </mxCell>
        <mxCell id="88A9-4tndDZ65BJje9kq-9" value="9" style="ellipse;whiteSpace=wrap;html=1;aspect=fixed;direction=south;" vertex="1" parent="88A9-4tndDZ65BJje9kq-1">
          <mxGeometry x="80" y="280" width="50" height="50" as="geometry" />
        </mxCell>
        <mxCell id="88A9-4tndDZ65BJje9kq-10" value="5" style="ellipse;whiteSpace=wrap;html=1;aspect=fixed;" vertex="1" parent="88A9-4tndDZ65BJje9kq-1">
          <mxGeometry x="620" y="170" width="50" height="50" as="geometry" />
        </mxCell>
        <mxCell id="88A9-4tndDZ65BJje9kq-11" value="24" style="ellipse;whiteSpace=wrap;html=1;aspect=fixed;" vertex="1" parent="88A9-4tndDZ65BJje9kq-1">
          <mxGeometry x="170" y="170" width="50" height="50" as="geometry" />
        </mxCell>
        <mxCell id="88A9-4tndDZ65BJje9kq-12" value="32" style="ellipse;whiteSpace=wrap;html=1;aspect=fixed;" vertex="1" parent="88A9-4tndDZ65BJje9kq-1">
          <mxGeometry x="370" y="80" width="50" height="50" as="geometry" />
        </mxCell>
        <mxCell id="88A9-4tndDZ65BJje9kq-13" value="" style="ellipse;whiteSpace=wrap;html=1;aspect=fixed;" vertex="1" parent="88A9-4tndDZ65BJje9kq-1">
          <mxGeometry x="520" y="380" width="50" height="50" as="geometry" />
        </mxCell>
        <mxCell id="88A9-4tndDZ65BJje9kq-14" value="" style="endArrow=none;html=1;rounded=0;entryX=0;entryY=0.5;entryDx=0;entryDy=0;exitX=0.5;exitY=0;exitDx=0;exitDy=0;" edge="1" parent="88A9-4tndDZ65BJje9kq-1" source="88A9-4tndDZ65BJje9kq-11" target="88A9-4tndDZ65BJje9kq-12">
          <mxGeometry width="50" height="50" relative="1" as="geometry">
            <mxPoint x="350" y="250" as="sourcePoint" />
            <mxPoint x="400" y="200" as="targetPoint" />
          </mxGeometry>
        </mxCell>
        <mxCell id="88A9-4tndDZ65BJje9kq-15" value="" style="endArrow=none;html=1;rounded=0;entryX=0.5;entryY=0;entryDx=0;entryDy=0;exitX=1;exitY=0.5;exitDx=0;exitDy=0;" edge="1" parent="88A9-4tndDZ65BJje9kq-1" source="88A9-4tndDZ65BJje9kq-12" target="88A9-4tndDZ65BJje9kq-10">
          <mxGeometry width="50" height="50" relative="1" as="geometry">
            <mxPoint x="234" y="195" as="sourcePoint" />
            <mxPoint x="405" y="140" as="targetPoint" />
          </mxGeometry>
        </mxCell>
        <mxCell id="88A9-4tndDZ65BJje9kq-16" value="" style="endArrow=none;html=1;rounded=0;entryX=0;entryY=0.5;entryDx=0;entryDy=0;exitX=0;exitY=1;exitDx=0;exitDy=0;" edge="1" parent="88A9-4tndDZ65BJje9kq-1" source="88A9-4tndDZ65BJje9kq-11" target="88A9-4tndDZ65BJje9kq-9">
          <mxGeometry width="50" height="50" relative="1" as="geometry">
            <mxPoint x="244" y="205" as="sourcePoint" />
            <mxPoint x="415" y="150" as="targetPoint" />
          </mxGeometry>
        </mxCell>
        <mxCell id="88A9-4tndDZ65BJje9kq-17" value="" style="endArrow=none;html=1;rounded=0;entryX=0.5;entryY=0;entryDx=0;entryDy=0;exitX=1;exitY=1;exitDx=0;exitDy=0;" edge="1" parent="88A9-4tndDZ65BJje9kq-1" source="88A9-4tndDZ65BJje9kq-11" target="88A9-4tndDZ65BJje9kq-8">
          <mxGeometry width="50" height="50" relative="1" as="geometry">
            <mxPoint x="254" y="215" as="sourcePoint" />
            <mxPoint x="425" y="160" as="targetPoint" />
          </mxGeometry>
        </mxCell>
        <mxCell id="88A9-4tndDZ65BJje9kq-18" value="" style="endArrow=none;html=1;rounded=0;entryX=0.5;entryY=0;entryDx=0;entryDy=0;exitX=1;exitY=1;exitDx=0;exitDy=0;" edge="1" parent="88A9-4tndDZ65BJje9kq-1" source="88A9-4tndDZ65BJje9kq-8" target="88A9-4tndDZ65BJje9kq-7">
          <mxGeometry width="50" height="50" relative="1" as="geometry">
            <mxPoint x="300" y="330" as="sourcePoint" />
            <mxPoint x="435" y="170" as="targetPoint" />
          </mxGeometry>
        </mxCell>
        <mxCell id="88A9-4tndDZ65BJje9kq-19" value="" style="endArrow=none;html=1;rounded=0;entryX=0.5;entryY=0;entryDx=0;entryDy=0;exitX=0;exitY=1;exitDx=0;exitDy=0;" edge="1" parent="88A9-4tndDZ65BJje9kq-1" source="88A9-4tndDZ65BJje9kq-8" target="88A9-4tndDZ65BJje9kq-6">
          <mxGeometry width="50" height="50" relative="1" as="geometry">
            <mxPoint x="274" y="235" as="sourcePoint" />
            <mxPoint x="445" y="180" as="targetPoint" />
          </mxGeometry>
        </mxCell>
        <mxCell id="88A9-4tndDZ65BJje9kq-20" value="" style="endArrow=none;html=1;rounded=0;entryX=0.5;entryY=0;entryDx=0;entryDy=0;exitX=1;exitY=0;exitDx=0;exitDy=0;" edge="1" parent="88A9-4tndDZ65BJje9kq-1" source="88A9-4tndDZ65BJje9kq-9" target="88A9-4tndDZ65BJje9kq-5">
          <mxGeometry width="50" height="50" relative="1" as="geometry">
            <mxPoint x="284" y="245" as="sourcePoint" />
            <mxPoint x="455" y="190" as="targetPoint" />
          </mxGeometry>
        </mxCell>
        <mxCell id="88A9-4tndDZ65BJje9kq-21" value="" style="endArrow=none;html=1;rounded=0;entryX=0.5;entryY=0;entryDx=0;entryDy=0;exitX=1;exitY=1;exitDx=0;exitDy=0;" edge="1" parent="88A9-4tndDZ65BJje9kq-1" source="88A9-4tndDZ65BJje9kq-9" target="88A9-4tndDZ65BJje9kq-4">
          <mxGeometry width="50" height="50" relative="1" as="geometry">
            <mxPoint x="294" y="255" as="sourcePoint" />
            <mxPoint x="465" y="200" as="targetPoint" />
          </mxGeometry>
        </mxCell>
        <mxCell id="88A9-4tndDZ65BJje9kq-22" value="" style="endArrow=none;html=1;rounded=0;exitX=0;exitY=1;exitDx=0;exitDy=0;entryX=0.5;entryY=0;entryDx=0;entryDy=0;" edge="1" parent="88A9-4tndDZ65BJje9kq-1" source="88A9-4tndDZ65BJje9kq-10" target="88A9-4tndDZ65BJje9kq-2">
          <mxGeometry width="50" height="50" relative="1" as="geometry">
            <mxPoint x="384" y="345" as="sourcePoint" />
            <mxPoint x="555" y="290" as="targetPoint" />
          </mxGeometry>
        </mxCell>
        <mxCell id="88A9-4tndDZ65BJje9kq-23" value="" style="endArrow=none;html=1;rounded=0;entryX=1;entryY=1;entryDx=0;entryDy=0;exitX=0.5;exitY=0;exitDx=0;exitDy=0;" edge="1" parent="88A9-4tndDZ65BJje9kq-1" source="88A9-4tndDZ65BJje9kq-3" target="88A9-4tndDZ65BJje9kq-10">
          <mxGeometry width="50" height="50" relative="1" as="geometry">
            <mxPoint x="394" y="355" as="sourcePoint" />
            <mxPoint x="565" y="300" as="targetPoint" />
          </mxGeometry>
        </mxCell>
        <mxCell id="88A9-4tndDZ65BJje9kq-24" value="" style="endArrow=none;html=1;rounded=0;entryX=0;entryY=1;entryDx=0;entryDy=0;exitX=0.5;exitY=0;exitDx=0;exitDy=0;" edge="1" parent="88A9-4tndDZ65BJje9kq-1" source="88A9-4tndDZ65BJje9kq-13" target="88A9-4tndDZ65BJje9kq-2">
          <mxGeometry width="50" height="50" relative="1" as="geometry">
            <mxPoint x="404" y="365" as="sourcePoint" />
            <mxPoint x="575" y="310" as="targetPoint" />
          </mxGeometry>
        </mxCell>
        <mxCell id="88A9-4tndDZ65BJje9kq-25" value="" style="shape=image;verticalLabelPosition=bottom;labelBackgroundColor=default;verticalAlign=top;aspect=fixed;imageAspect=0;image=data:image/png,iVBORw0KGgoAAAANSUhEUgAAASwAAABKCAIAAACOxf7RAAAMa0lEQVR4Ae1d7Y3jOAy9nlJN0oqRMraAwJUMkEoGSB058JuUJVuaSTZnH/NjoygU+fjIJ9szY+8/z3wlA8nARxn456PRM3gykAw8U4TZBMnAhxlIEX64ABk+GUgRZg8kAx9mIEX44QJk+GQgRZg9kAx8mIEU4YcLkOGTgWERPm6Xk77O8+PFFD7m82n6erHT17m7T5r76TJ/k2PArK9fg9cQ6v9pnF/vr8vl4558rSHrIeqAk9e33+84+Z4v1hUDroZEiN3mMr9fT6fT9NK+8IUZSONvmapCQHSXG25BQL29hjqpBltD/K9EWGNide6/KMJVwCtfDoiwljZohnsRgmgDuUno0WnW42epYWpfUjKKHCfQ533Shef5EbcZ0L8eFoIMrHdd2mGjdYncp9Nl/hIVATZNoekH5HdG3RGAL3d0DNu5umKJsj7NnkKoWfUjJAGA6aUpP5+4A/J0uRVaCDLQjVIYZj7xW1cRx9jz2cVqwZ44qK/1Bf3zR04fpNZ8JLxfT9ONKrIsgXE1Xf2RUPI6ua4QLPy+DQl77DzPcGgRP4FJoRFc1Voa5hXzAKR+EYJTp7ciRVagGABZPKbkuXts3ikBm4xbAaLIwQQZ17YLGWIL0lfoX5Zg5pWuAldi48NhCLbHsZAYRG65ks3pcp1QFlAVEgPL0qKwJYlA/uUKeVHp2FOH9lrOigijAsm92Ie+kciOXpg6T5NoAD4qyZppN6uqf4BEUZprkROLVdaaCoSpSbsrHhjA8tBUPil2iw1gIWR9JyQ0k0I8n8CksEq7M3lGMyGtQEX2HoYfC54n73GUcr8IIZj2sXPGQy8qmIIEkEpArJmYeEp7cVOI0CI2/BRIGm4DeGcT5qH8Wr+vqXbJAfZ4InrH68DL/E0zl/nGx0MGrEpAhxARX5IOFoam6F/up3A24b/nMcFT57RKP+K3qk+MpYGorfUjlZLTUSEVZOpHx5jOMVTJiLrKCq12bm1g+/kEMLLcvgpVUC++o3DS3GqnkXHsE+9Ax7YWpSUYminQQgMWQ1TmByG9TIQGxbhYE6E7d/WVqxcGXLYyZ2q1n2Q/5nl6sxrz2R03fZi/X2WjpZKbMNQXR7ncHpDvSQ6J5/khSrCK0iKAbS/7Nsx7Blwitk5GdUnLkggYWs1ehQjpo57TegCabNwRonM0wpN5/unUQpN2Yq8VCWyPitApB4PLLlnOQ9z+dCKk2GNMhK8UbYLRzDpf5kch9YsQ5GFHal8pKog/jLBm1kVILnRvti6RTl0jyDKXYhO2Rf4UJbhyNmF+SIR4qJcev971I4PXymHvQkR8SWp0piDLwykGQMKXdZIupwO1fTQHNAIO9VskpEIvmm6KkGFssWogaVfFBFtrA9t/V4R9kERF3N1SRKqatVw0W85DCcKeVd0XDFK/CP2lFIOE3U+0VwbWI3ILsfnwm+j4kVB2RPJXwuAoofzOJsyPiVDEDz8g/jJRWcGg2alHVQnh7CsqiFVRPUEAwPSKp6O1PZFL6y/PcKntceQJcSowjS5VGWfVTlWaawPboyK0CxzEaEXUTiPssd84n05IcS2EIMLRi7a6ZdqaH4Q0IEJizUscYNmhHyiWtnDjmJhmYiSG0/22CLHp2T/4lOs3nzCM9eSH+cc37DYmFNuUN6rQFoMi1A5GpVFoOaYhM9Tt4d8oUdBkKTDTth1kFjYaOjjHjsHs4jR+KkUYTFyrMWtdrHombTsOagkVCWwPixCvIUMDcBF9cf3YNUAznQgp9qpvUS4BERXNtKWdOD0MP65DGhIhuAjtFY65fECj6ooaV67lEBz3wqLhINtIEGsVF5znu9ulDBJfm5k3S5p0C6unu+2LIcSgCEU/REIUIW9YlJ37fcDl9lgoCjDQC0nTj5bFYsmiECJ++MIyhT1R1pI35Xy6q1lZROasg1Vk7yrwnZ/G2sC2/eol1hrWLjcFASXB8DcEFlHzaq7tghTVFYp4vSOTuJdFMwMc5gcgDYuQ2ci3XTKgnbE4//xJOqWofuLjSGtAhD8hNkV4pC7YzCVFuEnRLwz8Se+ImxThCFu7t00RvquEdLprV2EjcVKEI2ylbTLwBgZShG8gNV0mAyMMpAhH2ErbZOANDKQI30BqukwGRhhIEY6wlbbJwBsYSBG+gdR0mQyMMJAiHGErbZOBNzCQInwDqekyGRhhIEU4wlbaJgNvYCBF+AZS02UyMMJAinCErbRNBt7AwJgI5b6Y8p49u0+k76/IzY/djuiT6/zzfP1LSLoTaPMP2MGtu2nIR1wZQxS6D9DuvhE/+L4Zl5yXt1c7Evo8yN1S+JCb7Qe+bhWlk2Qjze4wckiECbvxaoVKvD0tWkZX3X97uUJm9N9A48gP9lukNdz9bnpAhIib2wWwyk1fMJY7u8BGxi1g3k+4AVQWEBHa9zK9eP+eL1ux3BpsJoe5r96s8wYY8Nnnh1rZ6o0kyMeeW2DARvcC8NaAxBl7kqtF6SPZJwhU1JJFioRYR/hyWJJAt6euJ7L0Ig8fEPb4iR6ykXXcyuDJ8R3o56uk1cC8YK5fhLEGlmrREOUWtcAY/YRHbqHt13S6TptNBqZg2f3kYQOMUTr6HktyWgHjd59FmjZB7Y5PSdS+KUiAW6Vr/R2d9CfrHjsCLpbJdpJckGY3Qxsw37g2uxjVSIATi/msnCzW1CZqfgoy4eOqsJv24FxJXpJWw/OSuX4RhnABrv8GoA/RutTwdF/eU+9DyPhxu+jTPjcf2geK9YfNDpyP24wSLxBK+A4PZHq/4X8WEOzLRmnyydEaGATL8t1rY7Gpw0N4O0n2nhd+/MOBvGFlXCMBl58v8vycjW2InDb8+IijXJn9Kmk+xIvHwyJEoM2n3281U4m+qCvoCp4tb7yUC9xniCW68vQ5Ez8En3q0gbW9m0UdzGim7gEkgCoABn26Pdij5jGdXwASeq3u9LIejmP40t0dvxkiWXzV9VaUzxk3hmEn4idxSC6hQI31Ml34kWkmVrrCTTeHZQoN0prrX/HFsAg5aI0F7Gw5Ne8Ah43oDpt2jVfv+1WXxTlGzZZ6Hdty+to8bVYPVTDVSV1SGywYQ7oQTXxkTm0xhLOjPSYivVszp9NR6cVS8Dw/lAICiGKmR7DovlbHUcwuSAjfF2e/4bv4oeGn7Ki4aPmpsIeKVElbrnzpzE9F6B99hYB+q8BweTDUH8zH5mVV4A2q2Llf1MD0t4tGbfQNfb8FvtwygO1SEhppedTSHcpfg9Xy8j5sXFVg+QgvM18ZrZJQuXZtuar5KRTVWqrzC/uCECVNV7xr0C/CFYgAV7eQHqQVxQKt5Wt1l63gWT84eGBQANnz/HxtXAQCky0N1NzU+kbsKiHkK3oHhn12WwAKh9JPwyTzGWO1ECMcSjaRhNJDcd0uiyrv0Q9XpHdXBX+VDiwvgoS0SvgXT/WLMDz8F3cR9+uK3oYG9H5tI5uih+pWwKPELctZWeF8Yi/6nq6Y25RbyJM/Kk/sGw/YJ2Jhi5E/9nbg9z4bhC/zKkLyEbWqwNfsRCGRHjyCcEnmiAIbhKAyfUeN+BRkP3kfEKHsH3S8knM55LE4hHF/+74xbMB18VqUOdTD96u5wRHuZ+RM8JDIhcpg76C6iJuKCmAobO03KEuzELz4wUydzPAc5LjcP3bV/5KwTjKsdeS4C2/zGgBXScZmLWqlPFd5q05ayCUJOMMhXFECNrdehkGEYFy82FWdnLb9NmkC4KXvYyIcDX2/as1Gl3r7x3wd+i+BB+2/54n+u08f8wfjr6n76LrmfZS0UftG7EHSGl6eOyezldZb598pwu/5svbDg+68via3R3asGrS/X6sHio5AweQxn1+x44ySNmofMLsPg6S5lWG4bzJDKn/vwztF+PeyyEjJwI4ZSBHuuHgJ/RgMpAiPUcfMYscMpAh3XLyEfgwGUoTHqGNmsWMGUoQ7Ll5CPwYDKcJj1DGz2DEDKcIdFy+hH4OBFOEx6phZ7JiBFOGOi5fQj8FAivAYdcwsdsxAinDHxUvox2AgRXiMOmYWO2YgRbjj4iX0YzCQIjxGHTOLHTOQItxx8RL6MRhIER6jjpnFjhlIEe64eAn9GAykCI9Rx8xixwykCHdcvIR+DAZShMeoY2axYwZShDsuXkI/BgMpwmPUMbPYMQMpwh0XL6Efg4EU4THqmFnsmIEU4Y6Ll9CPwUCK8Bh1zCx2zECKcMfFS+jHYCBFeIw6ZhY7ZiBFuOPiJfRjMPAv43huAbvItTsAAAAASUVORK5CYII=;" vertex="1" parent="88A9-4tndDZ65BJje9kq-1">
          <mxGeometry x="30" y="20" width="300" height="74" as="geometry" />
        </mxCell>
      </root>
    </mxGraphModel>
  </diagram>
  <diagram name="6" id="uXDZk6sa9wAcHyxTG73E">
    <mxGraphModel dx="1434" dy="836" grid="1" gridSize="10" guides="1" tooltips="1" connect="1" arrows="1" fold="1" page="1" pageScale="1" pageWidth="827" pageHeight="1169" math="0" shadow="0">
      <root>
        <mxCell id="s0f4hLUYWyQm-5ARBzvA-0" />
        <mxCell id="s0f4hLUYWyQm-5ARBzvA-1" parent="s0f4hLUYWyQm-5ARBzvA-0" />
        <mxCell id="s0f4hLUYWyQm-5ARBzvA-2" value="5" style="ellipse;whiteSpace=wrap;html=1;aspect=fixed;fillColor=#1ba1e2;fontColor=#ffffff;strokeColor=#006EAF;" vertex="1" parent="s0f4hLUYWyQm-5ARBzvA-1">
          <mxGeometry x="560" y="280" width="50" height="50" as="geometry" />
        </mxCell>
        <mxCell id="s0f4hLUYWyQm-5ARBzvA-3" value="" style="ellipse;whiteSpace=wrap;html=1;aspect=fixed;" vertex="1" parent="s0f4hLUYWyQm-5ARBzvA-1">
          <mxGeometry x="690" y="280" width="50" height="50" as="geometry" />
        </mxCell>
        <mxCell id="s0f4hLUYWyQm-5ARBzvA-4" value="" style="ellipse;whiteSpace=wrap;html=1;aspect=fixed;" vertex="1" parent="s0f4hLUYWyQm-5ARBzvA-1">
          <mxGeometry x="20" y="380" width="50" height="50" as="geometry" />
        </mxCell>
        <mxCell id="s0f4hLUYWyQm-5ARBzvA-5" value="" style="ellipse;whiteSpace=wrap;html=1;aspect=fixed;" vertex="1" parent="s0f4hLUYWyQm-5ARBzvA-1">
          <mxGeometry x="140" y="380" width="50" height="50" as="geometry" />
        </mxCell>
        <mxCell id="s0f4hLUYWyQm-5ARBzvA-6" value="" style="ellipse;whiteSpace=wrap;html=1;aspect=fixed;" vertex="1" parent="s0f4hLUYWyQm-5ARBzvA-1">
          <mxGeometry x="260" y="380" width="50" height="50" as="geometry" />
        </mxCell>
        <mxCell id="s0f4hLUYWyQm-5ARBzvA-7" value="" style="ellipse;whiteSpace=wrap;html=1;aspect=fixed;" vertex="1" parent="s0f4hLUYWyQm-5ARBzvA-1">
          <mxGeometry x="370" y="380" width="50" height="50" as="geometry" />
        </mxCell>
        <mxCell id="s0f4hLUYWyQm-5ARBzvA-8" value="17" style="ellipse;whiteSpace=wrap;html=1;aspect=fixed;" vertex="1" parent="s0f4hLUYWyQm-5ARBzvA-1">
          <mxGeometry x="310" y="280" width="50" height="50" as="geometry" />
        </mxCell>
        <mxCell id="s0f4hLUYWyQm-5ARBzvA-9" value="9" style="ellipse;whiteSpace=wrap;html=1;aspect=fixed;direction=south;" vertex="1" parent="s0f4hLUYWyQm-5ARBzvA-1">
          <mxGeometry x="80" y="280" width="50" height="50" as="geometry" />
        </mxCell>
        <mxCell id="s0f4hLUYWyQm-5ARBzvA-10" value="19" style="ellipse;whiteSpace=wrap;html=1;aspect=fixed;fillColor=#1ba1e2;fontColor=#ffffff;strokeColor=#006EAF;" vertex="1" parent="s0f4hLUYWyQm-5ARBzvA-1">
          <mxGeometry x="620" y="170" width="50" height="50" as="geometry" />
        </mxCell>
        <mxCell id="s0f4hLUYWyQm-5ARBzvA-11" value="24" style="ellipse;whiteSpace=wrap;html=1;aspect=fixed;" vertex="1" parent="s0f4hLUYWyQm-5ARBzvA-1">
          <mxGeometry x="170" y="170" width="50" height="50" as="geometry" />
        </mxCell>
        <mxCell id="s0f4hLUYWyQm-5ARBzvA-12" value="32" style="ellipse;whiteSpace=wrap;html=1;aspect=fixed;" vertex="1" parent="s0f4hLUYWyQm-5ARBzvA-1">
          <mxGeometry x="370" y="80" width="50" height="50" as="geometry" />
        </mxCell>
        <mxCell id="s0f4hLUYWyQm-5ARBzvA-13" value="" style="ellipse;whiteSpace=wrap;html=1;aspect=fixed;" vertex="1" parent="s0f4hLUYWyQm-5ARBzvA-1">
          <mxGeometry x="520" y="380" width="50" height="50" as="geometry" />
        </mxCell>
        <mxCell id="s0f4hLUYWyQm-5ARBzvA-14" value="" style="endArrow=none;html=1;rounded=0;entryX=0;entryY=0.5;entryDx=0;entryDy=0;exitX=0.5;exitY=0;exitDx=0;exitDy=0;" edge="1" parent="s0f4hLUYWyQm-5ARBzvA-1" source="s0f4hLUYWyQm-5ARBzvA-11" target="s0f4hLUYWyQm-5ARBzvA-12">
          <mxGeometry width="50" height="50" relative="1" as="geometry">
            <mxPoint x="350" y="250" as="sourcePoint" />
            <mxPoint x="400" y="200" as="targetPoint" />
          </mxGeometry>
        </mxCell>
        <mxCell id="s0f4hLUYWyQm-5ARBzvA-15" value="" style="endArrow=none;html=1;rounded=0;entryX=0.5;entryY=0;entryDx=0;entryDy=0;exitX=1;exitY=0.5;exitDx=0;exitDy=0;" edge="1" parent="s0f4hLUYWyQm-5ARBzvA-1" source="s0f4hLUYWyQm-5ARBzvA-12" target="s0f4hLUYWyQm-5ARBzvA-10">
          <mxGeometry width="50" height="50" relative="1" as="geometry">
            <mxPoint x="234" y="195" as="sourcePoint" />
            <mxPoint x="405" y="140" as="targetPoint" />
          </mxGeometry>
        </mxCell>
        <mxCell id="s0f4hLUYWyQm-5ARBzvA-16" value="" style="endArrow=none;html=1;rounded=0;entryX=0;entryY=0.5;entryDx=0;entryDy=0;exitX=0;exitY=1;exitDx=0;exitDy=0;" edge="1" parent="s0f4hLUYWyQm-5ARBzvA-1" source="s0f4hLUYWyQm-5ARBzvA-11" target="s0f4hLUYWyQm-5ARBzvA-9">
          <mxGeometry width="50" height="50" relative="1" as="geometry">
            <mxPoint x="244" y="205" as="sourcePoint" />
            <mxPoint x="415" y="150" as="targetPoint" />
          </mxGeometry>
        </mxCell>
        <mxCell id="s0f4hLUYWyQm-5ARBzvA-17" value="" style="endArrow=none;html=1;rounded=0;entryX=0.5;entryY=0;entryDx=0;entryDy=0;exitX=1;exitY=1;exitDx=0;exitDy=0;" edge="1" parent="s0f4hLUYWyQm-5ARBzvA-1" source="s0f4hLUYWyQm-5ARBzvA-11" target="s0f4hLUYWyQm-5ARBzvA-8">
          <mxGeometry width="50" height="50" relative="1" as="geometry">
            <mxPoint x="254" y="215" as="sourcePoint" />
            <mxPoint x="425" y="160" as="targetPoint" />
          </mxGeometry>
        </mxCell>
        <mxCell id="s0f4hLUYWyQm-5ARBzvA-18" value="" style="endArrow=none;html=1;rounded=0;entryX=0.5;entryY=0;entryDx=0;entryDy=0;exitX=1;exitY=1;exitDx=0;exitDy=0;" edge="1" parent="s0f4hLUYWyQm-5ARBzvA-1" source="s0f4hLUYWyQm-5ARBzvA-8" target="s0f4hLUYWyQm-5ARBzvA-7">
          <mxGeometry width="50" height="50" relative="1" as="geometry">
            <mxPoint x="300" y="330" as="sourcePoint" />
            <mxPoint x="435" y="170" as="targetPoint" />
          </mxGeometry>
        </mxCell>
        <mxCell id="s0f4hLUYWyQm-5ARBzvA-19" value="" style="endArrow=none;html=1;rounded=0;entryX=0.5;entryY=0;entryDx=0;entryDy=0;exitX=0;exitY=1;exitDx=0;exitDy=0;" edge="1" parent="s0f4hLUYWyQm-5ARBzvA-1" source="s0f4hLUYWyQm-5ARBzvA-8" target="s0f4hLUYWyQm-5ARBzvA-6">
          <mxGeometry width="50" height="50" relative="1" as="geometry">
            <mxPoint x="274" y="235" as="sourcePoint" />
            <mxPoint x="445" y="180" as="targetPoint" />
          </mxGeometry>
        </mxCell>
        <mxCell id="s0f4hLUYWyQm-5ARBzvA-20" value="" style="endArrow=none;html=1;rounded=0;entryX=0.5;entryY=0;entryDx=0;entryDy=0;exitX=1;exitY=0;exitDx=0;exitDy=0;" edge="1" parent="s0f4hLUYWyQm-5ARBzvA-1" source="s0f4hLUYWyQm-5ARBzvA-9" target="s0f4hLUYWyQm-5ARBzvA-5">
          <mxGeometry width="50" height="50" relative="1" as="geometry">
            <mxPoint x="284" y="245" as="sourcePoint" />
            <mxPoint x="455" y="190" as="targetPoint" />
          </mxGeometry>
        </mxCell>
        <mxCell id="s0f4hLUYWyQm-5ARBzvA-21" value="" style="endArrow=none;html=1;rounded=0;entryX=0.5;entryY=0;entryDx=0;entryDy=0;exitX=1;exitY=1;exitDx=0;exitDy=0;" edge="1" parent="s0f4hLUYWyQm-5ARBzvA-1" source="s0f4hLUYWyQm-5ARBzvA-9" target="s0f4hLUYWyQm-5ARBzvA-4">
          <mxGeometry width="50" height="50" relative="1" as="geometry">
            <mxPoint x="294" y="255" as="sourcePoint" />
            <mxPoint x="465" y="200" as="targetPoint" />
          </mxGeometry>
        </mxCell>
        <mxCell id="s0f4hLUYWyQm-5ARBzvA-22" value="" style="endArrow=none;html=1;rounded=0;exitX=0;exitY=1;exitDx=0;exitDy=0;entryX=0.5;entryY=0;entryDx=0;entryDy=0;" edge="1" parent="s0f4hLUYWyQm-5ARBzvA-1" source="s0f4hLUYWyQm-5ARBzvA-10" target="s0f4hLUYWyQm-5ARBzvA-2">
          <mxGeometry width="50" height="50" relative="1" as="geometry">
            <mxPoint x="384" y="345" as="sourcePoint" />
            <mxPoint x="555" y="290" as="targetPoint" />
          </mxGeometry>
        </mxCell>
        <mxCell id="s0f4hLUYWyQm-5ARBzvA-23" value="" style="endArrow=none;html=1;rounded=0;entryX=1;entryY=1;entryDx=0;entryDy=0;exitX=0.5;exitY=0;exitDx=0;exitDy=0;" edge="1" parent="s0f4hLUYWyQm-5ARBzvA-1" source="s0f4hLUYWyQm-5ARBzvA-3" target="s0f4hLUYWyQm-5ARBzvA-10">
          <mxGeometry width="50" height="50" relative="1" as="geometry">
            <mxPoint x="394" y="355" as="sourcePoint" />
            <mxPoint x="565" y="300" as="targetPoint" />
          </mxGeometry>
        </mxCell>
        <mxCell id="s0f4hLUYWyQm-5ARBzvA-24" value="" style="endArrow=none;html=1;rounded=0;entryX=0;entryY=1;entryDx=0;entryDy=0;exitX=0.5;exitY=0;exitDx=0;exitDy=0;" edge="1" parent="s0f4hLUYWyQm-5ARBzvA-1" source="s0f4hLUYWyQm-5ARBzvA-13" target="s0f4hLUYWyQm-5ARBzvA-2">
          <mxGeometry width="50" height="50" relative="1" as="geometry">
            <mxPoint x="404" y="365" as="sourcePoint" />
            <mxPoint x="575" y="310" as="targetPoint" />
          </mxGeometry>
        </mxCell>
        <mxCell id="s0f4hLUYWyQm-5ARBzvA-25" value="" style="shape=image;verticalLabelPosition=bottom;labelBackgroundColor=default;verticalAlign=top;aspect=fixed;imageAspect=0;image=data:image/png,iVBORw0KGgoAAAANSUhEUgAAASwAAABKCAIAAACOxf7RAAAMa0lEQVR4Ae1d7Y3jOAy9nlJN0oqRMraAwJUMkEoGSB058JuUJVuaSTZnH/NjoygU+fjIJ9szY+8/z3wlA8nARxn456PRM3gykAw8U4TZBMnAhxlIEX64ABk+GUgRZg8kAx9mIEX44QJk+GQgRZg9kAx8mIEU4YcLkOGTgWERPm6Xk77O8+PFFD7m82n6erHT17m7T5r76TJ/k2PArK9fg9cQ6v9pnF/vr8vl4558rSHrIeqAk9e33+84+Z4v1hUDroZEiN3mMr9fT6fT9NK+8IUZSONvmapCQHSXG25BQL29hjqpBltD/K9EWGNide6/KMJVwCtfDoiwljZohnsRgmgDuUno0WnW42epYWpfUjKKHCfQ533Shef5EbcZ0L8eFoIMrHdd2mGjdYncp9Nl/hIVATZNoekH5HdG3RGAL3d0DNu5umKJsj7NnkKoWfUjJAGA6aUpP5+4A/J0uRVaCDLQjVIYZj7xW1cRx9jz2cVqwZ44qK/1Bf3zR04fpNZ8JLxfT9ONKrIsgXE1Xf2RUPI6ua4QLPy+DQl77DzPcGgRP4FJoRFc1Voa5hXzAKR+EYJTp7ciRVagGABZPKbkuXts3ikBm4xbAaLIwQQZ17YLGWIL0lfoX5Zg5pWuAldi48NhCLbHsZAYRG65ks3pcp1QFlAVEgPL0qKwJYlA/uUKeVHp2FOH9lrOigijAsm92Ie+kciOXpg6T5NoAD4qyZppN6uqf4BEUZprkROLVdaaCoSpSbsrHhjA8tBUPil2iw1gIWR9JyQ0k0I8n8CksEq7M3lGMyGtQEX2HoYfC54n73GUcr8IIZj2sXPGQy8qmIIEkEpArJmYeEp7cVOI0CI2/BRIGm4DeGcT5qH8Wr+vqXbJAfZ4InrH68DL/E0zl/nGx0MGrEpAhxARX5IOFoam6F/up3A24b/nMcFT57RKP+K3qk+MpYGorfUjlZLTUSEVZOpHx5jOMVTJiLrKCq12bm1g+/kEMLLcvgpVUC++o3DS3GqnkXHsE+9Ax7YWpSUYminQQgMWQ1TmByG9TIQGxbhYE6E7d/WVqxcGXLYyZ2q1n2Q/5nl6sxrz2R03fZi/X2WjpZKbMNQXR7ncHpDvSQ6J5/khSrCK0iKAbS/7Nsx7Blwitk5GdUnLkggYWs1ehQjpo57TegCabNwRonM0wpN5/unUQpN2Yq8VCWyPitApB4PLLlnOQ9z+dCKk2GNMhK8UbYLRzDpf5kch9YsQ5GFHal8pKog/jLBm1kVILnRvti6RTl0jyDKXYhO2Rf4UJbhyNmF+SIR4qJcev971I4PXymHvQkR8SWp0piDLwykGQMKXdZIupwO1fTQHNAIO9VskpEIvmm6KkGFssWogaVfFBFtrA9t/V4R9kERF3N1SRKqatVw0W85DCcKeVd0XDFK/CP2lFIOE3U+0VwbWI3ILsfnwm+j4kVB2RPJXwuAoofzOJsyPiVDEDz8g/jJRWcGg2alHVQnh7CsqiFVRPUEAwPSKp6O1PZFL6y/PcKntceQJcSowjS5VGWfVTlWaawPboyK0CxzEaEXUTiPssd84n05IcS2EIMLRi7a6ZdqaH4Q0IEJizUscYNmhHyiWtnDjmJhmYiSG0/22CLHp2T/4lOs3nzCM9eSH+cc37DYmFNuUN6rQFoMi1A5GpVFoOaYhM9Tt4d8oUdBkKTDTth1kFjYaOjjHjsHs4jR+KkUYTFyrMWtdrHombTsOagkVCWwPixCvIUMDcBF9cf3YNUAznQgp9qpvUS4BERXNtKWdOD0MP65DGhIhuAjtFY65fECj6ooaV67lEBz3wqLhINtIEGsVF5znu9ulDBJfm5k3S5p0C6unu+2LIcSgCEU/REIUIW9YlJ37fcDl9lgoCjDQC0nTj5bFYsmiECJ++MIyhT1R1pI35Xy6q1lZROasg1Vk7yrwnZ/G2sC2/eol1hrWLjcFASXB8DcEFlHzaq7tghTVFYp4vSOTuJdFMwMc5gcgDYuQ2ci3XTKgnbE4//xJOqWofuLjSGtAhD8hNkV4pC7YzCVFuEnRLwz8Se+ImxThCFu7t00RvquEdLprV2EjcVKEI2ylbTLwBgZShG8gNV0mAyMMpAhH2ErbZOANDKQI30BqukwGRhhIEY6wlbbJwBsYSBG+gdR0mQyMMJAiHGErbZOBNzCQInwDqekyGRhhIEU4wlbaJgNvYCBF+AZS02UyMMJAinCErbRNBt7AwJgI5b6Y8p49u0+k76/IzY/djuiT6/zzfP1LSLoTaPMP2MGtu2nIR1wZQxS6D9DuvhE/+L4Zl5yXt1c7Evo8yN1S+JCb7Qe+bhWlk2Qjze4wckiECbvxaoVKvD0tWkZX3X97uUJm9N9A48gP9lukNdz9bnpAhIib2wWwyk1fMJY7u8BGxi1g3k+4AVQWEBHa9zK9eP+eL1ux3BpsJoe5r96s8wYY8Nnnh1rZ6o0kyMeeW2DARvcC8NaAxBl7kqtF6SPZJwhU1JJFioRYR/hyWJJAt6euJ7L0Ig8fEPb4iR6ykXXcyuDJ8R3o56uk1cC8YK5fhLEGlmrREOUWtcAY/YRHbqHt13S6TptNBqZg2f3kYQOMUTr6HktyWgHjd59FmjZB7Y5PSdS+KUiAW6Vr/R2d9CfrHjsCLpbJdpJckGY3Qxsw37g2uxjVSIATi/msnCzW1CZqfgoy4eOqsJv24FxJXpJWw/OSuX4RhnABrv8GoA/RutTwdF/eU+9DyPhxu+jTPjcf2geK9YfNDpyP24wSLxBK+A4PZHq/4X8WEOzLRmnyydEaGATL8t1rY7Gpw0N4O0n2nhd+/MOBvGFlXCMBl58v8vycjW2InDb8+IijXJn9Kmk+xIvHwyJEoM2n3281U4m+qCvoCp4tb7yUC9xniCW68vQ5Ez8En3q0gbW9m0UdzGim7gEkgCoABn26Pdij5jGdXwASeq3u9LIejmP40t0dvxkiWXzV9VaUzxk3hmEn4idxSC6hQI31Ml34kWkmVrrCTTeHZQoN0prrX/HFsAg5aI0F7Gw5Ne8Ah43oDpt2jVfv+1WXxTlGzZZ6Hdty+to8bVYPVTDVSV1SGywYQ7oQTXxkTm0xhLOjPSYivVszp9NR6cVS8Dw/lAICiGKmR7DovlbHUcwuSAjfF2e/4bv4oeGn7Ki4aPmpsIeKVElbrnzpzE9F6B99hYB+q8BweTDUH8zH5mVV4A2q2Llf1MD0t4tGbfQNfb8FvtwygO1SEhppedTSHcpfg9Xy8j5sXFVg+QgvM18ZrZJQuXZtuar5KRTVWqrzC/uCECVNV7xr0C/CFYgAV7eQHqQVxQKt5Wt1l63gWT84eGBQANnz/HxtXAQCky0N1NzU+kbsKiHkK3oHhn12WwAKh9JPwyTzGWO1ECMcSjaRhNJDcd0uiyrv0Q9XpHdXBX+VDiwvgoS0SvgXT/WLMDz8F3cR9+uK3oYG9H5tI5uih+pWwKPELctZWeF8Yi/6nq6Y25RbyJM/Kk/sGw/YJ2Jhi5E/9nbg9z4bhC/zKkLyEbWqwNfsRCGRHjyCcEnmiAIbhKAyfUeN+BRkP3kfEKHsH3S8knM55LE4hHF/+74xbMB18VqUOdTD96u5wRHuZ+RM8JDIhcpg76C6iJuKCmAobO03KEuzELz4wUydzPAc5LjcP3bV/5KwTjKsdeS4C2/zGgBXScZmLWqlPFd5q05ayCUJOMMhXFECNrdehkGEYFy82FWdnLb9NmkC4KXvYyIcDX2/as1Gl3r7x3wd+i+BB+2/54n+u08f8wfjr6n76LrmfZS0UftG7EHSGl6eOyezldZb598pwu/5svbDg+68via3R3asGrS/X6sHio5AweQxn1+x44ySNmofMLsPg6S5lWG4bzJDKn/vwztF+PeyyEjJwI4ZSBHuuHgJ/RgMpAiPUcfMYscMpAh3XLyEfgwGUoTHqGNmsWMGUoQ7Ll5CPwYDKcJj1DGz2DEDKcIdFy+hH4OBFOEx6phZ7JiBFOGOi5fQj8FAivAYdcwsdsxAinDHxUvox2AgRXiMOmYWO2YgRbjj4iX0YzCQIjxGHTOLHTOQItxx8RL6MRhIER6jjpnFjhlIEe64eAn9GAykCI9Rx8xixwykCHdcvIR+DAZShMeoY2axYwZShDsuXkI/BgMpwmPUMbPYMQMpwh0XL6Efg4EU4THqmFnsmIEU4Y6Ll9CPwUCK8Bh1zCx2zECKcMfFS+jHYCBFeIw6ZhY7ZiBFuOPiJfRjMPAv43huAbvItTsAAAAASUVORK5CYII=;" vertex="1" parent="s0f4hLUYWyQm-5ARBzvA-1">
          <mxGeometry x="30" y="20" width="300" height="74" as="geometry" />
        </mxCell>
      </root>
    </mxGraphModel>
  </diagram>
  <diagram name="7" id="bZYsj285Pv1_UH77jCZx">
    <mxGraphModel dx="1434" dy="836" grid="1" gridSize="10" guides="1" tooltips="1" connect="1" arrows="1" fold="1" page="1" pageScale="1" pageWidth="827" pageHeight="1169" math="0" shadow="0">
      <root>
        <mxCell id="mKN5YQ6TxfVIz1vrNjTM-0" />
        <mxCell id="mKN5YQ6TxfVIz1vrNjTM-1" parent="mKN5YQ6TxfVIz1vrNjTM-0" />
        <mxCell id="mKN5YQ6TxfVIz1vrNjTM-2" value="5" style="ellipse;whiteSpace=wrap;html=1;aspect=fixed;" vertex="1" parent="mKN5YQ6TxfVIz1vrNjTM-1">
          <mxGeometry x="560" y="280" width="50" height="50" as="geometry" />
        </mxCell>
        <mxCell id="mKN5YQ6TxfVIz1vrNjTM-3" value="6" style="ellipse;whiteSpace=wrap;html=1;aspect=fixed;" vertex="1" parent="mKN5YQ6TxfVIz1vrNjTM-1">
          <mxGeometry x="690" y="280" width="50" height="50" as="geometry" />
        </mxCell>
        <mxCell id="mKN5YQ6TxfVIz1vrNjTM-4" value="" style="ellipse;whiteSpace=wrap;html=1;aspect=fixed;" vertex="1" parent="mKN5YQ6TxfVIz1vrNjTM-1">
          <mxGeometry x="20" y="380" width="50" height="50" as="geometry" />
        </mxCell>
        <mxCell id="mKN5YQ6TxfVIz1vrNjTM-5" value="" style="ellipse;whiteSpace=wrap;html=1;aspect=fixed;" vertex="1" parent="mKN5YQ6TxfVIz1vrNjTM-1">
          <mxGeometry x="140" y="380" width="50" height="50" as="geometry" />
        </mxCell>
        <mxCell id="mKN5YQ6TxfVIz1vrNjTM-6" value="" style="ellipse;whiteSpace=wrap;html=1;aspect=fixed;" vertex="1" parent="mKN5YQ6TxfVIz1vrNjTM-1">
          <mxGeometry x="260" y="380" width="50" height="50" as="geometry" />
        </mxCell>
        <mxCell id="mKN5YQ6TxfVIz1vrNjTM-7" value="" style="ellipse;whiteSpace=wrap;html=1;aspect=fixed;" vertex="1" parent="mKN5YQ6TxfVIz1vrNjTM-1">
          <mxGeometry x="370" y="380" width="50" height="50" as="geometry" />
        </mxCell>
        <mxCell id="mKN5YQ6TxfVIz1vrNjTM-8" value="17" style="ellipse;whiteSpace=wrap;html=1;aspect=fixed;" vertex="1" parent="mKN5YQ6TxfVIz1vrNjTM-1">
          <mxGeometry x="310" y="280" width="50" height="50" as="geometry" />
        </mxCell>
        <mxCell id="mKN5YQ6TxfVIz1vrNjTM-9" value="9" style="ellipse;whiteSpace=wrap;html=1;aspect=fixed;direction=south;" vertex="1" parent="mKN5YQ6TxfVIz1vrNjTM-1">
          <mxGeometry x="80" y="280" width="50" height="50" as="geometry" />
        </mxCell>
        <mxCell id="mKN5YQ6TxfVIz1vrNjTM-10" value="19" style="ellipse;whiteSpace=wrap;html=1;aspect=fixed;" vertex="1" parent="mKN5YQ6TxfVIz1vrNjTM-1">
          <mxGeometry x="620" y="170" width="50" height="50" as="geometry" />
        </mxCell>
        <mxCell id="mKN5YQ6TxfVIz1vrNjTM-11" value="24" style="ellipse;whiteSpace=wrap;html=1;aspect=fixed;" vertex="1" parent="mKN5YQ6TxfVIz1vrNjTM-1">
          <mxGeometry x="170" y="170" width="50" height="50" as="geometry" />
        </mxCell>
        <mxCell id="mKN5YQ6TxfVIz1vrNjTM-12" value="32" style="ellipse;whiteSpace=wrap;html=1;aspect=fixed;" vertex="1" parent="mKN5YQ6TxfVIz1vrNjTM-1">
          <mxGeometry x="370" y="80" width="50" height="50" as="geometry" />
        </mxCell>
        <mxCell id="mKN5YQ6TxfVIz1vrNjTM-13" value="" style="ellipse;whiteSpace=wrap;html=1;aspect=fixed;" vertex="1" parent="mKN5YQ6TxfVIz1vrNjTM-1">
          <mxGeometry x="520" y="380" width="50" height="50" as="geometry" />
        </mxCell>
        <mxCell id="mKN5YQ6TxfVIz1vrNjTM-14" value="" style="endArrow=none;html=1;rounded=0;entryX=0;entryY=0.5;entryDx=0;entryDy=0;exitX=0.5;exitY=0;exitDx=0;exitDy=0;" edge="1" parent="mKN5YQ6TxfVIz1vrNjTM-1" source="mKN5YQ6TxfVIz1vrNjTM-11" target="mKN5YQ6TxfVIz1vrNjTM-12">
          <mxGeometry width="50" height="50" relative="1" as="geometry">
            <mxPoint x="350" y="250" as="sourcePoint" />
            <mxPoint x="400" y="200" as="targetPoint" />
          </mxGeometry>
        </mxCell>
        <mxCell id="mKN5YQ6TxfVIz1vrNjTM-15" value="" style="endArrow=none;html=1;rounded=0;entryX=0.5;entryY=0;entryDx=0;entryDy=0;exitX=1;exitY=0.5;exitDx=0;exitDy=0;" edge="1" parent="mKN5YQ6TxfVIz1vrNjTM-1" source="mKN5YQ6TxfVIz1vrNjTM-12" target="mKN5YQ6TxfVIz1vrNjTM-10">
          <mxGeometry width="50" height="50" relative="1" as="geometry">
            <mxPoint x="234" y="195" as="sourcePoint" />
            <mxPoint x="405" y="140" as="targetPoint" />
          </mxGeometry>
        </mxCell>
        <mxCell id="mKN5YQ6TxfVIz1vrNjTM-16" value="" style="endArrow=none;html=1;rounded=0;entryX=0;entryY=0.5;entryDx=0;entryDy=0;exitX=0;exitY=1;exitDx=0;exitDy=0;" edge="1" parent="mKN5YQ6TxfVIz1vrNjTM-1" source="mKN5YQ6TxfVIz1vrNjTM-11" target="mKN5YQ6TxfVIz1vrNjTM-9">
          <mxGeometry width="50" height="50" relative="1" as="geometry">
            <mxPoint x="244" y="205" as="sourcePoint" />
            <mxPoint x="415" y="150" as="targetPoint" />
          </mxGeometry>
        </mxCell>
        <mxCell id="mKN5YQ6TxfVIz1vrNjTM-17" value="" style="endArrow=none;html=1;rounded=0;entryX=0.5;entryY=0;entryDx=0;entryDy=0;exitX=1;exitY=1;exitDx=0;exitDy=0;" edge="1" parent="mKN5YQ6TxfVIz1vrNjTM-1" source="mKN5YQ6TxfVIz1vrNjTM-11" target="mKN5YQ6TxfVIz1vrNjTM-8">
          <mxGeometry width="50" height="50" relative="1" as="geometry">
            <mxPoint x="254" y="215" as="sourcePoint" />
            <mxPoint x="425" y="160" as="targetPoint" />
          </mxGeometry>
        </mxCell>
        <mxCell id="mKN5YQ6TxfVIz1vrNjTM-18" value="" style="endArrow=none;html=1;rounded=0;entryX=0.5;entryY=0;entryDx=0;entryDy=0;exitX=1;exitY=1;exitDx=0;exitDy=0;" edge="1" parent="mKN5YQ6TxfVIz1vrNjTM-1" source="mKN5YQ6TxfVIz1vrNjTM-8" target="mKN5YQ6TxfVIz1vrNjTM-7">
          <mxGeometry width="50" height="50" relative="1" as="geometry">
            <mxPoint x="300" y="330" as="sourcePoint" />
            <mxPoint x="435" y="170" as="targetPoint" />
          </mxGeometry>
        </mxCell>
        <mxCell id="mKN5YQ6TxfVIz1vrNjTM-19" value="" style="endArrow=none;html=1;rounded=0;entryX=0.5;entryY=0;entryDx=0;entryDy=0;exitX=0;exitY=1;exitDx=0;exitDy=0;" edge="1" parent="mKN5YQ6TxfVIz1vrNjTM-1" source="mKN5YQ6TxfVIz1vrNjTM-8" target="mKN5YQ6TxfVIz1vrNjTM-6">
          <mxGeometry width="50" height="50" relative="1" as="geometry">
            <mxPoint x="274" y="235" as="sourcePoint" />
            <mxPoint x="445" y="180" as="targetPoint" />
          </mxGeometry>
        </mxCell>
        <mxCell id="mKN5YQ6TxfVIz1vrNjTM-20" value="" style="endArrow=none;html=1;rounded=0;entryX=0.5;entryY=0;entryDx=0;entryDy=0;exitX=1;exitY=0;exitDx=0;exitDy=0;" edge="1" parent="mKN5YQ6TxfVIz1vrNjTM-1" source="mKN5YQ6TxfVIz1vrNjTM-9" target="mKN5YQ6TxfVIz1vrNjTM-5">
          <mxGeometry width="50" height="50" relative="1" as="geometry">
            <mxPoint x="284" y="245" as="sourcePoint" />
            <mxPoint x="455" y="190" as="targetPoint" />
          </mxGeometry>
        </mxCell>
        <mxCell id="mKN5YQ6TxfVIz1vrNjTM-21" value="" style="endArrow=none;html=1;rounded=0;entryX=0.5;entryY=0;entryDx=0;entryDy=0;exitX=1;exitY=1;exitDx=0;exitDy=0;" edge="1" parent="mKN5YQ6TxfVIz1vrNjTM-1" source="mKN5YQ6TxfVIz1vrNjTM-9" target="mKN5YQ6TxfVIz1vrNjTM-4">
          <mxGeometry width="50" height="50" relative="1" as="geometry">
            <mxPoint x="294" y="255" as="sourcePoint" />
            <mxPoint x="465" y="200" as="targetPoint" />
          </mxGeometry>
        </mxCell>
        <mxCell id="mKN5YQ6TxfVIz1vrNjTM-22" value="" style="endArrow=none;html=1;rounded=0;exitX=0;exitY=1;exitDx=0;exitDy=0;entryX=0.5;entryY=0;entryDx=0;entryDy=0;" edge="1" parent="mKN5YQ6TxfVIz1vrNjTM-1" source="mKN5YQ6TxfVIz1vrNjTM-10" target="mKN5YQ6TxfVIz1vrNjTM-2">
          <mxGeometry width="50" height="50" relative="1" as="geometry">
            <mxPoint x="384" y="345" as="sourcePoint" />
            <mxPoint x="555" y="290" as="targetPoint" />
          </mxGeometry>
        </mxCell>
        <mxCell id="mKN5YQ6TxfVIz1vrNjTM-23" value="" style="endArrow=none;html=1;rounded=0;entryX=1;entryY=1;entryDx=0;entryDy=0;exitX=0.5;exitY=0;exitDx=0;exitDy=0;" edge="1" parent="mKN5YQ6TxfVIz1vrNjTM-1" source="mKN5YQ6TxfVIz1vrNjTM-3" target="mKN5YQ6TxfVIz1vrNjTM-10">
          <mxGeometry width="50" height="50" relative="1" as="geometry">
            <mxPoint x="394" y="355" as="sourcePoint" />
            <mxPoint x="565" y="300" as="targetPoint" />
          </mxGeometry>
        </mxCell>
        <mxCell id="mKN5YQ6TxfVIz1vrNjTM-24" value="" style="endArrow=none;html=1;rounded=0;entryX=0;entryY=1;entryDx=0;entryDy=0;exitX=0.5;exitY=0;exitDx=0;exitDy=0;" edge="1" parent="mKN5YQ6TxfVIz1vrNjTM-1" source="mKN5YQ6TxfVIz1vrNjTM-13" target="mKN5YQ6TxfVIz1vrNjTM-2">
          <mxGeometry width="50" height="50" relative="1" as="geometry">
            <mxPoint x="404" y="365" as="sourcePoint" />
            <mxPoint x="575" y="310" as="targetPoint" />
          </mxGeometry>
        </mxCell>
        <mxCell id="mKN5YQ6TxfVIz1vrNjTM-25" value="" style="shape=image;verticalLabelPosition=bottom;labelBackgroundColor=default;verticalAlign=top;aspect=fixed;imageAspect=0;image=data:image/png,iVBORw0KGgoAAAANSUhEUgAAASwAAABKCAIAAACOxf7RAAAMa0lEQVR4Ae1d7Y3jOAy9nlJN0oqRMraAwJUMkEoGSB058JuUJVuaSTZnH/NjoygU+fjIJ9szY+8/z3wlA8nARxn456PRM3gykAw8U4TZBMnAhxlIEX64ABk+GUgRZg8kAx9mIEX44QJk+GQgRZg9kAx8mIEU4YcLkOGTgWERPm6Xk77O8+PFFD7m82n6erHT17m7T5r76TJ/k2PArK9fg9cQ6v9pnF/vr8vl4558rSHrIeqAk9e33+84+Z4v1hUDroZEiN3mMr9fT6fT9NK+8IUZSONvmapCQHSXG25BQL29hjqpBltD/K9EWGNide6/KMJVwCtfDoiwljZohnsRgmgDuUno0WnW42epYWpfUjKKHCfQ533Shef5EbcZ0L8eFoIMrHdd2mGjdYncp9Nl/hIVATZNoekH5HdG3RGAL3d0DNu5umKJsj7NnkKoWfUjJAGA6aUpP5+4A/J0uRVaCDLQjVIYZj7xW1cRx9jz2cVqwZ44qK/1Bf3zR04fpNZ8JLxfT9ONKrIsgXE1Xf2RUPI6ua4QLPy+DQl77DzPcGgRP4FJoRFc1Voa5hXzAKR+EYJTp7ciRVagGABZPKbkuXts3ikBm4xbAaLIwQQZ17YLGWIL0lfoX5Zg5pWuAldi48NhCLbHsZAYRG65ks3pcp1QFlAVEgPL0qKwJYlA/uUKeVHp2FOH9lrOigijAsm92Ie+kciOXpg6T5NoAD4qyZppN6uqf4BEUZprkROLVdaaCoSpSbsrHhjA8tBUPil2iw1gIWR9JyQ0k0I8n8CksEq7M3lGMyGtQEX2HoYfC54n73GUcr8IIZj2sXPGQy8qmIIEkEpArJmYeEp7cVOI0CI2/BRIGm4DeGcT5qH8Wr+vqXbJAfZ4InrH68DL/E0zl/nGx0MGrEpAhxARX5IOFoam6F/up3A24b/nMcFT57RKP+K3qk+MpYGorfUjlZLTUSEVZOpHx5jOMVTJiLrKCq12bm1g+/kEMLLcvgpVUC++o3DS3GqnkXHsE+9Ax7YWpSUYminQQgMWQ1TmByG9TIQGxbhYE6E7d/WVqxcGXLYyZ2q1n2Q/5nl6sxrz2R03fZi/X2WjpZKbMNQXR7ncHpDvSQ6J5/khSrCK0iKAbS/7Nsx7Blwitk5GdUnLkggYWs1ehQjpo57TegCabNwRonM0wpN5/unUQpN2Yq8VCWyPitApB4PLLlnOQ9z+dCKk2GNMhK8UbYLRzDpf5kch9YsQ5GFHal8pKog/jLBm1kVILnRvti6RTl0jyDKXYhO2Rf4UJbhyNmF+SIR4qJcev971I4PXymHvQkR8SWp0piDLwykGQMKXdZIupwO1fTQHNAIO9VskpEIvmm6KkGFssWogaVfFBFtrA9t/V4R9kERF3N1SRKqatVw0W85DCcKeVd0XDFK/CP2lFIOE3U+0VwbWI3ILsfnwm+j4kVB2RPJXwuAoofzOJsyPiVDEDz8g/jJRWcGg2alHVQnh7CsqiFVRPUEAwPSKp6O1PZFL6y/PcKntceQJcSowjS5VGWfVTlWaawPboyK0CxzEaEXUTiPssd84n05IcS2EIMLRi7a6ZdqaH4Q0IEJizUscYNmhHyiWtnDjmJhmYiSG0/22CLHp2T/4lOs3nzCM9eSH+cc37DYmFNuUN6rQFoMi1A5GpVFoOaYhM9Tt4d8oUdBkKTDTth1kFjYaOjjHjsHs4jR+KkUYTFyrMWtdrHombTsOagkVCWwPixCvIUMDcBF9cf3YNUAznQgp9qpvUS4BERXNtKWdOD0MP65DGhIhuAjtFY65fECj6ooaV67lEBz3wqLhINtIEGsVF5znu9ulDBJfm5k3S5p0C6unu+2LIcSgCEU/REIUIW9YlJ37fcDl9lgoCjDQC0nTj5bFYsmiECJ++MIyhT1R1pI35Xy6q1lZROasg1Vk7yrwnZ/G2sC2/eol1hrWLjcFASXB8DcEFlHzaq7tghTVFYp4vSOTuJdFMwMc5gcgDYuQ2ci3XTKgnbE4//xJOqWofuLjSGtAhD8hNkV4pC7YzCVFuEnRLwz8Se+ImxThCFu7t00RvquEdLprV2EjcVKEI2ylbTLwBgZShG8gNV0mAyMMpAhH2ErbZOANDKQI30BqukwGRhhIEY6wlbbJwBsYSBG+gdR0mQyMMJAiHGErbZOBNzCQInwDqekyGRhhIEU4wlbaJgNvYCBF+AZS02UyMMJAinCErbRNBt7AwJgI5b6Y8p49u0+k76/IzY/djuiT6/zzfP1LSLoTaPMP2MGtu2nIR1wZQxS6D9DuvhE/+L4Zl5yXt1c7Evo8yN1S+JCb7Qe+bhWlk2Qjze4wckiECbvxaoVKvD0tWkZX3X97uUJm9N9A48gP9lukNdz9bnpAhIib2wWwyk1fMJY7u8BGxi1g3k+4AVQWEBHa9zK9eP+eL1ux3BpsJoe5r96s8wYY8Nnnh1rZ6o0kyMeeW2DARvcC8NaAxBl7kqtF6SPZJwhU1JJFioRYR/hyWJJAt6euJ7L0Ig8fEPb4iR6ykXXcyuDJ8R3o56uk1cC8YK5fhLEGlmrREOUWtcAY/YRHbqHt13S6TptNBqZg2f3kYQOMUTr6HktyWgHjd59FmjZB7Y5PSdS+KUiAW6Vr/R2d9CfrHjsCLpbJdpJckGY3Qxsw37g2uxjVSIATi/msnCzW1CZqfgoy4eOqsJv24FxJXpJWw/OSuX4RhnABrv8GoA/RutTwdF/eU+9DyPhxu+jTPjcf2geK9YfNDpyP24wSLxBK+A4PZHq/4X8WEOzLRmnyydEaGATL8t1rY7Gpw0N4O0n2nhd+/MOBvGFlXCMBl58v8vycjW2InDb8+IijXJn9Kmk+xIvHwyJEoM2n3281U4m+qCvoCp4tb7yUC9xniCW68vQ5Ez8En3q0gbW9m0UdzGim7gEkgCoABn26Pdij5jGdXwASeq3u9LIejmP40t0dvxkiWXzV9VaUzxk3hmEn4idxSC6hQI31Ml34kWkmVrrCTTeHZQoN0prrX/HFsAg5aI0F7Gw5Ne8Ah43oDpt2jVfv+1WXxTlGzZZ6Hdty+to8bVYPVTDVSV1SGywYQ7oQTXxkTm0xhLOjPSYivVszp9NR6cVS8Dw/lAICiGKmR7DovlbHUcwuSAjfF2e/4bv4oeGn7Ki4aPmpsIeKVElbrnzpzE9F6B99hYB+q8BweTDUH8zH5mVV4A2q2Llf1MD0t4tGbfQNfb8FvtwygO1SEhppedTSHcpfg9Xy8j5sXFVg+QgvM18ZrZJQuXZtuar5KRTVWqrzC/uCECVNV7xr0C/CFYgAV7eQHqQVxQKt5Wt1l63gWT84eGBQANnz/HxtXAQCky0N1NzU+kbsKiHkK3oHhn12WwAKh9JPwyTzGWO1ECMcSjaRhNJDcd0uiyrv0Q9XpHdXBX+VDiwvgoS0SvgXT/WLMDz8F3cR9+uK3oYG9H5tI5uih+pWwKPELctZWeF8Yi/6nq6Y25RbyJM/Kk/sGw/YJ2Jhi5E/9nbg9z4bhC/zKkLyEbWqwNfsRCGRHjyCcEnmiAIbhKAyfUeN+BRkP3kfEKHsH3S8knM55LE4hHF/+74xbMB18VqUOdTD96u5wRHuZ+RM8JDIhcpg76C6iJuKCmAobO03KEuzELz4wUydzPAc5LjcP3bV/5KwTjKsdeS4C2/zGgBXScZmLWqlPFd5q05ayCUJOMMhXFECNrdehkGEYFy82FWdnLb9NmkC4KXvYyIcDX2/as1Gl3r7x3wd+i+BB+2/54n+u08f8wfjr6n76LrmfZS0UftG7EHSGl6eOyezldZb598pwu/5svbDg+68via3R3asGrS/X6sHio5AweQxn1+x44ySNmofMLsPg6S5lWG4bzJDKn/vwztF+PeyyEjJwI4ZSBHuuHgJ/RgMpAiPUcfMYscMpAh3XLyEfgwGUoTHqGNmsWMGUoQ7Ll5CPwYDKcJj1DGz2DEDKcIdFy+hH4OBFOEx6phZ7JiBFOGOi5fQj8FAivAYdcwsdsxAinDHxUvox2AgRXiMOmYWO2YgRbjj4iX0YzCQIjxGHTOLHTOQItxx8RL6MRhIER6jjpnFjhlIEe64eAn9GAykCI9Rx8xixwykCHdcvIR+DAZShMeoY2axYwZShDsuXkI/BgMpwmPUMbPYMQMpwh0XL6Efg4EU4THqmFnsmIEU4Y6Ll9CPwUCK8Bh1zCx2zECKcMfFS+jHYCBFeIw6ZhY7ZiBFuOPiJfRjMPAv43huAbvItTsAAAAASUVORK5CYII=;" vertex="1" parent="mKN5YQ6TxfVIz1vrNjTM-1">
          <mxGeometry x="30" y="20" width="300" height="74" as="geometry" />
        </mxCell>
      </root>
    </mxGraphModel>
  </diagram>
  <diagram name="8" id="yD9kSAj3Og4XTu7q7M79">
    <mxGraphModel dx="1434" dy="836" grid="1" gridSize="10" guides="1" tooltips="1" connect="1" arrows="1" fold="1" page="1" pageScale="1" pageWidth="827" pageHeight="1169" math="0" shadow="0">
      <root>
        <mxCell id="bTw8mRHhyreHuk9Mb_UP-0" />
        <mxCell id="bTw8mRHhyreHuk9Mb_UP-1" parent="bTw8mRHhyreHuk9Mb_UP-0" />
        <mxCell id="bTw8mRHhyreHuk9Mb_UP-2" value="5" style="ellipse;whiteSpace=wrap;html=1;aspect=fixed;" vertex="1" parent="bTw8mRHhyreHuk9Mb_UP-1">
          <mxGeometry x="560" y="280" width="50" height="50" as="geometry" />
        </mxCell>
        <mxCell id="bTw8mRHhyreHuk9Mb_UP-3" value="6" style="ellipse;whiteSpace=wrap;html=1;aspect=fixed;" vertex="1" parent="bTw8mRHhyreHuk9Mb_UP-1">
          <mxGeometry x="690" y="280" width="50" height="50" as="geometry" />
        </mxCell>
        <mxCell id="bTw8mRHhyreHuk9Mb_UP-4" value="9" style="ellipse;whiteSpace=wrap;html=1;aspect=fixed;fillColor=#1ba1e2;fontColor=#ffffff;strokeColor=#006EAF;" vertex="1" parent="bTw8mRHhyreHuk9Mb_UP-1">
          <mxGeometry x="20" y="380" width="50" height="50" as="geometry" />
        </mxCell>
        <mxCell id="bTw8mRHhyreHuk9Mb_UP-5" value="" style="ellipse;whiteSpace=wrap;html=1;aspect=fixed;" vertex="1" parent="bTw8mRHhyreHuk9Mb_UP-1">
          <mxGeometry x="140" y="380" width="50" height="50" as="geometry" />
        </mxCell>
        <mxCell id="bTw8mRHhyreHuk9Mb_UP-6" value="" style="ellipse;whiteSpace=wrap;html=1;aspect=fixed;" vertex="1" parent="bTw8mRHhyreHuk9Mb_UP-1">
          <mxGeometry x="260" y="380" width="50" height="50" as="geometry" />
        </mxCell>
        <mxCell id="bTw8mRHhyreHuk9Mb_UP-7" value="" style="ellipse;whiteSpace=wrap;html=1;aspect=fixed;" vertex="1" parent="bTw8mRHhyreHuk9Mb_UP-1">
          <mxGeometry x="370" y="380" width="50" height="50" as="geometry" />
        </mxCell>
        <mxCell id="bTw8mRHhyreHuk9Mb_UP-8" value="17" style="ellipse;whiteSpace=wrap;html=1;aspect=fixed;" vertex="1" parent="bTw8mRHhyreHuk9Mb_UP-1">
          <mxGeometry x="310" y="280" width="50" height="50" as="geometry" />
        </mxCell>
        <mxCell id="bTw8mRHhyreHuk9Mb_UP-9" value="24" style="ellipse;whiteSpace=wrap;html=1;aspect=fixed;direction=south;fillColor=#1ba1e2;fontColor=#ffffff;strokeColor=#006EAF;" vertex="1" parent="bTw8mRHhyreHuk9Mb_UP-1">
          <mxGeometry x="80" y="280" width="50" height="50" as="geometry" />
        </mxCell>
        <mxCell id="bTw8mRHhyreHuk9Mb_UP-10" value="19" style="ellipse;whiteSpace=wrap;html=1;aspect=fixed;" vertex="1" parent="bTw8mRHhyreHuk9Mb_UP-1">
          <mxGeometry x="620" y="170" width="50" height="50" as="geometry" />
        </mxCell>
        <mxCell id="bTw8mRHhyreHuk9Mb_UP-11" value="32" style="ellipse;whiteSpace=wrap;html=1;aspect=fixed;fillColor=#1ba1e2;fontColor=#ffffff;strokeColor=#006EAF;" vertex="1" parent="bTw8mRHhyreHuk9Mb_UP-1">
          <mxGeometry x="170" y="170" width="50" height="50" as="geometry" />
        </mxCell>
        <mxCell id="bTw8mRHhyreHuk9Mb_UP-12" value="84" style="ellipse;whiteSpace=wrap;html=1;aspect=fixed;fillColor=#1ba1e2;fontColor=#ffffff;strokeColor=#006EAF;" vertex="1" parent="bTw8mRHhyreHuk9Mb_UP-1">
          <mxGeometry x="370" y="80" width="50" height="50" as="geometry" />
        </mxCell>
        <mxCell id="bTw8mRHhyreHuk9Mb_UP-13" value="" style="ellipse;whiteSpace=wrap;html=1;aspect=fixed;" vertex="1" parent="bTw8mRHhyreHuk9Mb_UP-1">
          <mxGeometry x="520" y="380" width="50" height="50" as="geometry" />
        </mxCell>
        <mxCell id="bTw8mRHhyreHuk9Mb_UP-14" value="" style="endArrow=none;html=1;rounded=0;entryX=0;entryY=0.5;entryDx=0;entryDy=0;exitX=0.5;exitY=0;exitDx=0;exitDy=0;" edge="1" parent="bTw8mRHhyreHuk9Mb_UP-1" source="bTw8mRHhyreHuk9Mb_UP-11" target="bTw8mRHhyreHuk9Mb_UP-12">
          <mxGeometry width="50" height="50" relative="1" as="geometry">
            <mxPoint x="350" y="250" as="sourcePoint" />
            <mxPoint x="400" y="200" as="targetPoint" />
          </mxGeometry>
        </mxCell>
        <mxCell id="bTw8mRHhyreHuk9Mb_UP-15" value="" style="endArrow=none;html=1;rounded=0;entryX=0.5;entryY=0;entryDx=0;entryDy=0;exitX=1;exitY=0.5;exitDx=0;exitDy=0;" edge="1" parent="bTw8mRHhyreHuk9Mb_UP-1" source="bTw8mRHhyreHuk9Mb_UP-12" target="bTw8mRHhyreHuk9Mb_UP-10">
          <mxGeometry width="50" height="50" relative="1" as="geometry">
            <mxPoint x="234" y="195" as="sourcePoint" />
            <mxPoint x="405" y="140" as="targetPoint" />
          </mxGeometry>
        </mxCell>
        <mxCell id="bTw8mRHhyreHuk9Mb_UP-16" value="" style="endArrow=none;html=1;rounded=0;entryX=0;entryY=0.5;entryDx=0;entryDy=0;exitX=0;exitY=1;exitDx=0;exitDy=0;" edge="1" parent="bTw8mRHhyreHuk9Mb_UP-1" source="bTw8mRHhyreHuk9Mb_UP-11" target="bTw8mRHhyreHuk9Mb_UP-9">
          <mxGeometry width="50" height="50" relative="1" as="geometry">
            <mxPoint x="244" y="205" as="sourcePoint" />
            <mxPoint x="415" y="150" as="targetPoint" />
          </mxGeometry>
        </mxCell>
        <mxCell id="bTw8mRHhyreHuk9Mb_UP-17" value="" style="endArrow=none;html=1;rounded=0;entryX=0.5;entryY=0;entryDx=0;entryDy=0;exitX=1;exitY=1;exitDx=0;exitDy=0;" edge="1" parent="bTw8mRHhyreHuk9Mb_UP-1" source="bTw8mRHhyreHuk9Mb_UP-11" target="bTw8mRHhyreHuk9Mb_UP-8">
          <mxGeometry width="50" height="50" relative="1" as="geometry">
            <mxPoint x="254" y="215" as="sourcePoint" />
            <mxPoint x="425" y="160" as="targetPoint" />
          </mxGeometry>
        </mxCell>
        <mxCell id="bTw8mRHhyreHuk9Mb_UP-18" value="" style="endArrow=none;html=1;rounded=0;entryX=0.5;entryY=0;entryDx=0;entryDy=0;exitX=1;exitY=1;exitDx=0;exitDy=0;" edge="1" parent="bTw8mRHhyreHuk9Mb_UP-1" source="bTw8mRHhyreHuk9Mb_UP-8" target="bTw8mRHhyreHuk9Mb_UP-7">
          <mxGeometry width="50" height="50" relative="1" as="geometry">
            <mxPoint x="300" y="330" as="sourcePoint" />
            <mxPoint x="435" y="170" as="targetPoint" />
          </mxGeometry>
        </mxCell>
        <mxCell id="bTw8mRHhyreHuk9Mb_UP-19" value="" style="endArrow=none;html=1;rounded=0;entryX=0.5;entryY=0;entryDx=0;entryDy=0;exitX=0;exitY=1;exitDx=0;exitDy=0;" edge="1" parent="bTw8mRHhyreHuk9Mb_UP-1" source="bTw8mRHhyreHuk9Mb_UP-8" target="bTw8mRHhyreHuk9Mb_UP-6">
          <mxGeometry width="50" height="50" relative="1" as="geometry">
            <mxPoint x="274" y="235" as="sourcePoint" />
            <mxPoint x="445" y="180" as="targetPoint" />
          </mxGeometry>
        </mxCell>
        <mxCell id="bTw8mRHhyreHuk9Mb_UP-20" value="" style="endArrow=none;html=1;rounded=0;entryX=0.5;entryY=0;entryDx=0;entryDy=0;exitX=1;exitY=0;exitDx=0;exitDy=0;" edge="1" parent="bTw8mRHhyreHuk9Mb_UP-1" source="bTw8mRHhyreHuk9Mb_UP-9" target="bTw8mRHhyreHuk9Mb_UP-5">
          <mxGeometry width="50" height="50" relative="1" as="geometry">
            <mxPoint x="284" y="245" as="sourcePoint" />
            <mxPoint x="455" y="190" as="targetPoint" />
          </mxGeometry>
        </mxCell>
        <mxCell id="bTw8mRHhyreHuk9Mb_UP-21" value="" style="endArrow=none;html=1;rounded=0;entryX=0.5;entryY=0;entryDx=0;entryDy=0;exitX=1;exitY=1;exitDx=0;exitDy=0;" edge="1" parent="bTw8mRHhyreHuk9Mb_UP-1" source="bTw8mRHhyreHuk9Mb_UP-9" target="bTw8mRHhyreHuk9Mb_UP-4">
          <mxGeometry width="50" height="50" relative="1" as="geometry">
            <mxPoint x="294" y="255" as="sourcePoint" />
            <mxPoint x="465" y="200" as="targetPoint" />
          </mxGeometry>
        </mxCell>
        <mxCell id="bTw8mRHhyreHuk9Mb_UP-22" value="" style="endArrow=none;html=1;rounded=0;exitX=0;exitY=1;exitDx=0;exitDy=0;entryX=0.5;entryY=0;entryDx=0;entryDy=0;" edge="1" parent="bTw8mRHhyreHuk9Mb_UP-1" source="bTw8mRHhyreHuk9Mb_UP-10" target="bTw8mRHhyreHuk9Mb_UP-2">
          <mxGeometry width="50" height="50" relative="1" as="geometry">
            <mxPoint x="384" y="345" as="sourcePoint" />
            <mxPoint x="555" y="290" as="targetPoint" />
          </mxGeometry>
        </mxCell>
        <mxCell id="bTw8mRHhyreHuk9Mb_UP-23" value="" style="endArrow=none;html=1;rounded=0;entryX=1;entryY=1;entryDx=0;entryDy=0;exitX=0.5;exitY=0;exitDx=0;exitDy=0;" edge="1" parent="bTw8mRHhyreHuk9Mb_UP-1" source="bTw8mRHhyreHuk9Mb_UP-3" target="bTw8mRHhyreHuk9Mb_UP-10">
          <mxGeometry width="50" height="50" relative="1" as="geometry">
            <mxPoint x="394" y="355" as="sourcePoint" />
            <mxPoint x="565" y="300" as="targetPoint" />
          </mxGeometry>
        </mxCell>
        <mxCell id="bTw8mRHhyreHuk9Mb_UP-24" value="" style="endArrow=none;html=1;rounded=0;entryX=0;entryY=1;entryDx=0;entryDy=0;exitX=0.5;exitY=0;exitDx=0;exitDy=0;" edge="1" parent="bTw8mRHhyreHuk9Mb_UP-1" source="bTw8mRHhyreHuk9Mb_UP-13" target="bTw8mRHhyreHuk9Mb_UP-2">
          <mxGeometry width="50" height="50" relative="1" as="geometry">
            <mxPoint x="404" y="365" as="sourcePoint" />
            <mxPoint x="575" y="310" as="targetPoint" />
          </mxGeometry>
        </mxCell>
        <mxCell id="bTw8mRHhyreHuk9Mb_UP-25" value="" style="shape=image;verticalLabelPosition=bottom;labelBackgroundColor=default;verticalAlign=top;aspect=fixed;imageAspect=0;image=data:image/png,iVBORw0KGgoAAAANSUhEUgAAASwAAABKCAIAAACOxf7RAAAMa0lEQVR4Ae1d7Y3jOAy9nlJN0oqRMraAwJUMkEoGSB058JuUJVuaSTZnH/NjoygU+fjIJ9szY+8/z3wlA8nARxn456PRM3gykAw8U4TZBMnAhxlIEX64ABk+GUgRZg8kAx9mIEX44QJk+GQgRZg9kAx8mIEU4YcLkOGTgWERPm6Xk77O8+PFFD7m82n6erHT17m7T5r76TJ/k2PArK9fg9cQ6v9pnF/vr8vl4558rSHrIeqAk9e33+84+Z4v1hUDroZEiN3mMr9fT6fT9NK+8IUZSONvmapCQHSXG25BQL29hjqpBltD/K9EWGNide6/KMJVwCtfDoiwljZohnsRgmgDuUno0WnW42epYWpfUjKKHCfQ533Shef5EbcZ0L8eFoIMrHdd2mGjdYncp9Nl/hIVATZNoekH5HdG3RGAL3d0DNu5umKJsj7NnkKoWfUjJAGA6aUpP5+4A/J0uRVaCDLQjVIYZj7xW1cRx9jz2cVqwZ44qK/1Bf3zR04fpNZ8JLxfT9ONKrIsgXE1Xf2RUPI6ua4QLPy+DQl77DzPcGgRP4FJoRFc1Voa5hXzAKR+EYJTp7ciRVagGABZPKbkuXts3ikBm4xbAaLIwQQZ17YLGWIL0lfoX5Zg5pWuAldi48NhCLbHsZAYRG65ks3pcp1QFlAVEgPL0qKwJYlA/uUKeVHp2FOH9lrOigijAsm92Ie+kciOXpg6T5NoAD4qyZppN6uqf4BEUZprkROLVdaaCoSpSbsrHhjA8tBUPil2iw1gIWR9JyQ0k0I8n8CksEq7M3lGMyGtQEX2HoYfC54n73GUcr8IIZj2sXPGQy8qmIIEkEpArJmYeEp7cVOI0CI2/BRIGm4DeGcT5qH8Wr+vqXbJAfZ4InrH68DL/E0zl/nGx0MGrEpAhxARX5IOFoam6F/up3A24b/nMcFT57RKP+K3qk+MpYGorfUjlZLTUSEVZOpHx5jOMVTJiLrKCq12bm1g+/kEMLLcvgpVUC++o3DS3GqnkXHsE+9Ax7YWpSUYminQQgMWQ1TmByG9TIQGxbhYE6E7d/WVqxcGXLYyZ2q1n2Q/5nl6sxrz2R03fZi/X2WjpZKbMNQXR7ncHpDvSQ6J5/khSrCK0iKAbS/7Nsx7Blwitk5GdUnLkggYWs1ehQjpo57TegCabNwRonM0wpN5/unUQpN2Yq8VCWyPitApB4PLLlnOQ9z+dCKk2GNMhK8UbYLRzDpf5kch9YsQ5GFHal8pKog/jLBm1kVILnRvti6RTl0jyDKXYhO2Rf4UJbhyNmF+SIR4qJcev971I4PXymHvQkR8SWp0piDLwykGQMKXdZIupwO1fTQHNAIO9VskpEIvmm6KkGFssWogaVfFBFtrA9t/V4R9kERF3N1SRKqatVw0W85DCcKeVd0XDFK/CP2lFIOE3U+0VwbWI3ILsfnwm+j4kVB2RPJXwuAoofzOJsyPiVDEDz8g/jJRWcGg2alHVQnh7CsqiFVRPUEAwPSKp6O1PZFL6y/PcKntceQJcSowjS5VGWfVTlWaawPboyK0CxzEaEXUTiPssd84n05IcS2EIMLRi7a6ZdqaH4Q0IEJizUscYNmhHyiWtnDjmJhmYiSG0/22CLHp2T/4lOs3nzCM9eSH+cc37DYmFNuUN6rQFoMi1A5GpVFoOaYhM9Tt4d8oUdBkKTDTth1kFjYaOjjHjsHs4jR+KkUYTFyrMWtdrHombTsOagkVCWwPixCvIUMDcBF9cf3YNUAznQgp9qpvUS4BERXNtKWdOD0MP65DGhIhuAjtFY65fECj6ooaV67lEBz3wqLhINtIEGsVF5znu9ulDBJfm5k3S5p0C6unu+2LIcSgCEU/REIUIW9YlJ37fcDl9lgoCjDQC0nTj5bFYsmiECJ++MIyhT1R1pI35Xy6q1lZROasg1Vk7yrwnZ/G2sC2/eol1hrWLjcFASXB8DcEFlHzaq7tghTVFYp4vSOTuJdFMwMc5gcgDYuQ2ci3XTKgnbE4//xJOqWofuLjSGtAhD8hNkV4pC7YzCVFuEnRLwz8Se+ImxThCFu7t00RvquEdLprV2EjcVKEI2ylbTLwBgZShG8gNV0mAyMMpAhH2ErbZOANDKQI30BqukwGRhhIEY6wlbbJwBsYSBG+gdR0mQyMMJAiHGErbZOBNzCQInwDqekyGRhhIEU4wlbaJgNvYCBF+AZS02UyMMJAinCErbRNBt7AwJgI5b6Y8p49u0+k76/IzY/djuiT6/zzfP1LSLoTaPMP2MGtu2nIR1wZQxS6D9DuvhE/+L4Zl5yXt1c7Evo8yN1S+JCb7Qe+bhWlk2Qjze4wckiECbvxaoVKvD0tWkZX3X97uUJm9N9A48gP9lukNdz9bnpAhIib2wWwyk1fMJY7u8BGxi1g3k+4AVQWEBHa9zK9eP+eL1ux3BpsJoe5r96s8wYY8Nnnh1rZ6o0kyMeeW2DARvcC8NaAxBl7kqtF6SPZJwhU1JJFioRYR/hyWJJAt6euJ7L0Ig8fEPb4iR6ykXXcyuDJ8R3o56uk1cC8YK5fhLEGlmrREOUWtcAY/YRHbqHt13S6TptNBqZg2f3kYQOMUTr6HktyWgHjd59FmjZB7Y5PSdS+KUiAW6Vr/R2d9CfrHjsCLpbJdpJckGY3Qxsw37g2uxjVSIATi/msnCzW1CZqfgoy4eOqsJv24FxJXpJWw/OSuX4RhnABrv8GoA/RutTwdF/eU+9DyPhxu+jTPjcf2geK9YfNDpyP24wSLxBK+A4PZHq/4X8WEOzLRmnyydEaGATL8t1rY7Gpw0N4O0n2nhd+/MOBvGFlXCMBl58v8vycjW2InDb8+IijXJn9Kmk+xIvHwyJEoM2n3281U4m+qCvoCp4tb7yUC9xniCW68vQ5Ez8En3q0gbW9m0UdzGim7gEkgCoABn26Pdij5jGdXwASeq3u9LIejmP40t0dvxkiWXzV9VaUzxk3hmEn4idxSC6hQI31Ml34kWkmVrrCTTeHZQoN0prrX/HFsAg5aI0F7Gw5Ne8Ah43oDpt2jVfv+1WXxTlGzZZ6Hdty+to8bVYPVTDVSV1SGywYQ7oQTXxkTm0xhLOjPSYivVszp9NR6cVS8Dw/lAICiGKmR7DovlbHUcwuSAjfF2e/4bv4oeGn7Ki4aPmpsIeKVElbrnzpzE9F6B99hYB+q8BweTDUH8zH5mVV4A2q2Llf1MD0t4tGbfQNfb8FvtwygO1SEhppedTSHcpfg9Xy8j5sXFVg+QgvM18ZrZJQuXZtuar5KRTVWqrzC/uCECVNV7xr0C/CFYgAV7eQHqQVxQKt5Wt1l63gWT84eGBQANnz/HxtXAQCky0N1NzU+kbsKiHkK3oHhn12WwAKh9JPwyTzGWO1ECMcSjaRhNJDcd0uiyrv0Q9XpHdXBX+VDiwvgoS0SvgXT/WLMDz8F3cR9+uK3oYG9H5tI5uih+pWwKPELctZWeF8Yi/6nq6Y25RbyJM/Kk/sGw/YJ2Jhi5E/9nbg9z4bhC/zKkLyEbWqwNfsRCGRHjyCcEnmiAIbhKAyfUeN+BRkP3kfEKHsH3S8knM55LE4hHF/+74xbMB18VqUOdTD96u5wRHuZ+RM8JDIhcpg76C6iJuKCmAobO03KEuzELz4wUydzPAc5LjcP3bV/5KwTjKsdeS4C2/zGgBXScZmLWqlPFd5q05ayCUJOMMhXFECNrdehkGEYFy82FWdnLb9NmkC4KXvYyIcDX2/as1Gl3r7x3wd+i+BB+2/54n+u08f8wfjr6n76LrmfZS0UftG7EHSGl6eOyezldZb598pwu/5svbDg+68via3R3asGrS/X6sHio5AweQxn1+x44ySNmofMLsPg6S5lWG4bzJDKn/vwztF+PeyyEjJwI4ZSBHuuHgJ/RgMpAiPUcfMYscMpAh3XLyEfgwGUoTHqGNmsWMGUoQ7Ll5CPwYDKcJj1DGz2DEDKcIdFy+hH4OBFOEx6phZ7JiBFOGOi5fQj8FAivAYdcwsdsxAinDHxUvox2AgRXiMOmYWO2YgRbjj4iX0YzCQIjxGHTOLHTOQItxx8RL6MRhIER6jjpnFjhlIEe64eAn9GAykCI9Rx8xixwykCHdcvIR+DAZShMeoY2axYwZShDsuXkI/BgMpwmPUMbPYMQMpwh0XL6Efg4EU4THqmFnsmIEU4Y6Ll9CPwUCK8Bh1zCx2zECKcMfFS+jHYCBFeIw6ZhY7ZiBFuOPiJfRjMPAv43huAbvItTsAAAAASUVORK5CYII=;" vertex="1" parent="bTw8mRHhyreHuk9Mb_UP-1">
          <mxGeometry x="30" y="20" width="300" height="74" as="geometry" />
        </mxCell>
      </root>
    </mxGraphModel>
  </diagram>
  <diagram name="9" id="rlCtPM7beV4I1zBaXjOf">
    <mxGraphModel dx="1434" dy="836" grid="1" gridSize="10" guides="1" tooltips="1" connect="1" arrows="1" fold="1" page="1" pageScale="1" pageWidth="827" pageHeight="1169" math="0" shadow="0">
      <root>
        <mxCell id="HmVguSUtb8nNx7TJjNla-0" />
        <mxCell id="HmVguSUtb8nNx7TJjNla-1" parent="HmVguSUtb8nNx7TJjNla-0" />
        <mxCell id="HmVguSUtb8nNx7TJjNla-2" value="5" style="ellipse;whiteSpace=wrap;html=1;aspect=fixed;" vertex="1" parent="HmVguSUtb8nNx7TJjNla-1">
          <mxGeometry x="560" y="280" width="50" height="50" as="geometry" />
        </mxCell>
        <mxCell id="HmVguSUtb8nNx7TJjNla-3" value="6" style="ellipse;whiteSpace=wrap;html=1;aspect=fixed;" vertex="1" parent="HmVguSUtb8nNx7TJjNla-1">
          <mxGeometry x="690" y="280" width="50" height="50" as="geometry" />
        </mxCell>
        <mxCell id="HmVguSUtb8nNx7TJjNla-4" value="9" style="ellipse;whiteSpace=wrap;html=1;aspect=fixed;" vertex="1" parent="HmVguSUtb8nNx7TJjNla-1">
          <mxGeometry x="20" y="380" width="50" height="50" as="geometry" />
        </mxCell>
        <mxCell id="HmVguSUtb8nNx7TJjNla-5" value="24" style="ellipse;whiteSpace=wrap;html=1;aspect=fixed;fillColor=#1ba1e2;fontColor=#ffffff;strokeColor=#006EAF;" vertex="1" parent="HmVguSUtb8nNx7TJjNla-1">
          <mxGeometry x="140" y="380" width="50" height="50" as="geometry" />
        </mxCell>
        <mxCell id="HmVguSUtb8nNx7TJjNla-6" value="" style="ellipse;whiteSpace=wrap;html=1;aspect=fixed;" vertex="1" parent="HmVguSUtb8nNx7TJjNla-1">
          <mxGeometry x="260" y="380" width="50" height="50" as="geometry" />
        </mxCell>
        <mxCell id="HmVguSUtb8nNx7TJjNla-7" value="" style="ellipse;whiteSpace=wrap;html=1;aspect=fixed;" vertex="1" parent="HmVguSUtb8nNx7TJjNla-1">
          <mxGeometry x="370" y="380" width="50" height="50" as="geometry" />
        </mxCell>
        <mxCell id="HmVguSUtb8nNx7TJjNla-8" value="17" style="ellipse;whiteSpace=wrap;html=1;aspect=fixed;" vertex="1" parent="HmVguSUtb8nNx7TJjNla-1">
          <mxGeometry x="310" y="280" width="50" height="50" as="geometry" />
        </mxCell>
        <mxCell id="HmVguSUtb8nNx7TJjNla-9" value="27" style="ellipse;whiteSpace=wrap;html=1;aspect=fixed;direction=south;fillColor=#1ba1e2;fontColor=#ffffff;strokeColor=#006EAF;" vertex="1" parent="HmVguSUtb8nNx7TJjNla-1">
          <mxGeometry x="80" y="280" width="50" height="50" as="geometry" />
        </mxCell>
        <mxCell id="HmVguSUtb8nNx7TJjNla-10" value="19" style="ellipse;whiteSpace=wrap;html=1;aspect=fixed;" vertex="1" parent="HmVguSUtb8nNx7TJjNla-1">
          <mxGeometry x="620" y="170" width="50" height="50" as="geometry" />
        </mxCell>
        <mxCell id="HmVguSUtb8nNx7TJjNla-11" value="32" style="ellipse;whiteSpace=wrap;html=1;aspect=fixed;" vertex="1" parent="HmVguSUtb8nNx7TJjNla-1">
          <mxGeometry x="170" y="170" width="50" height="50" as="geometry" />
        </mxCell>
        <mxCell id="HmVguSUtb8nNx7TJjNla-12" value="84" style="ellipse;whiteSpace=wrap;html=1;aspect=fixed;" vertex="1" parent="HmVguSUtb8nNx7TJjNla-1">
          <mxGeometry x="370" y="80" width="50" height="50" as="geometry" />
        </mxCell>
        <mxCell id="HmVguSUtb8nNx7TJjNla-13" value="" style="ellipse;whiteSpace=wrap;html=1;aspect=fixed;" vertex="1" parent="HmVguSUtb8nNx7TJjNla-1">
          <mxGeometry x="520" y="380" width="50" height="50" as="geometry" />
        </mxCell>
        <mxCell id="HmVguSUtb8nNx7TJjNla-14" value="" style="endArrow=none;html=1;rounded=0;entryX=0;entryY=0.5;entryDx=0;entryDy=0;exitX=0.5;exitY=0;exitDx=0;exitDy=0;" edge="1" parent="HmVguSUtb8nNx7TJjNla-1" source="HmVguSUtb8nNx7TJjNla-11" target="HmVguSUtb8nNx7TJjNla-12">
          <mxGeometry width="50" height="50" relative="1" as="geometry">
            <mxPoint x="350" y="250" as="sourcePoint" />
            <mxPoint x="400" y="200" as="targetPoint" />
          </mxGeometry>
        </mxCell>
        <mxCell id="HmVguSUtb8nNx7TJjNla-15" value="" style="endArrow=none;html=1;rounded=0;entryX=0.5;entryY=0;entryDx=0;entryDy=0;exitX=1;exitY=0.5;exitDx=0;exitDy=0;" edge="1" parent="HmVguSUtb8nNx7TJjNla-1" source="HmVguSUtb8nNx7TJjNla-12" target="HmVguSUtb8nNx7TJjNla-10">
          <mxGeometry width="50" height="50" relative="1" as="geometry">
            <mxPoint x="234" y="195" as="sourcePoint" />
            <mxPoint x="405" y="140" as="targetPoint" />
          </mxGeometry>
        </mxCell>
        <mxCell id="HmVguSUtb8nNx7TJjNla-16" value="" style="endArrow=none;html=1;rounded=0;entryX=0;entryY=0.5;entryDx=0;entryDy=0;exitX=0;exitY=1;exitDx=0;exitDy=0;" edge="1" parent="HmVguSUtb8nNx7TJjNla-1" source="HmVguSUtb8nNx7TJjNla-11" target="HmVguSUtb8nNx7TJjNla-9">
          <mxGeometry width="50" height="50" relative="1" as="geometry">
            <mxPoint x="244" y="205" as="sourcePoint" />
            <mxPoint x="415" y="150" as="targetPoint" />
          </mxGeometry>
        </mxCell>
        <mxCell id="HmVguSUtb8nNx7TJjNla-17" value="" style="endArrow=none;html=1;rounded=0;entryX=0.5;entryY=0;entryDx=0;entryDy=0;exitX=1;exitY=1;exitDx=0;exitDy=0;" edge="1" parent="HmVguSUtb8nNx7TJjNla-1" source="HmVguSUtb8nNx7TJjNla-11" target="HmVguSUtb8nNx7TJjNla-8">
          <mxGeometry width="50" height="50" relative="1" as="geometry">
            <mxPoint x="254" y="215" as="sourcePoint" />
            <mxPoint x="425" y="160" as="targetPoint" />
          </mxGeometry>
        </mxCell>
        <mxCell id="HmVguSUtb8nNx7TJjNla-18" value="" style="endArrow=none;html=1;rounded=0;entryX=0.5;entryY=0;entryDx=0;entryDy=0;exitX=1;exitY=1;exitDx=0;exitDy=0;" edge="1" parent="HmVguSUtb8nNx7TJjNla-1" source="HmVguSUtb8nNx7TJjNla-8" target="HmVguSUtb8nNx7TJjNla-7">
          <mxGeometry width="50" height="50" relative="1" as="geometry">
            <mxPoint x="300" y="330" as="sourcePoint" />
            <mxPoint x="435" y="170" as="targetPoint" />
          </mxGeometry>
        </mxCell>
        <mxCell id="HmVguSUtb8nNx7TJjNla-19" value="" style="endArrow=none;html=1;rounded=0;entryX=0.5;entryY=0;entryDx=0;entryDy=0;exitX=0;exitY=1;exitDx=0;exitDy=0;" edge="1" parent="HmVguSUtb8nNx7TJjNla-1" source="HmVguSUtb8nNx7TJjNla-8" target="HmVguSUtb8nNx7TJjNla-6">
          <mxGeometry width="50" height="50" relative="1" as="geometry">
            <mxPoint x="274" y="235" as="sourcePoint" />
            <mxPoint x="445" y="180" as="targetPoint" />
          </mxGeometry>
        </mxCell>
        <mxCell id="HmVguSUtb8nNx7TJjNla-20" value="" style="endArrow=none;html=1;rounded=0;entryX=0.5;entryY=0;entryDx=0;entryDy=0;exitX=1;exitY=0;exitDx=0;exitDy=0;" edge="1" parent="HmVguSUtb8nNx7TJjNla-1" source="HmVguSUtb8nNx7TJjNla-9" target="HmVguSUtb8nNx7TJjNla-5">
          <mxGeometry width="50" height="50" relative="1" as="geometry">
            <mxPoint x="284" y="245" as="sourcePoint" />
            <mxPoint x="455" y="190" as="targetPoint" />
          </mxGeometry>
        </mxCell>
        <mxCell id="HmVguSUtb8nNx7TJjNla-21" value="" style="endArrow=none;html=1;rounded=0;entryX=0.5;entryY=0;entryDx=0;entryDy=0;exitX=1;exitY=1;exitDx=0;exitDy=0;" edge="1" parent="HmVguSUtb8nNx7TJjNla-1" source="HmVguSUtb8nNx7TJjNla-9" target="HmVguSUtb8nNx7TJjNla-4">
          <mxGeometry width="50" height="50" relative="1" as="geometry">
            <mxPoint x="294" y="255" as="sourcePoint" />
            <mxPoint x="465" y="200" as="targetPoint" />
          </mxGeometry>
        </mxCell>
        <mxCell id="HmVguSUtb8nNx7TJjNla-22" value="" style="endArrow=none;html=1;rounded=0;exitX=0;exitY=1;exitDx=0;exitDy=0;entryX=0.5;entryY=0;entryDx=0;entryDy=0;" edge="1" parent="HmVguSUtb8nNx7TJjNla-1" source="HmVguSUtb8nNx7TJjNla-10" target="HmVguSUtb8nNx7TJjNla-2">
          <mxGeometry width="50" height="50" relative="1" as="geometry">
            <mxPoint x="384" y="345" as="sourcePoint" />
            <mxPoint x="555" y="290" as="targetPoint" />
          </mxGeometry>
        </mxCell>
        <mxCell id="HmVguSUtb8nNx7TJjNla-23" value="" style="endArrow=none;html=1;rounded=0;entryX=1;entryY=1;entryDx=0;entryDy=0;exitX=0.5;exitY=0;exitDx=0;exitDy=0;" edge="1" parent="HmVguSUtb8nNx7TJjNla-1" source="HmVguSUtb8nNx7TJjNla-3" target="HmVguSUtb8nNx7TJjNla-10">
          <mxGeometry width="50" height="50" relative="1" as="geometry">
            <mxPoint x="394" y="355" as="sourcePoint" />
            <mxPoint x="565" y="300" as="targetPoint" />
          </mxGeometry>
        </mxCell>
        <mxCell id="HmVguSUtb8nNx7TJjNla-24" value="" style="endArrow=none;html=1;rounded=0;entryX=0;entryY=1;entryDx=0;entryDy=0;exitX=0.5;exitY=0;exitDx=0;exitDy=0;" edge="1" parent="HmVguSUtb8nNx7TJjNla-1" source="HmVguSUtb8nNx7TJjNla-13" target="HmVguSUtb8nNx7TJjNla-2">
          <mxGeometry width="50" height="50" relative="1" as="geometry">
            <mxPoint x="404" y="365" as="sourcePoint" />
            <mxPoint x="575" y="310" as="targetPoint" />
          </mxGeometry>
        </mxCell>
        <mxCell id="HmVguSUtb8nNx7TJjNla-25" value="" style="shape=image;verticalLabelPosition=bottom;labelBackgroundColor=default;verticalAlign=top;aspect=fixed;imageAspect=0;image=data:image/png,iVBORw0KGgoAAAANSUhEUgAAASwAAABKCAIAAACOxf7RAAAMa0lEQVR4Ae1d7Y3jOAy9nlJN0oqRMraAwJUMkEoGSB058JuUJVuaSTZnH/NjoygU+fjIJ9szY+8/z3wlA8nARxn456PRM3gykAw8U4TZBMnAhxlIEX64ABk+GUgRZg8kAx9mIEX44QJk+GQgRZg9kAx8mIEU4YcLkOGTgWERPm6Xk77O8+PFFD7m82n6erHT17m7T5r76TJ/k2PArK9fg9cQ6v9pnF/vr8vl4558rSHrIeqAk9e33+84+Z4v1hUDroZEiN3mMr9fT6fT9NK+8IUZSONvmapCQHSXG25BQL29hjqpBltD/K9EWGNide6/KMJVwCtfDoiwljZohnsRgmgDuUno0WnW42epYWpfUjKKHCfQ533Shef5EbcZ0L8eFoIMrHdd2mGjdYncp9Nl/hIVATZNoekH5HdG3RGAL3d0DNu5umKJsj7NnkKoWfUjJAGA6aUpP5+4A/J0uRVaCDLQjVIYZj7xW1cRx9jz2cVqwZ44qK/1Bf3zR04fpNZ8JLxfT9ONKrIsgXE1Xf2RUPI6ua4QLPy+DQl77DzPcGgRP4FJoRFc1Voa5hXzAKR+EYJTp7ciRVagGABZPKbkuXts3ikBm4xbAaLIwQQZ17YLGWIL0lfoX5Zg5pWuAldi48NhCLbHsZAYRG65ks3pcp1QFlAVEgPL0qKwJYlA/uUKeVHp2FOH9lrOigijAsm92Ie+kciOXpg6T5NoAD4qyZppN6uqf4BEUZprkROLVdaaCoSpSbsrHhjA8tBUPil2iw1gIWR9JyQ0k0I8n8CksEq7M3lGMyGtQEX2HoYfC54n73GUcr8IIZj2sXPGQy8qmIIEkEpArJmYeEp7cVOI0CI2/BRIGm4DeGcT5qH8Wr+vqXbJAfZ4InrH68DL/E0zl/nGx0MGrEpAhxARX5IOFoam6F/up3A24b/nMcFT57RKP+K3qk+MpYGorfUjlZLTUSEVZOpHx5jOMVTJiLrKCq12bm1g+/kEMLLcvgpVUC++o3DS3GqnkXHsE+9Ax7YWpSUYminQQgMWQ1TmByG9TIQGxbhYE6E7d/WVqxcGXLYyZ2q1n2Q/5nl6sxrz2R03fZi/X2WjpZKbMNQXR7ncHpDvSQ6J5/khSrCK0iKAbS/7Nsx7Blwitk5GdUnLkggYWs1ehQjpo57TegCabNwRonM0wpN5/unUQpN2Yq8VCWyPitApB4PLLlnOQ9z+dCKk2GNMhK8UbYLRzDpf5kch9YsQ5GFHal8pKog/jLBm1kVILnRvti6RTl0jyDKXYhO2Rf4UJbhyNmF+SIR4qJcev971I4PXymHvQkR8SWp0piDLwykGQMKXdZIupwO1fTQHNAIO9VskpEIvmm6KkGFssWogaVfFBFtrA9t/V4R9kERF3N1SRKqatVw0W85DCcKeVd0XDFK/CP2lFIOE3U+0VwbWI3ILsfnwm+j4kVB2RPJXwuAoofzOJsyPiVDEDz8g/jJRWcGg2alHVQnh7CsqiFVRPUEAwPSKp6O1PZFL6y/PcKntceQJcSowjS5VGWfVTlWaawPboyK0CxzEaEXUTiPssd84n05IcS2EIMLRi7a6ZdqaH4Q0IEJizUscYNmhHyiWtnDjmJhmYiSG0/22CLHp2T/4lOs3nzCM9eSH+cc37DYmFNuUN6rQFoMi1A5GpVFoOaYhM9Tt4d8oUdBkKTDTth1kFjYaOjjHjsHs4jR+KkUYTFyrMWtdrHombTsOagkVCWwPixCvIUMDcBF9cf3YNUAznQgp9qpvUS4BERXNtKWdOD0MP65DGhIhuAjtFY65fECj6ooaV67lEBz3wqLhINtIEGsVF5znu9ulDBJfm5k3S5p0C6unu+2LIcSgCEU/REIUIW9YlJ37fcDl9lgoCjDQC0nTj5bFYsmiECJ++MIyhT1R1pI35Xy6q1lZROasg1Vk7yrwnZ/G2sC2/eol1hrWLjcFASXB8DcEFlHzaq7tghTVFYp4vSOTuJdFMwMc5gcgDYuQ2ci3XTKgnbE4//xJOqWofuLjSGtAhD8hNkV4pC7YzCVFuEnRLwz8Se+ImxThCFu7t00RvquEdLprV2EjcVKEI2ylbTLwBgZShG8gNV0mAyMMpAhH2ErbZOANDKQI30BqukwGRhhIEY6wlbbJwBsYSBG+gdR0mQyMMJAiHGErbZOBNzCQInwDqekyGRhhIEU4wlbaJgNvYCBF+AZS02UyMMJAinCErbRNBt7AwJgI5b6Y8p49u0+k76/IzY/djuiT6/zzfP1LSLoTaPMP2MGtu2nIR1wZQxS6D9DuvhE/+L4Zl5yXt1c7Evo8yN1S+JCb7Qe+bhWlk2Qjze4wckiECbvxaoVKvD0tWkZX3X97uUJm9N9A48gP9lukNdz9bnpAhIib2wWwyk1fMJY7u8BGxi1g3k+4AVQWEBHa9zK9eP+eL1ux3BpsJoe5r96s8wYY8Nnnh1rZ6o0kyMeeW2DARvcC8NaAxBl7kqtF6SPZJwhU1JJFioRYR/hyWJJAt6euJ7L0Ig8fEPb4iR6ykXXcyuDJ8R3o56uk1cC8YK5fhLEGlmrREOUWtcAY/YRHbqHt13S6TptNBqZg2f3kYQOMUTr6HktyWgHjd59FmjZB7Y5PSdS+KUiAW6Vr/R2d9CfrHjsCLpbJdpJckGY3Qxsw37g2uxjVSIATi/msnCzW1CZqfgoy4eOqsJv24FxJXpJWw/OSuX4RhnABrv8GoA/RutTwdF/eU+9DyPhxu+jTPjcf2geK9YfNDpyP24wSLxBK+A4PZHq/4X8WEOzLRmnyydEaGATL8t1rY7Gpw0N4O0n2nhd+/MOBvGFlXCMBl58v8vycjW2InDb8+IijXJn9Kmk+xIvHwyJEoM2n3281U4m+qCvoCp4tb7yUC9xniCW68vQ5Ez8En3q0gbW9m0UdzGim7gEkgCoABn26Pdij5jGdXwASeq3u9LIejmP40t0dvxkiWXzV9VaUzxk3hmEn4idxSC6hQI31Ml34kWkmVrrCTTeHZQoN0prrX/HFsAg5aI0F7Gw5Ne8Ah43oDpt2jVfv+1WXxTlGzZZ6Hdty+to8bVYPVTDVSV1SGywYQ7oQTXxkTm0xhLOjPSYivVszp9NR6cVS8Dw/lAICiGKmR7DovlbHUcwuSAjfF2e/4bv4oeGn7Ki4aPmpsIeKVElbrnzpzE9F6B99hYB+q8BweTDUH8zH5mVV4A2q2Llf1MD0t4tGbfQNfb8FvtwygO1SEhppedTSHcpfg9Xy8j5sXFVg+QgvM18ZrZJQuXZtuar5KRTVWqrzC/uCECVNV7xr0C/CFYgAV7eQHqQVxQKt5Wt1l63gWT84eGBQANnz/HxtXAQCky0N1NzU+kbsKiHkK3oHhn12WwAKh9JPwyTzGWO1ECMcSjaRhNJDcd0uiyrv0Q9XpHdXBX+VDiwvgoS0SvgXT/WLMDz8F3cR9+uK3oYG9H5tI5uih+pWwKPELctZWeF8Yi/6nq6Y25RbyJM/Kk/sGw/YJ2Jhi5E/9nbg9z4bhC/zKkLyEbWqwNfsRCGRHjyCcEnmiAIbhKAyfUeN+BRkP3kfEKHsH3S8knM55LE4hHF/+74xbMB18VqUOdTD96u5wRHuZ+RM8JDIhcpg76C6iJuKCmAobO03KEuzELz4wUydzPAc5LjcP3bV/5KwTjKsdeS4C2/zGgBXScZmLWqlPFd5q05ayCUJOMMhXFECNrdehkGEYFy82FWdnLb9NmkC4KXvYyIcDX2/as1Gl3r7x3wd+i+BB+2/54n+u08f8wfjr6n76LrmfZS0UftG7EHSGl6eOyezldZb598pwu/5svbDg+68via3R3asGrS/X6sHio5AweQxn1+x44ySNmofMLsPg6S5lWG4bzJDKn/vwztF+PeyyEjJwI4ZSBHuuHgJ/RgMpAiPUcfMYscMpAh3XLyEfgwGUoTHqGNmsWMGUoQ7Ll5CPwYDKcJj1DGz2DEDKcIdFy+hH4OBFOEx6phZ7JiBFOGOi5fQj8FAivAYdcwsdsxAinDHxUvox2AgRXiMOmYWO2YgRbjj4iX0YzCQIjxGHTOLHTOQItxx8RL6MRhIER6jjpnFjhlIEe64eAn9GAykCI9Rx8xixwykCHdcvIR+DAZShMeoY2axYwZShDsuXkI/BgMpwmPUMbPYMQMpwh0XL6Efg4EU4THqmFnsmIEU4Y6Ll9CPwUCK8Bh1zCx2zECKcMfFS+jHYCBFeIw6ZhY7ZiBFuOPiJfRjMPAv43huAbvItTsAAAAASUVORK5CYII=;" vertex="1" parent="HmVguSUtb8nNx7TJjNla-1">
          <mxGeometry x="30" y="20" width="300" height="74" as="geometry" />
        </mxCell>
      </root>
    </mxGraphModel>
  </diagram>
  <diagram name="10" id="pRrq3nJEAO4LWtUaEbV5">
    <mxGraphModel dx="1434" dy="836" grid="1" gridSize="10" guides="1" tooltips="1" connect="1" arrows="1" fold="1" page="1" pageScale="1" pageWidth="827" pageHeight="1169" math="0" shadow="0">
      <root>
        <mxCell id="muPnaMt0mYB8vm54-kUq-0" />
        <mxCell id="muPnaMt0mYB8vm54-kUq-1" parent="muPnaMt0mYB8vm54-kUq-0" />
        <mxCell id="muPnaMt0mYB8vm54-kUq-2" value="5" style="ellipse;whiteSpace=wrap;html=1;aspect=fixed;" vertex="1" parent="muPnaMt0mYB8vm54-kUq-1">
          <mxGeometry x="560" y="280" width="50" height="50" as="geometry" />
        </mxCell>
        <mxCell id="muPnaMt0mYB8vm54-kUq-3" value="6" style="ellipse;whiteSpace=wrap;html=1;aspect=fixed;" vertex="1" parent="muPnaMt0mYB8vm54-kUq-1">
          <mxGeometry x="690" y="280" width="50" height="50" as="geometry" />
        </mxCell>
        <mxCell id="muPnaMt0mYB8vm54-kUq-4" value="9" style="ellipse;whiteSpace=wrap;html=1;aspect=fixed;" vertex="1" parent="muPnaMt0mYB8vm54-kUq-1">
          <mxGeometry x="20" y="380" width="50" height="50" as="geometry" />
        </mxCell>
        <mxCell id="muPnaMt0mYB8vm54-kUq-5" value="24" style="ellipse;whiteSpace=wrap;html=1;aspect=fixed;" vertex="1" parent="muPnaMt0mYB8vm54-kUq-1">
          <mxGeometry x="140" y="380" width="50" height="50" as="geometry" />
        </mxCell>
        <mxCell id="muPnaMt0mYB8vm54-kUq-6" value="15" style="ellipse;whiteSpace=wrap;html=1;aspect=fixed;" vertex="1" parent="muPnaMt0mYB8vm54-kUq-1">
          <mxGeometry x="260" y="380" width="50" height="50" as="geometry" />
        </mxCell>
        <mxCell id="muPnaMt0mYB8vm54-kUq-7" value="" style="ellipse;whiteSpace=wrap;html=1;aspect=fixed;" vertex="1" parent="muPnaMt0mYB8vm54-kUq-1">
          <mxGeometry x="370" y="380" width="50" height="50" as="geometry" />
        </mxCell>
        <mxCell id="muPnaMt0mYB8vm54-kUq-8" value="17" style="ellipse;whiteSpace=wrap;html=1;aspect=fixed;" vertex="1" parent="muPnaMt0mYB8vm54-kUq-1">
          <mxGeometry x="310" y="280" width="50" height="50" as="geometry" />
        </mxCell>
        <mxCell id="muPnaMt0mYB8vm54-kUq-9" value="27" style="ellipse;whiteSpace=wrap;html=1;aspect=fixed;direction=south;" vertex="1" parent="muPnaMt0mYB8vm54-kUq-1">
          <mxGeometry x="80" y="280" width="50" height="50" as="geometry" />
        </mxCell>
        <mxCell id="muPnaMt0mYB8vm54-kUq-10" value="19" style="ellipse;whiteSpace=wrap;html=1;aspect=fixed;" vertex="1" parent="muPnaMt0mYB8vm54-kUq-1">
          <mxGeometry x="620" y="170" width="50" height="50" as="geometry" />
        </mxCell>
        <mxCell id="muPnaMt0mYB8vm54-kUq-11" value="32" style="ellipse;whiteSpace=wrap;html=1;aspect=fixed;" vertex="1" parent="muPnaMt0mYB8vm54-kUq-1">
          <mxGeometry x="170" y="170" width="50" height="50" as="geometry" />
        </mxCell>
        <mxCell id="muPnaMt0mYB8vm54-kUq-12" value="84" style="ellipse;whiteSpace=wrap;html=1;aspect=fixed;" vertex="1" parent="muPnaMt0mYB8vm54-kUq-1">
          <mxGeometry x="370" y="80" width="50" height="50" as="geometry" />
        </mxCell>
        <mxCell id="muPnaMt0mYB8vm54-kUq-13" value="" style="ellipse;whiteSpace=wrap;html=1;aspect=fixed;" vertex="1" parent="muPnaMt0mYB8vm54-kUq-1">
          <mxGeometry x="520" y="380" width="50" height="50" as="geometry" />
        </mxCell>
        <mxCell id="muPnaMt0mYB8vm54-kUq-14" value="" style="endArrow=none;html=1;rounded=0;entryX=0;entryY=0.5;entryDx=0;entryDy=0;exitX=0.5;exitY=0;exitDx=0;exitDy=0;" edge="1" parent="muPnaMt0mYB8vm54-kUq-1" source="muPnaMt0mYB8vm54-kUq-11" target="muPnaMt0mYB8vm54-kUq-12">
          <mxGeometry width="50" height="50" relative="1" as="geometry">
            <mxPoint x="350" y="250" as="sourcePoint" />
            <mxPoint x="400" y="200" as="targetPoint" />
          </mxGeometry>
        </mxCell>
        <mxCell id="muPnaMt0mYB8vm54-kUq-15" value="" style="endArrow=none;html=1;rounded=0;entryX=0.5;entryY=0;entryDx=0;entryDy=0;exitX=1;exitY=0.5;exitDx=0;exitDy=0;" edge="1" parent="muPnaMt0mYB8vm54-kUq-1" source="muPnaMt0mYB8vm54-kUq-12" target="muPnaMt0mYB8vm54-kUq-10">
          <mxGeometry width="50" height="50" relative="1" as="geometry">
            <mxPoint x="234" y="195" as="sourcePoint" />
            <mxPoint x="405" y="140" as="targetPoint" />
          </mxGeometry>
        </mxCell>
        <mxCell id="muPnaMt0mYB8vm54-kUq-16" value="" style="endArrow=none;html=1;rounded=0;entryX=0;entryY=0.5;entryDx=0;entryDy=0;exitX=0;exitY=1;exitDx=0;exitDy=0;" edge="1" parent="muPnaMt0mYB8vm54-kUq-1" source="muPnaMt0mYB8vm54-kUq-11" target="muPnaMt0mYB8vm54-kUq-9">
          <mxGeometry width="50" height="50" relative="1" as="geometry">
            <mxPoint x="244" y="205" as="sourcePoint" />
            <mxPoint x="415" y="150" as="targetPoint" />
          </mxGeometry>
        </mxCell>
        <mxCell id="muPnaMt0mYB8vm54-kUq-17" value="" style="endArrow=none;html=1;rounded=0;entryX=0.5;entryY=0;entryDx=0;entryDy=0;exitX=1;exitY=1;exitDx=0;exitDy=0;" edge="1" parent="muPnaMt0mYB8vm54-kUq-1" source="muPnaMt0mYB8vm54-kUq-11" target="muPnaMt0mYB8vm54-kUq-8">
          <mxGeometry width="50" height="50" relative="1" as="geometry">
            <mxPoint x="254" y="215" as="sourcePoint" />
            <mxPoint x="425" y="160" as="targetPoint" />
          </mxGeometry>
        </mxCell>
        <mxCell id="muPnaMt0mYB8vm54-kUq-18" value="" style="endArrow=none;html=1;rounded=0;entryX=0.5;entryY=0;entryDx=0;entryDy=0;exitX=1;exitY=1;exitDx=0;exitDy=0;" edge="1" parent="muPnaMt0mYB8vm54-kUq-1" source="muPnaMt0mYB8vm54-kUq-8" target="muPnaMt0mYB8vm54-kUq-7">
          <mxGeometry width="50" height="50" relative="1" as="geometry">
            <mxPoint x="300" y="330" as="sourcePoint" />
            <mxPoint x="435" y="170" as="targetPoint" />
          </mxGeometry>
        </mxCell>
        <mxCell id="muPnaMt0mYB8vm54-kUq-19" value="" style="endArrow=none;html=1;rounded=0;entryX=0.5;entryY=0;entryDx=0;entryDy=0;exitX=0;exitY=1;exitDx=0;exitDy=0;" edge="1" parent="muPnaMt0mYB8vm54-kUq-1" source="muPnaMt0mYB8vm54-kUq-8" target="muPnaMt0mYB8vm54-kUq-6">
          <mxGeometry width="50" height="50" relative="1" as="geometry">
            <mxPoint x="274" y="235" as="sourcePoint" />
            <mxPoint x="445" y="180" as="targetPoint" />
          </mxGeometry>
        </mxCell>
        <mxCell id="muPnaMt0mYB8vm54-kUq-20" value="" style="endArrow=none;html=1;rounded=0;entryX=0.5;entryY=0;entryDx=0;entryDy=0;exitX=1;exitY=0;exitDx=0;exitDy=0;" edge="1" parent="muPnaMt0mYB8vm54-kUq-1" source="muPnaMt0mYB8vm54-kUq-9" target="muPnaMt0mYB8vm54-kUq-5">
          <mxGeometry width="50" height="50" relative="1" as="geometry">
            <mxPoint x="284" y="245" as="sourcePoint" />
            <mxPoint x="455" y="190" as="targetPoint" />
          </mxGeometry>
        </mxCell>
        <mxCell id="muPnaMt0mYB8vm54-kUq-21" value="" style="endArrow=none;html=1;rounded=0;entryX=0.5;entryY=0;entryDx=0;entryDy=0;exitX=1;exitY=1;exitDx=0;exitDy=0;" edge="1" parent="muPnaMt0mYB8vm54-kUq-1" source="muPnaMt0mYB8vm54-kUq-9" target="muPnaMt0mYB8vm54-kUq-4">
          <mxGeometry width="50" height="50" relative="1" as="geometry">
            <mxPoint x="294" y="255" as="sourcePoint" />
            <mxPoint x="465" y="200" as="targetPoint" />
          </mxGeometry>
        </mxCell>
        <mxCell id="muPnaMt0mYB8vm54-kUq-22" value="" style="endArrow=none;html=1;rounded=0;exitX=0;exitY=1;exitDx=0;exitDy=0;entryX=0.5;entryY=0;entryDx=0;entryDy=0;" edge="1" parent="muPnaMt0mYB8vm54-kUq-1" source="muPnaMt0mYB8vm54-kUq-10" target="muPnaMt0mYB8vm54-kUq-2">
          <mxGeometry width="50" height="50" relative="1" as="geometry">
            <mxPoint x="384" y="345" as="sourcePoint" />
            <mxPoint x="555" y="290" as="targetPoint" />
          </mxGeometry>
        </mxCell>
        <mxCell id="muPnaMt0mYB8vm54-kUq-23" value="" style="endArrow=none;html=1;rounded=0;entryX=1;entryY=1;entryDx=0;entryDy=0;exitX=0.5;exitY=0;exitDx=0;exitDy=0;" edge="1" parent="muPnaMt0mYB8vm54-kUq-1" source="muPnaMt0mYB8vm54-kUq-3" target="muPnaMt0mYB8vm54-kUq-10">
          <mxGeometry width="50" height="50" relative="1" as="geometry">
            <mxPoint x="394" y="355" as="sourcePoint" />
            <mxPoint x="565" y="300" as="targetPoint" />
          </mxGeometry>
        </mxCell>
        <mxCell id="muPnaMt0mYB8vm54-kUq-24" value="" style="endArrow=none;html=1;rounded=0;entryX=0;entryY=1;entryDx=0;entryDy=0;exitX=0.5;exitY=0;exitDx=0;exitDy=0;" edge="1" parent="muPnaMt0mYB8vm54-kUq-1" source="muPnaMt0mYB8vm54-kUq-13" target="muPnaMt0mYB8vm54-kUq-2">
          <mxGeometry width="50" height="50" relative="1" as="geometry">
            <mxPoint x="404" y="365" as="sourcePoint" />
            <mxPoint x="575" y="310" as="targetPoint" />
          </mxGeometry>
        </mxCell>
        <mxCell id="muPnaMt0mYB8vm54-kUq-25" value="" style="shape=image;verticalLabelPosition=bottom;labelBackgroundColor=default;verticalAlign=top;aspect=fixed;imageAspect=0;image=data:image/png,iVBORw0KGgoAAAANSUhEUgAAASwAAABKCAIAAACOxf7RAAAMa0lEQVR4Ae1d7Y3jOAy9nlJN0oqRMraAwJUMkEoGSB058JuUJVuaSTZnH/NjoygU+fjIJ9szY+8/z3wlA8nARxn456PRM3gykAw8U4TZBMnAhxlIEX64ABk+GUgRZg8kAx9mIEX44QJk+GQgRZg9kAx8mIEU4YcLkOGTgWERPm6Xk77O8+PFFD7m82n6erHT17m7T5r76TJ/k2PArK9fg9cQ6v9pnF/vr8vl4558rSHrIeqAk9e33+84+Z4v1hUDroZEiN3mMr9fT6fT9NK+8IUZSONvmapCQHSXG25BQL29hjqpBltD/K9EWGNide6/KMJVwCtfDoiwljZohnsRgmgDuUno0WnW42epYWpfUjKKHCfQ533Shef5EbcZ0L8eFoIMrHdd2mGjdYncp9Nl/hIVATZNoekH5HdG3RGAL3d0DNu5umKJsj7NnkKoWfUjJAGA6aUpP5+4A/J0uRVaCDLQjVIYZj7xW1cRx9jz2cVqwZ44qK/1Bf3zR04fpNZ8JLxfT9ONKrIsgXE1Xf2RUPI6ua4QLPy+DQl77DzPcGgRP4FJoRFc1Voa5hXzAKR+EYJTp7ciRVagGABZPKbkuXts3ikBm4xbAaLIwQQZ17YLGWIL0lfoX5Zg5pWuAldi48NhCLbHsZAYRG65ks3pcp1QFlAVEgPL0qKwJYlA/uUKeVHp2FOH9lrOigijAsm92Ie+kciOXpg6T5NoAD4qyZppN6uqf4BEUZprkROLVdaaCoSpSbsrHhjA8tBUPil2iw1gIWR9JyQ0k0I8n8CksEq7M3lGMyGtQEX2HoYfC54n73GUcr8IIZj2sXPGQy8qmIIEkEpArJmYeEp7cVOI0CI2/BRIGm4DeGcT5qH8Wr+vqXbJAfZ4InrH68DL/E0zl/nGx0MGrEpAhxARX5IOFoam6F/up3A24b/nMcFT57RKP+K3qk+MpYGorfUjlZLTUSEVZOpHx5jOMVTJiLrKCq12bm1g+/kEMLLcvgpVUC++o3DS3GqnkXHsE+9Ax7YWpSUYminQQgMWQ1TmByG9TIQGxbhYE6E7d/WVqxcGXLYyZ2q1n2Q/5nl6sxrz2R03fZi/X2WjpZKbMNQXR7ncHpDvSQ6J5/khSrCK0iKAbS/7Nsx7Blwitk5GdUnLkggYWs1ehQjpo57TegCabNwRonM0wpN5/unUQpN2Yq8VCWyPitApB4PLLlnOQ9z+dCKk2GNMhK8UbYLRzDpf5kch9YsQ5GFHal8pKog/jLBm1kVILnRvti6RTl0jyDKXYhO2Rf4UJbhyNmF+SIR4qJcev971I4PXymHvQkR8SWp0piDLwykGQMKXdZIupwO1fTQHNAIO9VskpEIvmm6KkGFssWogaVfFBFtrA9t/V4R9kERF3N1SRKqatVw0W85DCcKeVd0XDFK/CP2lFIOE3U+0VwbWI3ILsfnwm+j4kVB2RPJXwuAoofzOJsyPiVDEDz8g/jJRWcGg2alHVQnh7CsqiFVRPUEAwPSKp6O1PZFL6y/PcKntceQJcSowjS5VGWfVTlWaawPboyK0CxzEaEXUTiPssd84n05IcS2EIMLRi7a6ZdqaH4Q0IEJizUscYNmhHyiWtnDjmJhmYiSG0/22CLHp2T/4lOs3nzCM9eSH+cc37DYmFNuUN6rQFoMi1A5GpVFoOaYhM9Tt4d8oUdBkKTDTth1kFjYaOjjHjsHs4jR+KkUYTFyrMWtdrHombTsOagkVCWwPixCvIUMDcBF9cf3YNUAznQgp9qpvUS4BERXNtKWdOD0MP65DGhIhuAjtFY65fECj6ooaV67lEBz3wqLhINtIEGsVF5znu9ulDBJfm5k3S5p0C6unu+2LIcSgCEU/REIUIW9YlJ37fcDl9lgoCjDQC0nTj5bFYsmiECJ++MIyhT1R1pI35Xy6q1lZROasg1Vk7yrwnZ/G2sC2/eol1hrWLjcFASXB8DcEFlHzaq7tghTVFYp4vSOTuJdFMwMc5gcgDYuQ2ci3XTKgnbE4//xJOqWofuLjSGtAhD8hNkV4pC7YzCVFuEnRLwz8Se+ImxThCFu7t00RvquEdLprV2EjcVKEI2ylbTLwBgZShG8gNV0mAyMMpAhH2ErbZOANDKQI30BqukwGRhhIEY6wlbbJwBsYSBG+gdR0mQyMMJAiHGErbZOBNzCQInwDqekyGRhhIEU4wlbaJgNvYCBF+AZS02UyMMJAinCErbRNBt7AwJgI5b6Y8p49u0+k76/IzY/djuiT6/zzfP1LSLoTaPMP2MGtu2nIR1wZQxS6D9DuvhE/+L4Zl5yXt1c7Evo8yN1S+JCb7Qe+bhWlk2Qjze4wckiECbvxaoVKvD0tWkZX3X97uUJm9N9A48gP9lukNdz9bnpAhIib2wWwyk1fMJY7u8BGxi1g3k+4AVQWEBHa9zK9eP+eL1ux3BpsJoe5r96s8wYY8Nnnh1rZ6o0kyMeeW2DARvcC8NaAxBl7kqtF6SPZJwhU1JJFioRYR/hyWJJAt6euJ7L0Ig8fEPb4iR6ykXXcyuDJ8R3o56uk1cC8YK5fhLEGlmrREOUWtcAY/YRHbqHt13S6TptNBqZg2f3kYQOMUTr6HktyWgHjd59FmjZB7Y5PSdS+KUiAW6Vr/R2d9CfrHjsCLpbJdpJckGY3Qxsw37g2uxjVSIATi/msnCzW1CZqfgoy4eOqsJv24FxJXpJWw/OSuX4RhnABrv8GoA/RutTwdF/eU+9DyPhxu+jTPjcf2geK9YfNDpyP24wSLxBK+A4PZHq/4X8WEOzLRmnyydEaGATL8t1rY7Gpw0N4O0n2nhd+/MOBvGFlXCMBl58v8vycjW2InDb8+IijXJn9Kmk+xIvHwyJEoM2n3281U4m+qCvoCp4tb7yUC9xniCW68vQ5Ez8En3q0gbW9m0UdzGim7gEkgCoABn26Pdij5jGdXwASeq3u9LIejmP40t0dvxkiWXzV9VaUzxk3hmEn4idxSC6hQI31Ml34kWkmVrrCTTeHZQoN0prrX/HFsAg5aI0F7Gw5Ne8Ah43oDpt2jVfv+1WXxTlGzZZ6Hdty+to8bVYPVTDVSV1SGywYQ7oQTXxkTm0xhLOjPSYivVszp9NR6cVS8Dw/lAICiGKmR7DovlbHUcwuSAjfF2e/4bv4oeGn7Ki4aPmpsIeKVElbrnzpzE9F6B99hYB+q8BweTDUH8zH5mVV4A2q2Llf1MD0t4tGbfQNfb8FvtwygO1SEhppedTSHcpfg9Xy8j5sXFVg+QgvM18ZrZJQuXZtuar5KRTVWqrzC/uCECVNV7xr0C/CFYgAV7eQHqQVxQKt5Wt1l63gWT84eGBQANnz/HxtXAQCky0N1NzU+kbsKiHkK3oHhn12WwAKh9JPwyTzGWO1ECMcSjaRhNJDcd0uiyrv0Q9XpHdXBX+VDiwvgoS0SvgXT/WLMDz8F3cR9+uK3oYG9H5tI5uih+pWwKPELctZWeF8Yi/6nq6Y25RbyJM/Kk/sGw/YJ2Jhi5E/9nbg9z4bhC/zKkLyEbWqwNfsRCGRHjyCcEnmiAIbhKAyfUeN+BRkP3kfEKHsH3S8knM55LE4hHF/+74xbMB18VqUOdTD96u5wRHuZ+RM8JDIhcpg76C6iJuKCmAobO03KEuzELz4wUydzPAc5LjcP3bV/5KwTjKsdeS4C2/zGgBXScZmLWqlPFd5q05ayCUJOMMhXFECNrdehkGEYFy82FWdnLb9NmkC4KXvYyIcDX2/as1Gl3r7x3wd+i+BB+2/54n+u08f8wfjr6n76LrmfZS0UftG7EHSGl6eOyezldZb598pwu/5svbDg+68via3R3asGrS/X6sHio5AweQxn1+x44ySNmofMLsPg6S5lWG4bzJDKn/vwztF+PeyyEjJwI4ZSBHuuHgJ/RgMpAiPUcfMYscMpAh3XLyEfgwGUoTHqGNmsWMGUoQ7Ll5CPwYDKcJj1DGz2DEDKcIdFy+hH4OBFOEx6phZ7JiBFOGOi5fQj8FAivAYdcwsdsxAinDHxUvox2AgRXiMOmYWO2YgRbjj4iX0YzCQIjxGHTOLHTOQItxx8RL6MRhIER6jjpnFjhlIEe64eAn9GAykCI9Rx8xixwykCHdcvIR+DAZShMeoY2axYwZShDsuXkI/BgMpwmPUMbPYMQMpwh0XL6Efg4EU4THqmFnsmIEU4Y6Ll9CPwUCK8Bh1zCx2zECKcMfFS+jHYCBFeIw6ZhY7ZiBFuOPiJfRjMPAv43huAbvItTsAAAAASUVORK5CYII=;" vertex="1" parent="muPnaMt0mYB8vm54-kUq-1">
          <mxGeometry x="30" y="20" width="300" height="74" as="geometry" />
        </mxCell>
      </root>
    </mxGraphModel>
  </diagram>
  <diagram name="11" id="Rwktyo2XS4LHRhSJz-Za">
    <mxGraphModel dx="1434" dy="836" grid="1" gridSize="10" guides="1" tooltips="1" connect="1" arrows="1" fold="1" page="1" pageScale="1" pageWidth="827" pageHeight="1169" math="0" shadow="0">
      <root>
        <mxCell id="eJTtviMovdxiTmQNeZya-0" />
        <mxCell id="eJTtviMovdxiTmQNeZya-1" parent="eJTtviMovdxiTmQNeZya-0" />
        <mxCell id="eJTtviMovdxiTmQNeZya-2" value="5" style="ellipse;whiteSpace=wrap;html=1;aspect=fixed;" vertex="1" parent="eJTtviMovdxiTmQNeZya-1">
          <mxGeometry x="560" y="280" width="50" height="50" as="geometry" />
        </mxCell>
        <mxCell id="eJTtviMovdxiTmQNeZya-3" value="6" style="ellipse;whiteSpace=wrap;html=1;aspect=fixed;" vertex="1" parent="eJTtviMovdxiTmQNeZya-1">
          <mxGeometry x="690" y="280" width="50" height="50" as="geometry" />
        </mxCell>
        <mxCell id="eJTtviMovdxiTmQNeZya-4" value="9" style="ellipse;whiteSpace=wrap;html=1;aspect=fixed;" vertex="1" parent="eJTtviMovdxiTmQNeZya-1">
          <mxGeometry x="20" y="380" width="50" height="50" as="geometry" />
        </mxCell>
        <mxCell id="eJTtviMovdxiTmQNeZya-5" value="24" style="ellipse;whiteSpace=wrap;html=1;aspect=fixed;" vertex="1" parent="eJTtviMovdxiTmQNeZya-1">
          <mxGeometry x="140" y="380" width="50" height="50" as="geometry" />
        </mxCell>
        <mxCell id="eJTtviMovdxiTmQNeZya-6" value="15" style="ellipse;whiteSpace=wrap;html=1;aspect=fixed;" vertex="1" parent="eJTtviMovdxiTmQNeZya-1">
          <mxGeometry x="260" y="380" width="50" height="50" as="geometry" />
        </mxCell>
        <mxCell id="eJTtviMovdxiTmQNeZya-7" value="12" style="ellipse;whiteSpace=wrap;html=1;aspect=fixed;" vertex="1" parent="eJTtviMovdxiTmQNeZya-1">
          <mxGeometry x="370" y="380" width="50" height="50" as="geometry" />
        </mxCell>
        <mxCell id="eJTtviMovdxiTmQNeZya-8" value="17" style="ellipse;whiteSpace=wrap;html=1;aspect=fixed;" vertex="1" parent="eJTtviMovdxiTmQNeZya-1">
          <mxGeometry x="310" y="280" width="50" height="50" as="geometry" />
        </mxCell>
        <mxCell id="eJTtviMovdxiTmQNeZya-9" value="27" style="ellipse;whiteSpace=wrap;html=1;aspect=fixed;direction=south;" vertex="1" parent="eJTtviMovdxiTmQNeZya-1">
          <mxGeometry x="80" y="280" width="50" height="50" as="geometry" />
        </mxCell>
        <mxCell id="eJTtviMovdxiTmQNeZya-10" value="19" style="ellipse;whiteSpace=wrap;html=1;aspect=fixed;" vertex="1" parent="eJTtviMovdxiTmQNeZya-1">
          <mxGeometry x="620" y="170" width="50" height="50" as="geometry" />
        </mxCell>
        <mxCell id="eJTtviMovdxiTmQNeZya-11" value="32" style="ellipse;whiteSpace=wrap;html=1;aspect=fixed;" vertex="1" parent="eJTtviMovdxiTmQNeZya-1">
          <mxGeometry x="170" y="170" width="50" height="50" as="geometry" />
        </mxCell>
        <mxCell id="eJTtviMovdxiTmQNeZya-12" value="84" style="ellipse;whiteSpace=wrap;html=1;aspect=fixed;" vertex="1" parent="eJTtviMovdxiTmQNeZya-1">
          <mxGeometry x="370" y="80" width="50" height="50" as="geometry" />
        </mxCell>
        <mxCell id="eJTtviMovdxiTmQNeZya-13" value="" style="ellipse;whiteSpace=wrap;html=1;aspect=fixed;" vertex="1" parent="eJTtviMovdxiTmQNeZya-1">
          <mxGeometry x="520" y="380" width="50" height="50" as="geometry" />
        </mxCell>
        <mxCell id="eJTtviMovdxiTmQNeZya-14" value="" style="endArrow=none;html=1;rounded=0;entryX=0;entryY=0.5;entryDx=0;entryDy=0;exitX=0.5;exitY=0;exitDx=0;exitDy=0;" edge="1" parent="eJTtviMovdxiTmQNeZya-1" source="eJTtviMovdxiTmQNeZya-11" target="eJTtviMovdxiTmQNeZya-12">
          <mxGeometry width="50" height="50" relative="1" as="geometry">
            <mxPoint x="350" y="250" as="sourcePoint" />
            <mxPoint x="400" y="200" as="targetPoint" />
          </mxGeometry>
        </mxCell>
        <mxCell id="eJTtviMovdxiTmQNeZya-15" value="" style="endArrow=none;html=1;rounded=0;entryX=0.5;entryY=0;entryDx=0;entryDy=0;exitX=1;exitY=0.5;exitDx=0;exitDy=0;" edge="1" parent="eJTtviMovdxiTmQNeZya-1" source="eJTtviMovdxiTmQNeZya-12" target="eJTtviMovdxiTmQNeZya-10">
          <mxGeometry width="50" height="50" relative="1" as="geometry">
            <mxPoint x="234" y="195" as="sourcePoint" />
            <mxPoint x="405" y="140" as="targetPoint" />
          </mxGeometry>
        </mxCell>
        <mxCell id="eJTtviMovdxiTmQNeZya-16" value="" style="endArrow=none;html=1;rounded=0;entryX=0;entryY=0.5;entryDx=0;entryDy=0;exitX=0;exitY=1;exitDx=0;exitDy=0;" edge="1" parent="eJTtviMovdxiTmQNeZya-1" source="eJTtviMovdxiTmQNeZya-11" target="eJTtviMovdxiTmQNeZya-9">
          <mxGeometry width="50" height="50" relative="1" as="geometry">
            <mxPoint x="244" y="205" as="sourcePoint" />
            <mxPoint x="415" y="150" as="targetPoint" />
          </mxGeometry>
        </mxCell>
        <mxCell id="eJTtviMovdxiTmQNeZya-17" value="" style="endArrow=none;html=1;rounded=0;entryX=0.5;entryY=0;entryDx=0;entryDy=0;exitX=1;exitY=1;exitDx=0;exitDy=0;" edge="1" parent="eJTtviMovdxiTmQNeZya-1" source="eJTtviMovdxiTmQNeZya-11" target="eJTtviMovdxiTmQNeZya-8">
          <mxGeometry width="50" height="50" relative="1" as="geometry">
            <mxPoint x="254" y="215" as="sourcePoint" />
            <mxPoint x="425" y="160" as="targetPoint" />
          </mxGeometry>
        </mxCell>
        <mxCell id="eJTtviMovdxiTmQNeZya-18" value="" style="endArrow=none;html=1;rounded=0;entryX=0.5;entryY=0;entryDx=0;entryDy=0;exitX=1;exitY=1;exitDx=0;exitDy=0;" edge="1" parent="eJTtviMovdxiTmQNeZya-1" source="eJTtviMovdxiTmQNeZya-8" target="eJTtviMovdxiTmQNeZya-7">
          <mxGeometry width="50" height="50" relative="1" as="geometry">
            <mxPoint x="300" y="330" as="sourcePoint" />
            <mxPoint x="435" y="170" as="targetPoint" />
          </mxGeometry>
        </mxCell>
        <mxCell id="eJTtviMovdxiTmQNeZya-19" value="" style="endArrow=none;html=1;rounded=0;entryX=0.5;entryY=0;entryDx=0;entryDy=0;exitX=0;exitY=1;exitDx=0;exitDy=0;" edge="1" parent="eJTtviMovdxiTmQNeZya-1" source="eJTtviMovdxiTmQNeZya-8" target="eJTtviMovdxiTmQNeZya-6">
          <mxGeometry width="50" height="50" relative="1" as="geometry">
            <mxPoint x="274" y="235" as="sourcePoint" />
            <mxPoint x="445" y="180" as="targetPoint" />
          </mxGeometry>
        </mxCell>
        <mxCell id="eJTtviMovdxiTmQNeZya-20" value="" style="endArrow=none;html=1;rounded=0;entryX=0.5;entryY=0;entryDx=0;entryDy=0;exitX=1;exitY=0;exitDx=0;exitDy=0;" edge="1" parent="eJTtviMovdxiTmQNeZya-1" source="eJTtviMovdxiTmQNeZya-9" target="eJTtviMovdxiTmQNeZya-5">
          <mxGeometry width="50" height="50" relative="1" as="geometry">
            <mxPoint x="284" y="245" as="sourcePoint" />
            <mxPoint x="455" y="190" as="targetPoint" />
          </mxGeometry>
        </mxCell>
        <mxCell id="eJTtviMovdxiTmQNeZya-21" value="" style="endArrow=none;html=1;rounded=0;entryX=0.5;entryY=0;entryDx=0;entryDy=0;exitX=1;exitY=1;exitDx=0;exitDy=0;" edge="1" parent="eJTtviMovdxiTmQNeZya-1" source="eJTtviMovdxiTmQNeZya-9" target="eJTtviMovdxiTmQNeZya-4">
          <mxGeometry width="50" height="50" relative="1" as="geometry">
            <mxPoint x="294" y="255" as="sourcePoint" />
            <mxPoint x="465" y="200" as="targetPoint" />
          </mxGeometry>
        </mxCell>
        <mxCell id="eJTtviMovdxiTmQNeZya-22" value="" style="endArrow=none;html=1;rounded=0;exitX=0;exitY=1;exitDx=0;exitDy=0;entryX=0.5;entryY=0;entryDx=0;entryDy=0;" edge="1" parent="eJTtviMovdxiTmQNeZya-1" source="eJTtviMovdxiTmQNeZya-10" target="eJTtviMovdxiTmQNeZya-2">
          <mxGeometry width="50" height="50" relative="1" as="geometry">
            <mxPoint x="384" y="345" as="sourcePoint" />
            <mxPoint x="555" y="290" as="targetPoint" />
          </mxGeometry>
        </mxCell>
        <mxCell id="eJTtviMovdxiTmQNeZya-23" value="" style="endArrow=none;html=1;rounded=0;entryX=1;entryY=1;entryDx=0;entryDy=0;exitX=0.5;exitY=0;exitDx=0;exitDy=0;" edge="1" parent="eJTtviMovdxiTmQNeZya-1" source="eJTtviMovdxiTmQNeZya-3" target="eJTtviMovdxiTmQNeZya-10">
          <mxGeometry width="50" height="50" relative="1" as="geometry">
            <mxPoint x="394" y="355" as="sourcePoint" />
            <mxPoint x="565" y="300" as="targetPoint" />
          </mxGeometry>
        </mxCell>
        <mxCell id="eJTtviMovdxiTmQNeZya-24" value="" style="endArrow=none;html=1;rounded=0;entryX=0;entryY=1;entryDx=0;entryDy=0;exitX=0.5;exitY=0;exitDx=0;exitDy=0;" edge="1" parent="eJTtviMovdxiTmQNeZya-1" source="eJTtviMovdxiTmQNeZya-13" target="eJTtviMovdxiTmQNeZya-2">
          <mxGeometry width="50" height="50" relative="1" as="geometry">
            <mxPoint x="404" y="365" as="sourcePoint" />
            <mxPoint x="575" y="310" as="targetPoint" />
          </mxGeometry>
        </mxCell>
        <mxCell id="eJTtviMovdxiTmQNeZya-25" value="" style="shape=image;verticalLabelPosition=bottom;labelBackgroundColor=default;verticalAlign=top;aspect=fixed;imageAspect=0;image=data:image/png,iVBORw0KGgoAAAANSUhEUgAAASwAAABKCAIAAACOxf7RAAAMa0lEQVR4Ae1d7Y3jOAy9nlJN0oqRMraAwJUMkEoGSB058JuUJVuaSTZnH/NjoygU+fjIJ9szY+8/z3wlA8nARxn456PRM3gykAw8U4TZBMnAhxlIEX64ABk+GUgRZg8kAx9mIEX44QJk+GQgRZg9kAx8mIEU4YcLkOGTgWERPm6Xk77O8+PFFD7m82n6erHT17m7T5r76TJ/k2PArK9fg9cQ6v9pnF/vr8vl4558rSHrIeqAk9e33+84+Z4v1hUDroZEiN3mMr9fT6fT9NK+8IUZSONvmapCQHSXG25BQL29hjqpBltD/K9EWGNide6/KMJVwCtfDoiwljZohnsRgmgDuUno0WnW42epYWpfUjKKHCfQ533Shef5EbcZ0L8eFoIMrHdd2mGjdYncp9Nl/hIVATZNoekH5HdG3RGAL3d0DNu5umKJsj7NnkKoWfUjJAGA6aUpP5+4A/J0uRVaCDLQjVIYZj7xW1cRx9jz2cVqwZ44qK/1Bf3zR04fpNZ8JLxfT9ONKrIsgXE1Xf2RUPI6ua4QLPy+DQl77DzPcGgRP4FJoRFc1Voa5hXzAKR+EYJTp7ciRVagGABZPKbkuXts3ikBm4xbAaLIwQQZ17YLGWIL0lfoX5Zg5pWuAldi48NhCLbHsZAYRG65ks3pcp1QFlAVEgPL0qKwJYlA/uUKeVHp2FOH9lrOigijAsm92Ie+kciOXpg6T5NoAD4qyZppN6uqf4BEUZprkROLVdaaCoSpSbsrHhjA8tBUPil2iw1gIWR9JyQ0k0I8n8CksEq7M3lGMyGtQEX2HoYfC54n73GUcr8IIZj2sXPGQy8qmIIEkEpArJmYeEp7cVOI0CI2/BRIGm4DeGcT5qH8Wr+vqXbJAfZ4InrH68DL/E0zl/nGx0MGrEpAhxARX5IOFoam6F/up3A24b/nMcFT57RKP+K3qk+MpYGorfUjlZLTUSEVZOpHx5jOMVTJiLrKCq12bm1g+/kEMLLcvgpVUC++o3DS3GqnkXHsE+9Ax7YWpSUYminQQgMWQ1TmByG9TIQGxbhYE6E7d/WVqxcGXLYyZ2q1n2Q/5nl6sxrz2R03fZi/X2WjpZKbMNQXR7ncHpDvSQ6J5/khSrCK0iKAbS/7Nsx7Blwitk5GdUnLkggYWs1ehQjpo57TegCabNwRonM0wpN5/unUQpN2Yq8VCWyPitApB4PLLlnOQ9z+dCKk2GNMhK8UbYLRzDpf5kch9YsQ5GFHal8pKog/jLBm1kVILnRvti6RTl0jyDKXYhO2Rf4UJbhyNmF+SIR4qJcev971I4PXymHvQkR8SWp0piDLwykGQMKXdZIupwO1fTQHNAIO9VskpEIvmm6KkGFssWogaVfFBFtrA9t/V4R9kERF3N1SRKqatVw0W85DCcKeVd0XDFK/CP2lFIOE3U+0VwbWI3ILsfnwm+j4kVB2RPJXwuAoofzOJsyPiVDEDz8g/jJRWcGg2alHVQnh7CsqiFVRPUEAwPSKp6O1PZFL6y/PcKntceQJcSowjS5VGWfVTlWaawPboyK0CxzEaEXUTiPssd84n05IcS2EIMLRi7a6ZdqaH4Q0IEJizUscYNmhHyiWtnDjmJhmYiSG0/22CLHp2T/4lOs3nzCM9eSH+cc37DYmFNuUN6rQFoMi1A5GpVFoOaYhM9Tt4d8oUdBkKTDTth1kFjYaOjjHjsHs4jR+KkUYTFyrMWtdrHombTsOagkVCWwPixCvIUMDcBF9cf3YNUAznQgp9qpvUS4BERXNtKWdOD0MP65DGhIhuAjtFY65fECj6ooaV67lEBz3wqLhINtIEGsVF5znu9ulDBJfm5k3S5p0C6unu+2LIcSgCEU/REIUIW9YlJ37fcDl9lgoCjDQC0nTj5bFYsmiECJ++MIyhT1R1pI35Xy6q1lZROasg1Vk7yrwnZ/G2sC2/eol1hrWLjcFASXB8DcEFlHzaq7tghTVFYp4vSOTuJdFMwMc5gcgDYuQ2ci3XTKgnbE4//xJOqWofuLjSGtAhD8hNkV4pC7YzCVFuEnRLwz8Se+ImxThCFu7t00RvquEdLprV2EjcVKEI2ylbTLwBgZShG8gNV0mAyMMpAhH2ErbZOANDKQI30BqukwGRhhIEY6wlbbJwBsYSBG+gdR0mQyMMJAiHGErbZOBNzCQInwDqekyGRhhIEU4wlbaJgNvYCBF+AZS02UyMMJAinCErbRNBt7AwJgI5b6Y8p49u0+k76/IzY/djuiT6/zzfP1LSLoTaPMP2MGtu2nIR1wZQxS6D9DuvhE/+L4Zl5yXt1c7Evo8yN1S+JCb7Qe+bhWlk2Qjze4wckiECbvxaoVKvD0tWkZX3X97uUJm9N9A48gP9lukNdz9bnpAhIib2wWwyk1fMJY7u8BGxi1g3k+4AVQWEBHa9zK9eP+eL1ux3BpsJoe5r96s8wYY8Nnnh1rZ6o0kyMeeW2DARvcC8NaAxBl7kqtF6SPZJwhU1JJFioRYR/hyWJJAt6euJ7L0Ig8fEPb4iR6ykXXcyuDJ8R3o56uk1cC8YK5fhLEGlmrREOUWtcAY/YRHbqHt13S6TptNBqZg2f3kYQOMUTr6HktyWgHjd59FmjZB7Y5PSdS+KUiAW6Vr/R2d9CfrHjsCLpbJdpJckGY3Qxsw37g2uxjVSIATi/msnCzW1CZqfgoy4eOqsJv24FxJXpJWw/OSuX4RhnABrv8GoA/RutTwdF/eU+9DyPhxu+jTPjcf2geK9YfNDpyP24wSLxBK+A4PZHq/4X8WEOzLRmnyydEaGATL8t1rY7Gpw0N4O0n2nhd+/MOBvGFlXCMBl58v8vycjW2InDb8+IijXJn9Kmk+xIvHwyJEoM2n3281U4m+qCvoCp4tb7yUC9xniCW68vQ5Ez8En3q0gbW9m0UdzGim7gEkgCoABn26Pdij5jGdXwASeq3u9LIejmP40t0dvxkiWXzV9VaUzxk3hmEn4idxSC6hQI31Ml34kWkmVrrCTTeHZQoN0prrX/HFsAg5aI0F7Gw5Ne8Ah43oDpt2jVfv+1WXxTlGzZZ6Hdty+to8bVYPVTDVSV1SGywYQ7oQTXxkTm0xhLOjPSYivVszp9NR6cVS8Dw/lAICiGKmR7DovlbHUcwuSAjfF2e/4bv4oeGn7Ki4aPmpsIeKVElbrnzpzE9F6B99hYB+q8BweTDUH8zH5mVV4A2q2Llf1MD0t4tGbfQNfb8FvtwygO1SEhppedTSHcpfg9Xy8j5sXFVg+QgvM18ZrZJQuXZtuar5KRTVWqrzC/uCECVNV7xr0C/CFYgAV7eQHqQVxQKt5Wt1l63gWT84eGBQANnz/HxtXAQCky0N1NzU+kbsKiHkK3oHhn12WwAKh9JPwyTzGWO1ECMcSjaRhNJDcd0uiyrv0Q9XpHdXBX+VDiwvgoS0SvgXT/WLMDz8F3cR9+uK3oYG9H5tI5uih+pWwKPELctZWeF8Yi/6nq6Y25RbyJM/Kk/sGw/YJ2Jhi5E/9nbg9z4bhC/zKkLyEbWqwNfsRCGRHjyCcEnmiAIbhKAyfUeN+BRkP3kfEKHsH3S8knM55LE4hHF/+74xbMB18VqUOdTD96u5wRHuZ+RM8JDIhcpg76C6iJuKCmAobO03KEuzELz4wUydzPAc5LjcP3bV/5KwTjKsdeS4C2/zGgBXScZmLWqlPFd5q05ayCUJOMMhXFECNrdehkGEYFy82FWdnLb9NmkC4KXvYyIcDX2/as1Gl3r7x3wd+i+BB+2/54n+u08f8wfjr6n76LrmfZS0UftG7EHSGl6eOyezldZb598pwu/5svbDg+68via3R3asGrS/X6sHio5AweQxn1+x44ySNmofMLsPg6S5lWG4bzJDKn/vwztF+PeyyEjJwI4ZSBHuuHgJ/RgMpAiPUcfMYscMpAh3XLyEfgwGUoTHqGNmsWMGUoQ7Ll5CPwYDKcJj1DGz2DEDKcIdFy+hH4OBFOEx6phZ7JiBFOGOi5fQj8FAivAYdcwsdsxAinDHxUvox2AgRXiMOmYWO2YgRbjj4iX0YzCQIjxGHTOLHTOQItxx8RL6MRhIER6jjpnFjhlIEe64eAn9GAykCI9Rx8xixwykCHdcvIR+DAZShMeoY2axYwZShDsuXkI/BgMpwmPUMbPYMQMpwh0XL6Efg4EU4THqmFnsmIEU4Y6Ll9CPwUCK8Bh1zCx2zECKcMfFS+jHYCBFeIw6ZhY7ZiBFuOPiJfRjMPAv43huAbvItTsAAAAASUVORK5CYII=;" vertex="1" parent="eJTtviMovdxiTmQNeZya-1">
          <mxGeometry x="30" y="20" width="300" height="74" as="geometry" />
        </mxCell>
      </root>
    </mxGraphModel>
  </diagram>
  <diagram name="12" id="W0LMM2nOyV_dal33-dte">
    <mxGraphModel dx="1434" dy="836" grid="1" gridSize="10" guides="1" tooltips="1" connect="1" arrows="1" fold="1" page="1" pageScale="1" pageWidth="827" pageHeight="1169" math="0" shadow="0">
      <root>
        <mxCell id="4klD2bzXTESAEc0kXJ4--0" />
        <mxCell id="4klD2bzXTESAEc0kXJ4--1" parent="4klD2bzXTESAEc0kXJ4--0" />
        <mxCell id="4klD2bzXTESAEc0kXJ4--2" value="19" style="ellipse;whiteSpace=wrap;html=1;aspect=fixed;fillColor=#1ba1e2;fontColor=#ffffff;strokeColor=#006EAF;" vertex="1" parent="4klD2bzXTESAEc0kXJ4--1">
          <mxGeometry x="560" y="280" width="50" height="50" as="geometry" />
        </mxCell>
        <mxCell id="4klD2bzXTESAEc0kXJ4--3" value="6" style="ellipse;whiteSpace=wrap;html=1;aspect=fixed;" vertex="1" parent="4klD2bzXTESAEc0kXJ4--1">
          <mxGeometry x="690" y="280" width="50" height="50" as="geometry" />
        </mxCell>
        <mxCell id="4klD2bzXTESAEc0kXJ4--4" value="9" style="ellipse;whiteSpace=wrap;html=1;aspect=fixed;" vertex="1" parent="4klD2bzXTESAEc0kXJ4--1">
          <mxGeometry x="20" y="380" width="50" height="50" as="geometry" />
        </mxCell>
        <mxCell id="4klD2bzXTESAEc0kXJ4--5" value="24" style="ellipse;whiteSpace=wrap;html=1;aspect=fixed;" vertex="1" parent="4klD2bzXTESAEc0kXJ4--1">
          <mxGeometry x="140" y="380" width="50" height="50" as="geometry" />
        </mxCell>
        <mxCell id="4klD2bzXTESAEc0kXJ4--6" value="15" style="ellipse;whiteSpace=wrap;html=1;aspect=fixed;" vertex="1" parent="4klD2bzXTESAEc0kXJ4--1">
          <mxGeometry x="260" y="380" width="50" height="50" as="geometry" />
        </mxCell>
        <mxCell id="4klD2bzXTESAEc0kXJ4--7" value="12" style="ellipse;whiteSpace=wrap;html=1;aspect=fixed;" vertex="1" parent="4klD2bzXTESAEc0kXJ4--1">
          <mxGeometry x="370" y="380" width="50" height="50" as="geometry" />
        </mxCell>
        <mxCell id="4klD2bzXTESAEc0kXJ4--8" value="17" style="ellipse;whiteSpace=wrap;html=1;aspect=fixed;" vertex="1" parent="4klD2bzXTESAEc0kXJ4--1">
          <mxGeometry x="310" y="280" width="50" height="50" as="geometry" />
        </mxCell>
        <mxCell id="4klD2bzXTESAEc0kXJ4--9" value="27" style="ellipse;whiteSpace=wrap;html=1;aspect=fixed;direction=south;" vertex="1" parent="4klD2bzXTESAEc0kXJ4--1">
          <mxGeometry x="80" y="280" width="50" height="50" as="geometry" />
        </mxCell>
        <mxCell id="4klD2bzXTESAEc0kXJ4--10" value="28" style="ellipse;whiteSpace=wrap;html=1;aspect=fixed;fillColor=#1ba1e2;fontColor=#ffffff;strokeColor=#006EAF;" vertex="1" parent="4klD2bzXTESAEc0kXJ4--1">
          <mxGeometry x="620" y="170" width="50" height="50" as="geometry" />
        </mxCell>
        <mxCell id="4klD2bzXTESAEc0kXJ4--11" value="32" style="ellipse;whiteSpace=wrap;html=1;aspect=fixed;" vertex="1" parent="4klD2bzXTESAEc0kXJ4--1">
          <mxGeometry x="170" y="170" width="50" height="50" as="geometry" />
        </mxCell>
        <mxCell id="4klD2bzXTESAEc0kXJ4--12" value="84" style="ellipse;whiteSpace=wrap;html=1;aspect=fixed;" vertex="1" parent="4klD2bzXTESAEc0kXJ4--1">
          <mxGeometry x="370" y="80" width="50" height="50" as="geometry" />
        </mxCell>
        <mxCell id="4klD2bzXTESAEc0kXJ4--13" value="5" style="ellipse;whiteSpace=wrap;html=1;aspect=fixed;fillColor=#1ba1e2;fontColor=#ffffff;strokeColor=#006EAF;" vertex="1" parent="4klD2bzXTESAEc0kXJ4--1">
          <mxGeometry x="520" y="380" width="50" height="50" as="geometry" />
        </mxCell>
        <mxCell id="4klD2bzXTESAEc0kXJ4--14" value="" style="endArrow=none;html=1;rounded=0;entryX=0;entryY=0.5;entryDx=0;entryDy=0;exitX=0.5;exitY=0;exitDx=0;exitDy=0;" edge="1" parent="4klD2bzXTESAEc0kXJ4--1" source="4klD2bzXTESAEc0kXJ4--11" target="4klD2bzXTESAEc0kXJ4--12">
          <mxGeometry width="50" height="50" relative="1" as="geometry">
            <mxPoint x="350" y="250" as="sourcePoint" />
            <mxPoint x="400" y="200" as="targetPoint" />
          </mxGeometry>
        </mxCell>
        <mxCell id="4klD2bzXTESAEc0kXJ4--15" value="" style="endArrow=none;html=1;rounded=0;entryX=0.5;entryY=0;entryDx=0;entryDy=0;exitX=1;exitY=0.5;exitDx=0;exitDy=0;" edge="1" parent="4klD2bzXTESAEc0kXJ4--1" source="4klD2bzXTESAEc0kXJ4--12" target="4klD2bzXTESAEc0kXJ4--10">
          <mxGeometry width="50" height="50" relative="1" as="geometry">
            <mxPoint x="234" y="195" as="sourcePoint" />
            <mxPoint x="405" y="140" as="targetPoint" />
          </mxGeometry>
        </mxCell>
        <mxCell id="4klD2bzXTESAEc0kXJ4--16" value="" style="endArrow=none;html=1;rounded=0;entryX=0;entryY=0.5;entryDx=0;entryDy=0;exitX=0;exitY=1;exitDx=0;exitDy=0;" edge="1" parent="4klD2bzXTESAEc0kXJ4--1" source="4klD2bzXTESAEc0kXJ4--11" target="4klD2bzXTESAEc0kXJ4--9">
          <mxGeometry width="50" height="50" relative="1" as="geometry">
            <mxPoint x="244" y="205" as="sourcePoint" />
            <mxPoint x="415" y="150" as="targetPoint" />
          </mxGeometry>
        </mxCell>
        <mxCell id="4klD2bzXTESAEc0kXJ4--17" value="" style="endArrow=none;html=1;rounded=0;entryX=0.5;entryY=0;entryDx=0;entryDy=0;exitX=1;exitY=1;exitDx=0;exitDy=0;" edge="1" parent="4klD2bzXTESAEc0kXJ4--1" source="4klD2bzXTESAEc0kXJ4--11" target="4klD2bzXTESAEc0kXJ4--8">
          <mxGeometry width="50" height="50" relative="1" as="geometry">
            <mxPoint x="254" y="215" as="sourcePoint" />
            <mxPoint x="425" y="160" as="targetPoint" />
          </mxGeometry>
        </mxCell>
        <mxCell id="4klD2bzXTESAEc0kXJ4--18" value="" style="endArrow=none;html=1;rounded=0;entryX=0.5;entryY=0;entryDx=0;entryDy=0;exitX=1;exitY=1;exitDx=0;exitDy=0;" edge="1" parent="4klD2bzXTESAEc0kXJ4--1" source="4klD2bzXTESAEc0kXJ4--8" target="4klD2bzXTESAEc0kXJ4--7">
          <mxGeometry width="50" height="50" relative="1" as="geometry">
            <mxPoint x="300" y="330" as="sourcePoint" />
            <mxPoint x="435" y="170" as="targetPoint" />
          </mxGeometry>
        </mxCell>
        <mxCell id="4klD2bzXTESAEc0kXJ4--19" value="" style="endArrow=none;html=1;rounded=0;entryX=0.5;entryY=0;entryDx=0;entryDy=0;exitX=0;exitY=1;exitDx=0;exitDy=0;" edge="1" parent="4klD2bzXTESAEc0kXJ4--1" source="4klD2bzXTESAEc0kXJ4--8" target="4klD2bzXTESAEc0kXJ4--6">
          <mxGeometry width="50" height="50" relative="1" as="geometry">
            <mxPoint x="274" y="235" as="sourcePoint" />
            <mxPoint x="445" y="180" as="targetPoint" />
          </mxGeometry>
        </mxCell>
        <mxCell id="4klD2bzXTESAEc0kXJ4--20" value="" style="endArrow=none;html=1;rounded=0;entryX=0.5;entryY=0;entryDx=0;entryDy=0;exitX=1;exitY=0;exitDx=0;exitDy=0;" edge="1" parent="4klD2bzXTESAEc0kXJ4--1" source="4klD2bzXTESAEc0kXJ4--9" target="4klD2bzXTESAEc0kXJ4--5">
          <mxGeometry width="50" height="50" relative="1" as="geometry">
            <mxPoint x="284" y="245" as="sourcePoint" />
            <mxPoint x="455" y="190" as="targetPoint" />
          </mxGeometry>
        </mxCell>
        <mxCell id="4klD2bzXTESAEc0kXJ4--21" value="" style="endArrow=none;html=1;rounded=0;entryX=0.5;entryY=0;entryDx=0;entryDy=0;exitX=1;exitY=1;exitDx=0;exitDy=0;" edge="1" parent="4klD2bzXTESAEc0kXJ4--1" source="4klD2bzXTESAEc0kXJ4--9" target="4klD2bzXTESAEc0kXJ4--4">
          <mxGeometry width="50" height="50" relative="1" as="geometry">
            <mxPoint x="294" y="255" as="sourcePoint" />
            <mxPoint x="465" y="200" as="targetPoint" />
          </mxGeometry>
        </mxCell>
        <mxCell id="4klD2bzXTESAEc0kXJ4--22" value="" style="endArrow=none;html=1;rounded=0;exitX=0;exitY=1;exitDx=0;exitDy=0;entryX=0.5;entryY=0;entryDx=0;entryDy=0;" edge="1" parent="4klD2bzXTESAEc0kXJ4--1" source="4klD2bzXTESAEc0kXJ4--10" target="4klD2bzXTESAEc0kXJ4--2">
          <mxGeometry width="50" height="50" relative="1" as="geometry">
            <mxPoint x="384" y="345" as="sourcePoint" />
            <mxPoint x="555" y="290" as="targetPoint" />
          </mxGeometry>
        </mxCell>
        <mxCell id="4klD2bzXTESAEc0kXJ4--23" value="" style="endArrow=none;html=1;rounded=0;entryX=1;entryY=1;entryDx=0;entryDy=0;exitX=0.5;exitY=0;exitDx=0;exitDy=0;" edge="1" parent="4klD2bzXTESAEc0kXJ4--1" source="4klD2bzXTESAEc0kXJ4--3" target="4klD2bzXTESAEc0kXJ4--10">
          <mxGeometry width="50" height="50" relative="1" as="geometry">
            <mxPoint x="394" y="355" as="sourcePoint" />
            <mxPoint x="565" y="300" as="targetPoint" />
          </mxGeometry>
        </mxCell>
        <mxCell id="4klD2bzXTESAEc0kXJ4--24" value="" style="endArrow=none;html=1;rounded=0;entryX=0;entryY=1;entryDx=0;entryDy=0;exitX=0.5;exitY=0;exitDx=0;exitDy=0;" edge="1" parent="4klD2bzXTESAEc0kXJ4--1" source="4klD2bzXTESAEc0kXJ4--13" target="4klD2bzXTESAEc0kXJ4--2">
          <mxGeometry width="50" height="50" relative="1" as="geometry">
            <mxPoint x="404" y="365" as="sourcePoint" />
            <mxPoint x="575" y="310" as="targetPoint" />
          </mxGeometry>
        </mxCell>
        <mxCell id="4klD2bzXTESAEc0kXJ4--25" value="" style="shape=image;verticalLabelPosition=bottom;labelBackgroundColor=default;verticalAlign=top;aspect=fixed;imageAspect=0;image=data:image/png,iVBORw0KGgoAAAANSUhEUgAAASwAAABKCAIAAACOxf7RAAAMa0lEQVR4Ae1d7Y3jOAy9nlJN0oqRMraAwJUMkEoGSB058JuUJVuaSTZnH/NjoygU+fjIJ9szY+8/z3wlA8nARxn456PRM3gykAw8U4TZBMnAhxlIEX64ABk+GUgRZg8kAx9mIEX44QJk+GQgRZg9kAx8mIEU4YcLkOGTgWERPm6Xk77O8+PFFD7m82n6erHT17m7T5r76TJ/k2PArK9fg9cQ6v9pnF/vr8vl4558rSHrIeqAk9e33+84+Z4v1hUDroZEiN3mMr9fT6fT9NK+8IUZSONvmapCQHSXG25BQL29hjqpBltD/K9EWGNide6/KMJVwCtfDoiwljZohnsRgmgDuUno0WnW42epYWpfUjKKHCfQ533Shef5EbcZ0L8eFoIMrHdd2mGjdYncp9Nl/hIVATZNoekH5HdG3RGAL3d0DNu5umKJsj7NnkKoWfUjJAGA6aUpP5+4A/J0uRVaCDLQjVIYZj7xW1cRx9jz2cVqwZ44qK/1Bf3zR04fpNZ8JLxfT9ONKrIsgXE1Xf2RUPI6ua4QLPy+DQl77DzPcGgRP4FJoRFc1Voa5hXzAKR+EYJTp7ciRVagGABZPKbkuXts3ikBm4xbAaLIwQQZ17YLGWIL0lfoX5Zg5pWuAldi48NhCLbHsZAYRG65ks3pcp1QFlAVEgPL0qKwJYlA/uUKeVHp2FOH9lrOigijAsm92Ie+kciOXpg6T5NoAD4qyZppN6uqf4BEUZprkROLVdaaCoSpSbsrHhjA8tBUPil2iw1gIWR9JyQ0k0I8n8CksEq7M3lGMyGtQEX2HoYfC54n73GUcr8IIZj2sXPGQy8qmIIEkEpArJmYeEp7cVOI0CI2/BRIGm4DeGcT5qH8Wr+vqXbJAfZ4InrH68DL/E0zl/nGx0MGrEpAhxARX5IOFoam6F/up3A24b/nMcFT57RKP+K3qk+MpYGorfUjlZLTUSEVZOpHx5jOMVTJiLrKCq12bm1g+/kEMLLcvgpVUC++o3DS3GqnkXHsE+9Ax7YWpSUYminQQgMWQ1TmByG9TIQGxbhYE6E7d/WVqxcGXLYyZ2q1n2Q/5nl6sxrz2R03fZi/X2WjpZKbMNQXR7ncHpDvSQ6J5/khSrCK0iKAbS/7Nsx7Blwitk5GdUnLkggYWs1ehQjpo57TegCabNwRonM0wpN5/unUQpN2Yq8VCWyPitApB4PLLlnOQ9z+dCKk2GNMhK8UbYLRzDpf5kch9YsQ5GFHal8pKog/jLBm1kVILnRvti6RTl0jyDKXYhO2Rf4UJbhyNmF+SIR4qJcev971I4PXymHvQkR8SWp0piDLwykGQMKXdZIupwO1fTQHNAIO9VskpEIvmm6KkGFssWogaVfFBFtrA9t/V4R9kERF3N1SRKqatVw0W85DCcKeVd0XDFK/CP2lFIOE3U+0VwbWI3ILsfnwm+j4kVB2RPJXwuAoofzOJsyPiVDEDz8g/jJRWcGg2alHVQnh7CsqiFVRPUEAwPSKp6O1PZFL6y/PcKntceQJcSowjS5VGWfVTlWaawPboyK0CxzEaEXUTiPssd84n05IcS2EIMLRi7a6ZdqaH4Q0IEJizUscYNmhHyiWtnDjmJhmYiSG0/22CLHp2T/4lOs3nzCM9eSH+cc37DYmFNuUN6rQFoMi1A5GpVFoOaYhM9Tt4d8oUdBkKTDTth1kFjYaOjjHjsHs4jR+KkUYTFyrMWtdrHombTsOagkVCWwPixCvIUMDcBF9cf3YNUAznQgp9qpvUS4BERXNtKWdOD0MP65DGhIhuAjtFY65fECj6ooaV67lEBz3wqLhINtIEGsVF5znu9ulDBJfm5k3S5p0C6unu+2LIcSgCEU/REIUIW9YlJ37fcDl9lgoCjDQC0nTj5bFYsmiECJ++MIyhT1R1pI35Xy6q1lZROasg1Vk7yrwnZ/G2sC2/eol1hrWLjcFASXB8DcEFlHzaq7tghTVFYp4vSOTuJdFMwMc5gcgDYuQ2ci3XTKgnbE4//xJOqWofuLjSGtAhD8hNkV4pC7YzCVFuEnRLwz8Se+ImxThCFu7t00RvquEdLprV2EjcVKEI2ylbTLwBgZShG8gNV0mAyMMpAhH2ErbZOANDKQI30BqukwGRhhIEY6wlbbJwBsYSBG+gdR0mQyMMJAiHGErbZOBNzCQInwDqekyGRhhIEU4wlbaJgNvYCBF+AZS02UyMMJAinCErbRNBt7AwJgI5b6Y8p49u0+k76/IzY/djuiT6/zzfP1LSLoTaPMP2MGtu2nIR1wZQxS6D9DuvhE/+L4Zl5yXt1c7Evo8yN1S+JCb7Qe+bhWlk2Qjze4wckiECbvxaoVKvD0tWkZX3X97uUJm9N9A48gP9lukNdz9bnpAhIib2wWwyk1fMJY7u8BGxi1g3k+4AVQWEBHa9zK9eP+eL1ux3BpsJoe5r96s8wYY8Nnnh1rZ6o0kyMeeW2DARvcC8NaAxBl7kqtF6SPZJwhU1JJFioRYR/hyWJJAt6euJ7L0Ig8fEPb4iR6ykXXcyuDJ8R3o56uk1cC8YK5fhLEGlmrREOUWtcAY/YRHbqHt13S6TptNBqZg2f3kYQOMUTr6HktyWgHjd59FmjZB7Y5PSdS+KUiAW6Vr/R2d9CfrHjsCLpbJdpJckGY3Qxsw37g2uxjVSIATi/msnCzW1CZqfgoy4eOqsJv24FxJXpJWw/OSuX4RhnABrv8GoA/RutTwdF/eU+9DyPhxu+jTPjcf2geK9YfNDpyP24wSLxBK+A4PZHq/4X8WEOzLRmnyydEaGATL8t1rY7Gpw0N4O0n2nhd+/MOBvGFlXCMBl58v8vycjW2InDb8+IijXJn9Kmk+xIvHwyJEoM2n3281U4m+qCvoCp4tb7yUC9xniCW68vQ5Ez8En3q0gbW9m0UdzGim7gEkgCoABn26Pdij5jGdXwASeq3u9LIejmP40t0dvxkiWXzV9VaUzxk3hmEn4idxSC6hQI31Ml34kWkmVrrCTTeHZQoN0prrX/HFsAg5aI0F7Gw5Ne8Ah43oDpt2jVfv+1WXxTlGzZZ6Hdty+to8bVYPVTDVSV1SGywYQ7oQTXxkTm0xhLOjPSYivVszp9NR6cVS8Dw/lAICiGKmR7DovlbHUcwuSAjfF2e/4bv4oeGn7Ki4aPmpsIeKVElbrnzpzE9F6B99hYB+q8BweTDUH8zH5mVV4A2q2Llf1MD0t4tGbfQNfb8FvtwygO1SEhppedTSHcpfg9Xy8j5sXFVg+QgvM18ZrZJQuXZtuar5KRTVWqrzC/uCECVNV7xr0C/CFYgAV7eQHqQVxQKt5Wt1l63gWT84eGBQANnz/HxtXAQCky0N1NzU+kbsKiHkK3oHhn12WwAKh9JPwyTzGWO1ECMcSjaRhNJDcd0uiyrv0Q9XpHdXBX+VDiwvgoS0SvgXT/WLMDz8F3cR9+uK3oYG9H5tI5uih+pWwKPELctZWeF8Yi/6nq6Y25RbyJM/Kk/sGw/YJ2Jhi5E/9nbg9z4bhC/zKkLyEbWqwNfsRCGRHjyCcEnmiAIbhKAyfUeN+BRkP3kfEKHsH3S8knM55LE4hHF/+74xbMB18VqUOdTD96u5wRHuZ+RM8JDIhcpg76C6iJuKCmAobO03KEuzELz4wUydzPAc5LjcP3bV/5KwTjKsdeS4C2/zGgBXScZmLWqlPFd5q05ayCUJOMMhXFECNrdehkGEYFy82FWdnLb9NmkC4KXvYyIcDX2/as1Gl3r7x3wd+i+BB+2/54n+u08f8wfjr6n76LrmfZS0UftG7EHSGl6eOyezldZb598pwu/5svbDg+68via3R3asGrS/X6sHio5AweQxn1+x44ySNmofMLsPg6S5lWG4bzJDKn/vwztF+PeyyEjJwI4ZSBHuuHgJ/RgMpAiPUcfMYscMpAh3XLyEfgwGUoTHqGNmsWMGUoQ7Ll5CPwYDKcJj1DGz2DEDKcIdFy+hH4OBFOEx6phZ7JiBFOGOi5fQj8FAivAYdcwsdsxAinDHxUvox2AgRXiMOmYWO2YgRbjj4iX0YzCQIjxGHTOLHTOQItxx8RL6MRhIER6jjpnFjhlIEe64eAn9GAykCI9Rx8xixwykCHdcvIR+DAZShMeoY2axYwZShDsuXkI/BgMpwmPUMbPYMQMpwh0XL6Efg4EU4THqmFnsmIEU4Y6Ll9CPwUCK8Bh1zCx2zECKcMfFS+jHYCBFeIw6ZhY7ZiBFuOPiJfRjMPAv43huAbvItTsAAAAASUVORK5CYII=;" vertex="1" parent="4klD2bzXTESAEc0kXJ4--1">
          <mxGeometry x="30" y="20" width="300" height="74" as="geometry" />
        </mxCell>
      </root>
    </mxGraphModel>
  </diagram>
</mxfile>
